{"glyphs":{"0":{"ha":798,"x_min":54,"x_max":739,"o":"m 54 513 q 146 879 54 747 q 400 1010 237 1010 q 650 879 562 1010 q 739 513 739 748 q 699 237 739 357 q 581 49 659 117 q 397 -19 503 -19 l 396 -19 q 212 49 290 -19 q 94 237 134 117 q 54 513 54 356 m 236 513 q 240 383 236 438 q 255 281 245 328 q 284 206 266 235 q 330 161 302 177 q 396 145 358 145 q 475 169 444 145 q 525 241 507 192 q 550 354 543 290 q 557 513 557 419 q 525 772 557 699 q 400 846 494 846 q 271 771 306 846 q 236 513 236 696 z "},"1":{"ha":798,"x_min":155,"x_max":522,"o":"m 340 803 l 340 818 l 155 818 l 177 838 l 342 987 l 522 987 l 522 0 l 340 0 l 340 803 z "},"2":{"ha":798,"x_min":62,"x_max":720,"o":"m 243 730 l 81 778 q 191 944 101 876 q 385 1012 281 1012 q 469 1003 428 1012 q 551 973 509 995 q 623 918 593 951 q 673 830 654 884 q 692 706 692 775 q 668 568 692 624 q 582 450 644 511 q 497 377 551 418 q 402 305 444 336 q 323 236 361 275 q 273 163 286 197 l 720 163 l 720 0 l 62 0 q 91 197 62 117 q 202 362 119 278 q 269 421 230 390 q 340 474 308 452 q 406 524 372 496 q 463 577 439 551 q 500 635 486 602 q 515 706 515 669 q 479 812 515 775 q 385 849 443 849 q 295 820 329 849 q 243 730 260 791 z "},"3":{"ha":798,"x_min":63,"x_max":746,"o":"m 63 219 l 238 267 q 309 174 263 203 q 406 145 355 145 q 519 187 475 145 q 564 291 564 229 q 516 397 564 353 q 406 441 468 441 l 294 441 l 294 586 l 390 586 q 478 626 441 586 q 515 715 515 667 q 478 815 515 780 q 386 850 441 850 q 316 827 346 850 q 273 774 286 805 l 103 819 q 385 1010 176 1010 q 498 995 446 1010 q 593 949 550 980 q 661 866 636 919 q 686 743 686 813 q 588 556 686 627 q 645 513 621 534 q 694 459 669 492 q 732 385 719 427 q 746 291 746 342 q 720 173 746 229 q 650 74 694 116 q 542 6 606 31 q 406 -19 477 -19 q 265 4 329 -19 q 147 82 201 28 q 63 219 93 137 z "},"4":{"ha":798,"x_min":61,"x_max":734,"o":"m 640 397 l 734 397 l 734 236 l 640 236 l 640 0 l 458 0 l 458 236 l 61 236 l 61 374 l 444 987 l 640 987 l 640 397 m 463 749 l 236 399 l 463 399 l 463 749 z "},"5":{"ha":798,"x_min":64,"x_max":750,"o":"m 406 488 q 292 448 331 488 l 118 509 l 198 987 l 661 987 l 661 825 l 343 825 l 306 628 q 406 643 332 643 q 581 603 503 643 q 704 486 659 562 q 750 313 750 410 q 704 139 750 215 q 581 23 659 63 q 406 -18 503 -18 q 291 0 345 -18 q 199 46 237 18 q 132 111 161 75 q 87 181 103 147 q 64 248 71 216 l 243 279 q 253 250 246 267 q 275 215 260 233 q 307 181 289 197 q 350 156 324 166 q 406 146 376 146 q 526 194 480 146 q 571 313 571 241 q 525 436 571 385 q 406 488 479 488 z "},"6":{"ha":798,"x_min":74,"x_max":724,"o":"m 541 291 q 500 402 541 356 q 396 448 460 448 q 295 401 334 448 q 256 294 256 355 q 297 184 256 228 q 397 141 338 141 q 501 187 461 141 q 541 291 541 233 m 363 608 q 400 612 367 612 q 634 522 544 612 q 724 291 724 431 q 700 178 724 234 q 633 79 675 123 q 529 8 591 35 q 396 -19 467 -19 q 230 25 304 -19 q 114 141 155 70 q 74 292 74 212 q 88 403 74 347 q 116 490 102 459 q 155 569 130 521 q 186 627 181 617 l 371 987 l 566 987 l 363 608 z "},"7":{"ha":798,"x_min":66,"x_max":785,"o":"m 785 987 l 286 0 l 66 0 l 477 815 l 68 815 l 68 987 l 785 987 z "},"8":{"ha":798,"x_min":46,"x_max":754,"o":"m 400 131 q 525 176 477 131 q 572 294 572 222 q 520 411 572 364 q 400 458 469 458 q 273 413 319 458 q 228 294 228 367 q 275 176 228 222 q 400 131 323 131 m 267 743 q 302 655 267 684 q 400 626 337 626 q 497 655 460 626 q 533 743 533 684 q 499 828 533 795 q 399 861 465 861 q 300 828 333 861 q 267 743 267 795 m 399 1010 q 627 935 538 1010 q 715 743 715 859 q 710 695 715 718 q 698 656 704 672 q 677 622 692 640 q 655 596 662 604 q 629 573 648 588 q 608 557 610 559 q 588 544 606 555 q 701 455 647 528 q 754 294 754 382 q 726 158 754 218 q 650 59 699 98 q 536 1 601 21 q 397 -19 472 -19 q 141 67 235 -19 q 46 294 46 153 q 101 455 46 380 q 212 544 156 530 q 175 570 193 555 q 134 608 157 584 q 98 668 112 633 q 85 743 85 703 q 171 937 85 863 q 399 1010 256 1010 z "},"9":{"ha":798,"x_min":73,"x_max":722,"o":"m 255 696 q 296 586 255 631 q 400 540 336 540 q 502 586 463 540 q 541 694 541 633 q 499 803 541 760 q 399 846 458 846 q 295 801 335 846 q 255 696 255 755 m 433 379 q 396 376 429 376 q 162 466 252 376 q 73 696 73 556 q 97 809 73 753 q 163 908 121 865 q 267 979 205 952 q 400 1006 330 1006 q 567 962 492 1006 q 682 846 642 918 q 722 695 722 775 q 708 584 722 640 q 681 497 694 528 q 641 418 667 467 q 610 361 615 370 l 425 0 l 231 0 l 433 379 z "},"":{"ha":956,"x_min":68,"x_max":901,"o":"m 519 421 l 519 378 l 431 378 l 431 442 q 437 473 431 458 q 453 497 442 485 q 474 517 461 507 q 498 536 492 531 q 519 555 508 543 q 534 579 528 566 q 541 608 541 594 q 531 640 541 627 q 506 656 522 651 q 475 661 492 661 q 432 644 450 661 q 412 600 414 626 l 323 614 q 370 706 330 670 q 474 743 410 743 q 522 737 496 743 q 566 721 545 732 q 601 694 585 710 q 625 657 616 680 q 635 610 635 635 q 628 564 635 588 q 612 529 622 543 q 589 503 601 514 q 565 483 577 492 q 543 465 553 473 q 526 444 532 456 q 519 421 519 432 m 422 288 q 437 327 422 311 q 476 343 454 343 q 515 327 498 343 q 531 288 531 311 q 515 250 531 267 q 476 234 498 234 q 437 250 454 234 q 422 288 422 266 m 710 511 q 699 629 710 572 q 663 736 687 687 q 593 817 640 785 q 485 847 547 847 q 395 827 434 847 q 331 773 357 807 q 289 696 304 737 q 266 606 271 648 q 260 511 260 560 q 267 408 260 456 q 290 310 274 357 q 331 225 307 260 q 396 167 357 189 q 485 144 435 144 q 575 167 536 144 q 639 225 614 189 q 681 310 666 264 q 704 408 699 362 q 710 511 710 458 m 68 511 q 81 647 68 578 q 127 780 94 711 q 205 897 157 844 q 324 979 252 947 q 485 1010 395 1010 q 646 979 574 1010 q 764 897 718 947 q 842 781 810 849 q 888 647 875 712 q 901 511 901 578 q 888 368 901 441 q 842 225 875 299 q 764 100 811 155 q 645 14 718 47 q 485 -20 574 -20 q 326 14 397 -20 q 206 100 252 48 q 127 224 159 155 q 81 367 96 296 q 68 511 68 435 z "}," ":{"ha":418,"x_min":0,"x_max":0,"o":""},"!":{"ha":310,"x_min":47,"x_max":269,"o":"m 47 89 q 79 168 47 135 q 158 200 112 200 q 237 168 204 200 q 269 89 269 135 q 237 10 269 43 q 158 -22 204 -22 q 80 11 113 -22 q 47 89 47 43 m 225 298 q 201 271 225 283 q 158 258 176 258 q 114 271 138 258 q 90 298 90 283 l 62 942 q 95 986 62 967 q 157 1006 127 1006 q 219 986 186 1006 q 252 943 252 967 l 225 298 z "},"\"":{"ha":593,"x_min":87,"x_max":498,"o":"m 355 741 l 342 994 q 369 1031 342 1017 q 418 1046 395 1046 l 421 1046 q 468 1035 441 1046 q 497 1008 494 1025 q 498 994 498 1004 l 485 741 q 460 717 484 726 q 419 708 436 708 q 381 715 404 708 q 356 734 359 722 q 356 737 356 735 q 355 741 355 739 m 102 741 l 87 994 q 114 1031 87 1017 q 164 1046 141 1046 l 167 1046 q 214 1036 188 1046 q 243 1008 239 1025 q 244 994 244 1004 l 231 741 q 206 717 230 726 q 165 708 182 708 q 127 715 149 708 q 102 734 104 722 q 102 741 102 736 z "},"#":{"ha":1061,"x_min":81,"x_max":977,"o":"m 594 404 l 594 567 l 469 567 l 469 404 l 594 404 m 766 241 l 766 32 l 594 32 l 594 241 l 469 241 l 469 32 l 296 32 l 296 241 l 81 241 l 81 404 l 296 404 l 296 567 l 81 567 l 81 728 l 296 728 l 296 951 l 469 951 l 469 728 l 594 728 l 594 951 l 766 951 l 766 728 l 977 728 l 977 567 l 766 567 l 766 404 l 977 404 l 977 241 l 766 241 z "},"$":{"ha":629,"x_min":14,"x_max":689,"o":"m 293 1042 l 408 1042 l 408 952 q 554 904 493 945 q 659 783 615 862 l 479 728 q 447 769 458 759 q 408 786 435 779 l 408 558 q 490 528 456 542 q 565 488 524 513 q 630 433 605 463 q 672 360 655 404 q 689 261 689 315 q 614 72 689 149 q 408 -18 540 -5 l 408 -105 l 294 -105 l 294 -18 q 193 11 241 -14 q 111 73 145 36 q 52 150 76 110 q 14 233 28 191 l 180 289 q 238 188 216 214 q 294 153 264 157 l 294 433 q 29 713 29 492 q 107 880 29 812 q 293 953 186 947 l 293 1042 m 294 600 l 294 791 q 235 760 254 787 q 216 708 216 732 q 235 640 216 663 q 294 600 253 616 m 408 392 l 408 147 q 503 262 503 168 q 499 291 503 277 q 488 325 496 305 q 458 362 479 344 q 408 392 438 380 z "},"%":{"ha":973,"x_min":64,"x_max":903,"o":"m 637 252 q 654 202 637 220 q 697 183 671 183 q 739 201 723 183 q 755 252 755 219 q 738 303 755 281 q 696 325 721 325 q 655 303 672 325 q 637 252 637 281 m 492 251 q 551 402 492 340 q 697 464 611 464 q 842 402 782 464 q 903 252 903 340 q 842 104 903 165 q 697 43 782 43 q 551 103 611 43 q 492 251 492 164 m 210 729 q 227 680 210 698 q 269 661 243 661 q 311 679 295 661 q 328 729 328 696 q 310 781 328 759 q 268 803 293 803 q 227 781 245 803 q 210 729 210 759 m 64 730 q 124 880 64 818 q 269 942 184 942 q 416 880 355 942 q 476 729 476 817 q 416 582 476 642 q 269 521 355 521 q 124 582 184 521 q 64 730 64 642 m 329 81 l 186 81 l 642 907 l 778 907 l 329 81 z "},"&":{"ha":871,"x_min":40,"x_max":803,"o":"m 482 791 q 437 843 468 820 q 367 867 407 867 q 288 839 321 867 q 254 758 254 810 q 289 672 254 703 q 378 642 324 642 l 493 642 l 493 479 l 380 479 q 263 425 309 479 q 217 290 217 371 q 261 175 217 222 q 374 127 305 127 q 486 161 449 127 q 524 243 524 195 l 406 243 l 406 390 l 803 390 l 803 244 l 696 244 q 684 173 696 210 q 647 98 673 136 q 585 31 622 60 q 494 -17 549 1 q 374 -36 439 -36 q 209 2 285 -36 q 86 110 132 41 q 40 265 40 180 q 202 562 40 488 q 162 585 182 570 q 120 624 141 600 q 85 683 99 648 q 72 758 72 718 q 157 956 72 880 q 368 1031 243 1031 q 528 985 463 1031 q 625 864 593 939 l 482 791 z "},"'":{"ha":315,"x_min":87,"x_max":244,"o":"m 102 741 l 87 994 q 114 1031 87 1017 q 164 1046 141 1046 l 167 1046 q 214 1036 188 1046 q 243 1008 239 1025 q 244 994 244 1004 l 231 741 q 206 717 230 726 q 165 708 182 708 q 127 715 149 708 q 102 734 104 722 q 102 741 102 736 z "},"(":{"ha":443,"x_min":21,"x_max":375,"o":"m 196 -57 q 59 203 98 67 q 21 501 21 338 q 196 1060 21 835 l 375 1060 q 240 782 285 928 q 196 494 196 636 q 242 214 196 359 q 375 -57 288 70 l 196 -57 z "},")":{"ha":436,"x_min":54,"x_max":408,"o":"m 231 -65 l 54 -65 q 187 209 140 60 q 233 493 233 357 q 186 774 233 623 q 54 1050 140 924 l 231 1050 q 408 493 408 823 q 368 196 408 334 q 231 -65 328 57 z "},"*":{"ha":795,"x_min":59,"x_max":734,"o":"m 517 557 l 683 566 q 720 539 706 566 q 734 490 734 513 l 734 487 q 724 440 734 466 q 696 411 714 414 q 683 410 692 410 l 516 418 l 607 279 q 611 262 611 271 q 596 224 611 244 q 566 197 581 205 q 566 196 566 197 l 564 195 q 508 180 537 180 q 479 190 488 180 q 471 201 475 193 l 395 350 l 321 201 q 279 183 310 183 q 229 195 250 183 q 227 197 228 195 q 195 224 211 205 q 178 260 178 243 q 180 267 178 265 q 185 280 180 273 l 275 419 l 111 410 q 73 436 87 410 q 59 486 59 463 l 59 489 q 69 536 59 510 q 97 565 79 562 q 111 566 101 566 l 279 557 l 186 697 q 182 714 182 705 q 197 752 182 732 q 227 781 212 772 l 230 782 q 286 797 255 797 q 315 787 305 797 q 322 776 319 783 l 398 627 l 473 775 q 515 794 484 794 q 565 782 543 794 l 568 781 q 599 752 583 771 q 615 718 615 734 q 614 709 615 712 q 608 697 612 703 l 517 557 z "},"+":{"ha":659,"x_min":46,"x_max":584,"o":"m 46 515 l 227 515 l 227 720 l 389 720 l 389 515 l 584 515 l 584 353 l 389 353 l 389 158 l 227 158 l 227 353 l 46 353 l 46 515 z "},",":{"ha":301,"x_min":38,"x_max":259,"o":"m 259 93 q 245 14 259 54 q 210 -56 231 -26 q 170 -107 189 -87 q 138 -139 152 -127 l 87 -110 q 106 -70 95 -98 q 118 -27 118 -42 q 117 -20 118 -24 q 61 17 85 -12 q 38 93 38 45 q 71 168 38 134 q 146 202 103 202 q 229 168 199 202 q 259 93 259 134 z "},"-":{"ha":651,"x_min":66,"x_max":590,"o":"m 66 511 l 590 511 l 590 349 l 66 349 l 66 511 z "},".":{"ha":306,"x_min":43,"x_max":266,"o":"m 43 89 q 76 168 43 135 q 155 200 109 200 q 233 168 201 200 q 266 89 266 135 q 233 10 266 43 q 155 -22 201 -22 q 76 11 109 -22 q 43 89 43 43 z "},"/":{"ha":574,"x_min":-28,"x_max":597,"o":"m 166 0 l -28 0 l 416 1047 l 597 1047 l 166 0 z "},":":{"ha":298,"x_min":43,"x_max":266,"o":"m 43 583 q 76 661 43 629 q 155 694 109 694 q 233 661 201 694 q 266 583 266 629 q 233 504 266 536 q 155 471 201 471 q 76 504 109 471 q 43 583 43 537 m 43 89 q 76 168 43 135 q 155 200 109 200 q 233 168 201 200 q 266 89 266 135 q 233 10 266 43 q 155 -22 201 -22 q 76 11 109 -22 q 43 89 43 43 z "},";":{"ha":298,"x_min":43,"x_max":266,"o":"m 266 93 q 252 14 266 54 q 216 -56 237 -26 q 177 -107 195 -87 q 144 -139 159 -127 l 94 -110 q 113 -70 102 -98 q 125 -27 125 -42 q 123 -20 125 -24 q 68 17 92 -12 q 45 93 45 45 q 77 168 45 134 q 153 202 110 202 q 236 168 206 202 q 266 93 266 134 m 43 583 q 76 662 43 629 q 155 694 109 694 q 233 662 201 694 q 266 583 266 629 q 233 505 266 537 q 155 472 201 472 q 76 505 109 472 q 43 583 43 538 z "},"<":{"ha":586,"x_min":31,"x_max":539,"o":"m 314 16 l 31 431 l 314 839 l 539 839 l 255 429 l 538 16 l 314 16 z "},"=":{"ha":615,"x_min":37,"x_max":581,"o":"m 37 372 l 581 372 l 581 210 l 37 210 l 37 372 m 37 621 l 581 621 l 581 458 l 37 458 l 37 621 z "},">":{"ha":586,"x_min":37,"x_max":547,"o":"m 267 14 l 37 14 l 323 429 l 37 838 l 267 838 l 547 431 l 267 14 z "},"?":{"ha":701,"x_min":32,"x_max":667,"o":"m 233 89 q 265 168 233 135 q 344 200 298 200 q 422 168 390 200 q 455 89 455 135 q 422 10 455 43 q 344 -22 390 -22 q 266 11 298 -22 q 233 89 233 43 m 433 359 l 433 271 l 252 271 l 252 403 q 264 465 252 436 q 296 514 277 493 q 340 554 316 535 q 388 593 363 574 q 431 633 412 612 q 464 682 451 654 q 476 742 476 709 q 455 805 476 780 q 405 840 434 830 q 342 850 376 850 q 253 814 288 850 q 214 725 218 779 l 32 753 q 127 941 45 867 q 339 1015 210 1015 q 437 1004 389 1015 q 526 971 484 994 q 599 917 568 949 q 649 841 631 886 q 667 745 667 797 q 654 651 667 694 q 620 580 641 608 q 575 528 600 551 q 525 485 550 504 q 480 448 500 466 q 446 407 459 429 q 433 359 433 385 z "},"@":{"ha":1178,"x_min":54,"x_max":1126,"o":"m 830 176 l 906 77 q 763 2 836 26 q 593 -22 690 -22 q 383 18 483 -22 q 211 127 283 58 q 96 292 138 195 q 54 496 54 388 q 96 699 54 603 q 211 864 138 795 q 383 974 283 933 q 593 1014 483 1014 q 802 975 703 1014 q 972 870 901 937 q 1084 711 1043 804 q 1126 515 1126 619 q 1062 330 1126 407 q 919 253 999 253 q 844 275 881 253 q 782 339 806 296 q 593 235 724 235 q 400 311 481 235 q 320 496 320 388 q 400 669 320 597 q 593 742 481 742 q 779 671 704 742 q 853 506 853 601 q 872 435 853 468 q 916 401 891 401 q 965 435 944 401 q 985 515 985 468 q 934 706 985 618 q 792 846 882 794 q 593 897 702 897 q 437 865 512 897 q 308 779 362 833 q 221 650 254 725 q 189 494 189 576 q 221 337 189 412 q 308 208 254 262 q 437 122 362 154 q 593 90 512 90 q 725 116 660 90 q 830 176 791 142 m 469 496 q 505 408 469 443 q 593 372 542 372 q 677 411 646 372 q 709 505 709 450 q 674 583 709 552 q 593 614 640 614 q 506 582 543 614 q 469 496 469 549 z "},"A":{"ha":964,"x_min":14,"x_max":934,"o":"m 475 762 l 357 421 l 592 421 l 475 762 m 579 987 l 934 0 l 723 0 l 631 259 q 317 259 631 259 l 224 0 l 14 0 l 368 987 l 579 987 z "},"B":{"ha":829,"x_min":78,"x_max":786,"o":"m 260 433 l 260 163 l 414 163 q 604 298 604 163 q 414 433 604 433 l 260 433 m 260 825 l 260 595 l 374 595 q 507 628 467 595 q 547 709 547 661 q 507 791 547 757 q 374 825 467 825 l 260 825 m 78 987 l 374 987 q 489 978 437 987 q 577 953 541 968 q 641 916 613 938 q 685 871 669 894 q 711 822 701 848 q 725 772 722 795 q 729 726 729 749 q 690 606 729 652 q 587 541 651 560 q 700 480 652 525 q 766 388 747 435 q 786 298 786 340 q 779 226 786 262 q 749 148 772 191 q 689 74 726 106 q 586 21 652 43 q 434 0 520 0 l 78 0 l 78 987 z "},"C":{"ha":956,"x_min":68,"x_max":880,"o":"m 680 657 q 646 744 670 703 q 578 814 621 785 q 485 844 536 844 q 395 824 435 844 q 331 769 356 803 q 290 688 306 735 q 267 593 273 642 q 260 492 260 545 q 267 392 260 440 q 290 298 273 345 q 331 218 306 252 q 396 164 356 184 q 485 143 435 143 q 612 199 559 143 q 680 328 664 256 l 879 328 q 853 231 873 279 q 799 137 833 182 q 720 57 765 92 q 614 1 675 22 q 485 -20 553 -20 q 325 12 397 -20 q 206 95 253 43 q 127 214 159 146 q 82 351 96 281 q 68 492 68 421 q 82 635 68 565 q 127 773 96 705 q 206 893 159 842 q 325 976 253 944 q 485 1007 397 1007 q 614 986 553 1007 q 720 929 675 964 q 800 848 765 894 q 854 754 834 802 q 880 657 873 705 l 680 657 z "},"D":{"ha":863,"x_min":78,"x_max":811,"o":"m 619 510 q 547 737 619 648 q 354 825 474 825 l 260 825 l 260 163 l 354 163 q 547 257 475 163 q 619 510 619 352 m 811 510 q 759 249 811 366 q 611 66 707 133 q 395 0 516 0 l 78 0 l 78 987 l 395 987 q 613 923 517 987 q 760 750 709 859 q 811 510 811 642 z "},"E":{"ha":821,"x_min":78,"x_max":744,"o":"m 78 987 l 744 987 l 744 825 l 260 825 l 260 587 l 701 587 l 701 425 l 260 425 l 260 163 l 744 163 l 744 0 l 78 0 l 78 987 z "},"F":{"ha":808,"x_min":78,"x_max":744,"o":"m 78 987 l 744 987 l 744 825 l 260 825 l 260 587 l 701 587 l 701 425 l 260 425 l 260 0 l 78 0 l 78 987 z "},"G":{"ha":964,"x_min":61,"x_max":873,"o":"m 484 -18 q 321 14 394 -18 q 201 99 249 46 q 121 222 154 151 q 75 366 89 292 q 61 517 61 439 q 75 657 61 589 q 121 791 89 726 q 201 906 154 857 q 322 985 249 955 q 485 1015 395 1015 q 675 961 589 1015 q 803 814 762 907 l 628 755 q 568 822 618 791 q 485 852 518 852 q 382 822 428 852 q 309 742 336 791 q 267 634 281 692 q 253 517 253 576 q 267 385 253 450 q 309 266 281 321 q 381 177 336 211 q 484 143 427 143 q 569 159 532 143 q 627 200 606 176 q 662 259 648 225 q 680 323 675 293 q 685 385 685 353 l 479 385 l 479 547 l 873 547 l 873 448 q 862 316 873 380 q 821 191 850 252 q 748 83 791 129 q 636 9 705 37 q 484 -18 568 -18 z "},"H":{"ha":850,"x_min":78,"x_max":772,"o":"m 78 987 l 260 987 l 260 586 l 589 586 l 589 987 l 772 987 l 772 0 l 589 0 l 589 423 l 260 423 l 260 0 l 78 0 l 78 987 z "},"I":{"ha":376,"x_min":97,"x_max":279,"o":"m 97 0 l 97 987 l 279 987 l 279 0 l 97 0 z "},"J":{"ha":843,"x_min":69,"x_max":765,"o":"m 69 397 l 251 397 q 418 139 251 139 q 498 161 465 139 q 550 222 532 184 q 575 304 568 261 q 583 397 583 347 l 583 987 l 765 987 l 765 397 q 727 178 765 272 q 610 31 689 85 q 418 -24 530 -24 q 289 -3 347 -24 q 190 56 231 18 q 122 146 150 94 q 82 262 95 199 q 69 397 69 325 z "},"K":{"ha":904,"x_min":78,"x_max":875,"o":"m 78 987 l 260 987 l 260 565 l 628 987 l 855 987 l 478 548 l 875 0 l 647 0 l 339 426 l 260 336 l 260 0 l 78 0 l 78 987 z "},"L":{"ha":793,"x_min":78,"x_max":745,"o":"m 78 987 l 260 987 l 260 163 l 745 163 l 745 0 l 78 0 l 78 987 z "},"M":{"ha":1122,"x_min":78,"x_max":1044,"o":"m 78 0 l 78 987 l 322 987 l 559 288 l 801 987 l 1044 987 l 1044 0 l 863 0 l 863 652 l 651 0 l 468 0 l 260 652 l 260 0 l 78 0 z "},"N":{"ha":903,"x_min":78,"x_max":825,"o":"m 78 0 l 78 987 l 254 987 l 643 350 l 643 987 l 825 987 l 825 0 l 646 0 l 260 660 l 260 0 l 78 0 z "},"O":{"ha":956,"x_min":68,"x_max":901,"o":"m 710 492 q 699 619 710 559 q 663 730 688 678 q 592 813 638 783 q 485 844 547 844 q 395 824 435 844 q 331 769 356 803 q 290 688 306 735 q 267 593 273 642 q 260 492 260 545 q 267 392 260 440 q 290 298 273 345 q 331 218 306 252 q 396 164 356 184 q 485 143 435 143 q 575 164 535 143 q 639 218 614 184 q 680 298 664 252 q 703 392 696 345 q 710 492 710 440 m 68 492 q 82 635 68 565 q 127 773 96 705 q 206 893 159 842 q 325 976 253 944 q 485 1007 397 1007 q 645 976 573 1007 q 764 893 717 944 q 842 773 810 842 q 888 635 874 705 q 901 492 901 565 q 888 351 901 420 q 842 214 874 281 q 764 95 810 146 q 645 12 717 43 q 485 -20 573 -20 q 325 12 397 -20 q 206 95 253 43 q 127 214 159 146 q 82 351 96 281 q 68 492 68 421 z "},"P":{"ha":810,"x_min":78,"x_max":748,"o":"m 260 559 l 308 559 q 397 561 361 559 q 467 571 433 564 q 520 594 500 579 q 551 632 539 608 q 562 692 562 656 q 551 751 562 727 q 520 790 539 775 q 467 812 500 804 q 397 822 433 820 q 308 825 361 825 l 260 825 l 260 559 m 78 987 l 260 987 q 348 986 314 987 q 439 980 382 985 q 533 963 496 974 q 614 930 570 952 q 686 878 659 909 q 730 800 712 848 q 748 692 748 752 q 730 584 748 631 q 686 506 712 536 q 615 453 659 475 q 533 420 570 431 q 438 404 495 410 q 348 397 382 398 q 260 396 313 396 l 260 0 l 78 0 l 78 987 z "},"Q":{"ha":975,"x_min":66,"x_max":906,"o":"m 710 511 q 687 680 710 605 q 613 803 665 755 q 488 851 562 851 q 380 822 426 851 q 310 743 335 793 q 273 635 285 693 q 261 511 261 577 q 266 430 261 471 q 280 347 270 390 q 307 268 290 304 q 348 203 324 232 q 407 157 372 174 q 484 140 441 140 q 574 165 547 140 l 465 245 l 565 379 l 672 290 q 699 389 688 319 q 710 511 710 458 m 66 511 q 80 642 66 576 q 124 775 93 707 q 203 895 156 843 q 323 981 250 947 q 488 1014 397 1014 q 643 984 572 1014 q 759 906 713 955 q 838 791 806 857 q 884 655 870 726 q 899 511 899 585 q 874 315 899 401 q 814 176 850 229 l 906 109 l 804 -20 l 714 54 q 614 -2 675 19 q 481 -24 553 -24 q 329 8 399 -24 q 212 92 260 39 q 131 215 165 145 q 82 360 98 285 q 66 511 66 435 z "},"R":{"ha":830,"x_min":78,"x_max":785,"o":"m 260 559 l 308 559 q 397 561 361 559 q 467 571 433 564 q 520 593 500 579 q 551 632 539 608 q 562 691 562 656 q 551 750 562 726 q 520 789 539 774 q 467 812 500 804 q 397 822 433 820 q 308 825 361 825 l 260 825 l 260 559 m 578 -1 l 361 395 q 321 393 344 393 q 288 394 310 393 q 260 394 267 394 l 260 -1 l 78 -1 l 78 987 l 260 987 q 348 986 313 987 q 438 979 382 985 q 533 962 495 973 q 615 929 570 951 q 686 877 659 907 q 730 799 712 846 q 748 691 748 751 q 696 520 748 588 q 541 425 644 452 l 785 -1 l 578 -1 z "},"S":{"ha":815,"x_min":56,"x_max":764,"o":"m 56 274 l 238 303 q 300 190 255 235 q 420 144 346 144 q 537 180 496 144 q 578 274 578 216 q 565 331 578 305 q 533 373 552 356 q 481 406 513 389 q 420 433 449 422 q 349 461 391 444 q 275 492 306 478 q 207 530 235 512 q 150 577 179 548 q 106 646 121 606 q 92 739 92 687 q 119 859 92 806 q 193 945 146 912 q 298 995 240 978 q 420 1012 356 1012 q 622 953 534 1012 q 739 804 709 894 l 553 770 q 420 848 520 848 q 317 823 357 848 q 277 739 277 798 q 296 689 277 712 q 348 648 314 666 q 413 617 381 630 q 488 588 446 604 q 552 562 530 572 q 620 526 591 543 q 677 483 649 508 q 724 428 706 457 q 753 360 742 399 q 764 274 764 321 q 665 60 764 140 q 420 -20 567 -20 q 177 61 279 -20 q 56 274 76 142 z "},"T":{"ha":918,"x_min":53,"x_max":868,"o":"m 53 987 l 868 987 l 868 825 l 558 825 l 558 0 l 376 0 l 376 825 l 53 825 l 53 987 z "},"U":{"ha":865,"x_min":78,"x_max":787,"o":"m 432 -24 q 238 31 319 -24 q 118 179 157 85 q 78 397 78 273 l 78 987 l 260 987 l 260 397 q 269 304 260 348 q 296 222 277 261 q 350 161 315 184 q 432 139 385 139 q 500 154 470 139 q 550 194 530 170 q 582 253 569 219 q 600 323 595 288 q 605 397 605 359 l 605 987 l 787 987 l 787 397 q 747 179 787 273 q 626 31 707 85 q 432 -24 545 -24 z "},"V":{"ha":883,"x_min":47,"x_max":835,"o":"m 646 987 l 835 987 l 552 0 l 337 0 l 47 987 l 243 987 l 444 279 l 646 987 z "},"W":{"ha":1158,"x_min":50,"x_max":1048,"o":"m 50 987 l 234 987 l 320 338 l 443 969 l 656 969 l 779 334 l 865 987 l 1048 987 l 887 0 l 670 0 l 549 661 l 429 0 l 212 0 l 50 987 z "},"X":{"ha":899,"x_min":43,"x_max":856,"o":"m 45 987 l 276 987 l 450 665 l 623 987 l 854 987 l 558 495 l 856 0 l 625 0 l 450 326 l 274 0 l 43 0 l 341 495 l 45 987 z "},"Y":{"ha":899,"x_min":45,"x_max":854,"o":"m 45 987 l 276 987 l 450 665 l 623 987 l 854 987 l 541 468 l 541 0 l 359 0 l 359 468 l 45 987 z "},"Z":{"ha":935,"x_min":49,"x_max":886,"o":"m 94 987 l 886 987 l 358 163 l 882 163 l 882 0 l 49 0 l 578 825 l 94 825 l 94 987 z "},"[":{"ha":504,"x_min":82,"x_max":422,"o":"m 422 -66 l 82 -66 l 82 1039 l 422 1039 l 422 876 l 254 876 l 254 94 l 422 94 l 422 -66 z "},"\\":{"ha":581,"x_min":-26,"x_max":607,"o":"m 397 0 l -26 1046 l 172 1046 l 607 0 l 397 0 z "},"]":{"ha":504,"x_min":81,"x_max":420,"o":"m 81 -66 l 81 96 l 248 96 l 248 876 l 81 876 l 81 1039 l 420 1039 l 420 -66 l 81 -66 z "},"^":{"ha":733,"x_min":83,"x_max":628,"o":"m 628 779 l 444 779 l 355 888 l 271 781 l 83 781 l 275 1012 l 435 1012 l 628 779 z "},"_":{"ha":842,"x_min":53,"x_max":791,"o":"m 53 -191 l 53 -28 l 791 -28 l 791 -191 l 53 -191 z "},"`":{"ha":363,"x_min":52,"x_max":355,"o":"m 275 1040 l 67 1184 q 54 1204 57 1192 q 52 1222 52 1213 q 55 1245 52 1234 q 72 1280 60 1266 q 96 1303 83 1293 q 125 1317 109 1313 q 138 1319 132 1319 q 157 1312 149 1319 l 349 1145 q 353 1136 352 1142 q 355 1124 355 1129 q 351 1103 355 1113 q 337 1072 345 1082 q 316 1051 329 1062 q 292 1038 304 1041 q 285 1036 286 1036 q 275 1040 280 1036 z "},"a":{"ha":732,"x_min":61,"x_max":663,"o":"m 458 321 q 440 338 458 321 q 363 355 422 355 q 264 321 303 355 q 225 241 225 287 q 264 163 225 196 q 363 130 302 130 q 458 162 422 130 q 493 241 493 195 q 458 321 493 288 m 305 503 q 423 468 372 503 q 488 391 474 434 l 488 446 q 476 516 488 486 q 448 563 465 546 q 408 591 431 581 q 364 605 385 602 q 320 608 343 608 q 259 602 289 608 q 214 590 229 595 q 174 572 200 584 l 104 684 q 200 728 134 708 q 320 747 266 747 q 424 737 376 747 q 517 701 473 726 q 594 638 562 676 q 645 543 626 601 q 663 413 663 486 l 663 207 l 663 0 l 489 0 l 489 92 q 425 15 475 49 q 308 -20 375 -20 q 133 56 204 -20 q 61 243 61 131 q 132 429 61 355 q 305 503 203 503 z "},"b":{"ha":761,"x_min":81,"x_max":721,"o":"m 256 0 l 81 0 l 81 986 l 256 986 l 256 622 q 348 712 291 677 q 464 746 405 746 q 579 715 529 746 q 660 630 629 684 q 706 508 690 576 q 721 361 721 440 q 705 214 721 281 q 659 94 690 146 q 578 11 629 41 q 464 -19 528 -19 q 348 16 406 -19 q 256 106 291 51 l 256 0 m 545 364 q 532 469 545 424 q 497 538 519 513 q 451 575 475 564 q 401 587 427 587 q 349 576 374 587 q 301 541 324 565 q 264 471 278 517 q 250 364 250 425 q 264 257 250 302 q 301 186 278 211 q 349 151 324 162 q 401 140 374 140 q 450 154 425 140 q 496 195 475 168 q 531 266 518 221 q 545 364 545 310 z "},"c":{"ha":710,"x_min":58,"x_max":664,"o":"m 519 513 q 397 590 475 590 q 283 525 330 590 q 236 361 236 460 q 287 200 236 262 q 411 138 337 138 q 436 140 425 138 q 455 144 447 142 q 471 153 463 146 q 484 162 479 159 q 494 174 488 165 q 502 186 500 183 q 510 200 504 189 q 517 214 515 212 l 662 138 q 557 26 622 72 q 411 -20 492 -20 q 154 84 249 -20 q 58 361 58 188 q 154 639 58 532 q 397 746 250 746 q 550 703 476 746 q 664 589 625 660 l 519 513 z "},"d":{"ha":761,"x_min":50,"x_max":690,"o":"m 515 0 l 515 106 q 423 16 480 51 q 307 -19 366 -19 q 193 11 243 -19 q 112 94 142 41 q 66 214 81 146 q 50 361 50 281 q 65 508 50 440 q 111 630 81 576 q 192 715 142 684 q 307 746 242 746 q 423 712 366 746 q 515 622 480 677 l 515 986 l 690 986 l 690 0 l 515 0 m 227 364 q 240 266 227 310 q 275 195 253 221 q 321 154 296 168 q 370 140 346 140 q 422 151 397 140 q 470 186 447 162 q 507 257 493 211 q 521 364 521 302 q 507 471 521 425 q 470 541 493 517 q 422 576 447 565 q 370 587 397 587 q 320 575 344 587 q 274 538 296 564 q 239 469 252 513 q 227 364 227 424 z "},"e":{"ha":741,"x_min":60,"x_max":696,"o":"m 246 441 l 526 441 q 484 546 522 503 q 386 589 447 589 q 288 545 326 589 q 246 441 250 501 m 392 136 q 496 181 459 136 l 651 115 q 536 16 609 51 q 392 -20 464 -20 q 264 9 325 -20 q 158 89 203 39 q 86 211 113 139 q 60 364 60 283 q 155 636 60 527 q 386 745 250 745 q 546 695 475 745 q 656 559 617 646 q 696 364 696 473 l 696 318 l 245 318 q 257 240 246 274 q 283 186 268 205 q 319 156 299 168 q 357 140 340 144 q 392 136 374 136 z "},"f":{"ha":530,"x_min":50,"x_max":536,"o":"m 319 572 l 319 0 l 144 0 l 144 572 l 50 572 l 50 728 l 144 728 l 144 782 q 163 856 144 816 q 213 930 182 895 q 289 987 243 964 q 382 1010 334 1010 q 536 949 474 1010 l 435 828 q 406 848 424 841 q 375 854 388 854 q 333 840 346 854 q 319 795 319 826 l 319 728 l 431 728 l 431 572 l 319 572 z "},"g":{"ha":771,"x_min":50,"x_max":690,"o":"m 515 -47 l 515 106 q 423 16 480 51 q 307 -19 366 -19 q 193 11 243 -19 q 112 94 142 41 q 66 214 81 146 q 50 361 50 281 q 65 508 50 440 q 111 630 81 576 q 192 715 142 684 q 307 746 242 746 q 423 712 366 746 q 515 622 480 677 l 515 728 l 690 728 l 690 -34 q 670 -138 690 -89 q 611 -227 650 -188 q 512 -290 573 -267 q 374 -313 450 -313 q 263 -296 314 -313 q 179 -255 213 -280 q 122 -196 146 -229 q 86 -131 98 -163 q 71 -67 74 -99 q 235 -60 171 -62 q 276 -133 241 -105 q 374 -161 310 -161 q 476 -131 437 -161 q 515 -47 515 -100 m 227 364 q 240 266 227 310 q 275 195 253 221 q 321 154 296 168 q 370 140 346 140 q 422 151 397 140 q 470 186 447 162 q 507 257 493 211 q 521 364 521 302 q 507 471 521 425 q 470 541 493 517 q 422 576 447 565 q 370 587 397 587 q 320 575 344 587 q 274 538 296 564 q 239 469 252 513 q 227 364 227 424 z "},"h":{"ha":760,"x_min":81,"x_max":688,"o":"m 256 0 l 81 0 l 81 986 l 256 986 l 256 618 q 346 711 286 674 q 475 747 405 747 q 549 728 512 747 q 617 673 586 709 q 668 580 649 637 q 688 453 688 522 l 688 0 l 513 0 l 513 364 q 504 477 513 432 q 479 546 496 523 q 441 579 462 570 q 391 588 420 588 q 348 583 367 588 q 312 562 330 577 q 282 523 294 547 q 263 458 270 498 q 256 363 256 418 l 256 0 z "},"i":{"ha":362,"x_min":82,"x_max":281,"o":"m 112 828 q 97 844 112 828 q 82 905 82 861 q 112 981 82 949 q 182 1013 141 1013 q 252 981 222 1013 q 281 905 281 949 q 252 828 281 861 q 182 796 222 796 q 112 828 141 796 m 94 728 l 269 728 l 269 0 l 94 0 l 94 728 z "},"j":{"ha":362,"x_min":-160,"x_max":281,"o":"m 112 828 q 97 844 112 828 q 82 905 82 861 q 112 981 82 949 q 182 1013 141 1013 q 252 981 222 1013 q 281 905 281 949 q 252 828 281 861 q 182 796 222 796 q 112 828 141 796 m -160 -226 l -45 -109 q -20 -129 -37 -121 q 16 -138 -2 -138 q 72 -116 50 -138 q 94 -62 94 -95 l 94 728 l 269 728 l 269 -24 q 232 -154 269 -92 q 133 -255 194 -217 q 8 -293 73 -293 q -86 -279 -48 -293 q -160 -226 -125 -266 z "},"k":{"ha":677,"x_min":81,"x_max":675,"o":"m 392 405 l 675 0 l 476 0 l 265 317 l 256 301 l 256 0 l 81 0 l 81 986 l 256 986 l 256 486 l 446 728 l 660 728 l 392 405 z "},"l":{"ha":380,"x_min":94,"x_max":332,"o":"m 269 191 q 332 132 269 132 l 332 -20 q 151 26 207 -20 q 94 187 94 71 l 94 986 l 269 986 l 269 191 z "},"m":{"ha":1068,"x_min":81,"x_max":997,"o":"m 627 0 l 452 0 l 452 366 q 430 532 452 476 q 353 589 408 589 q 277 533 298 589 q 256 366 256 477 l 256 0 l 81 0 l 81 728 l 256 728 l 256 621 q 284 661 267 641 q 323 702 300 681 q 377 735 347 722 q 438 747 407 747 q 498 736 471 747 q 542 708 525 724 q 571 671 558 692 q 590 633 585 649 q 600 601 595 616 l 605 585 q 650 655 623 620 q 719 719 677 690 q 802 747 761 747 q 944 671 891 747 q 997 453 997 595 l 997 0 l 822 0 l 822 366 q 801 532 822 476 q 724 589 779 589 q 648 532 669 589 q 627 366 627 476 l 627 0 z "},"n":{"ha":760,"x_min":81,"x_max":688,"o":"m 256 0 l 81 0 l 81 728 l 256 728 l 256 618 q 346 711 286 674 q 475 747 405 747 q 549 728 512 747 q 617 673 586 709 q 668 580 649 637 q 688 453 688 522 l 688 0 l 513 0 l 513 364 q 504 477 513 432 q 479 546 496 523 q 441 579 462 570 q 391 588 420 588 q 348 583 367 588 q 312 562 330 577 q 282 523 294 547 q 263 458 270 498 q 256 363 256 418 l 256 0 z "},"o":{"ha":749,"x_min":62,"x_max":703,"o":"m 233 364 q 384 140 233 140 q 534 364 534 140 q 384 587 534 587 q 233 364 233 587 m 62 364 q 146 643 62 541 q 383 746 231 746 q 619 644 536 746 q 703 364 703 541 q 619 84 703 187 q 383 -20 536 -20 q 146 83 230 -20 q 62 364 62 185 z "},"p":{"ha":768,"x_min":81,"x_max":721,"o":"m 256 -289 l 81 -289 l 81 728 l 256 728 l 256 622 q 348 712 291 677 q 464 746 405 746 q 579 715 529 746 q 660 630 629 684 q 706 508 690 576 q 721 361 721 440 q 705 214 721 281 q 659 94 690 146 q 578 11 629 41 q 464 -19 528 -19 q 348 16 406 -19 q 256 106 291 51 l 256 -289 m 545 364 q 532 469 545 424 q 497 538 519 513 q 451 575 475 564 q 401 587 427 587 q 349 576 374 587 q 301 541 324 565 q 264 471 278 517 q 250 364 250 425 q 264 257 250 302 q 301 186 278 211 q 349 151 324 162 q 401 140 374 140 q 450 154 425 140 q 496 195 475 168 q 531 266 518 221 q 545 364 545 310 z "},"q":{"ha":768,"x_min":50,"x_max":763,"o":"m 515 -96 l 515 106 q 423 16 480 51 q 307 -19 366 -19 q 193 11 243 -19 q 112 94 142 41 q 66 214 81 146 q 50 361 50 281 q 65 508 50 440 q 111 630 81 576 q 192 715 142 684 q 307 746 242 746 q 423 712 366 746 q 515 622 480 677 l 515 728 l 690 728 l 690 -93 q 704 -133 690 -123 q 763 -143 718 -143 l 763 -304 q 577 -254 640 -304 q 515 -96 515 -204 m 227 364 q 240 266 227 310 q 275 195 253 221 q 321 154 296 168 q 370 140 346 140 q 422 151 397 140 q 470 186 447 162 q 507 257 493 211 q 521 364 521 302 q 507 471 521 425 q 470 541 493 517 q 422 576 447 565 q 370 587 397 587 q 320 575 344 587 q 274 538 296 564 q 239 469 252 513 q 227 364 227 424 z "},"r":{"ha":582,"x_min":83,"x_max":565,"o":"m 499 547 q 393 589 426 589 q 328 569 356 589 q 286 516 300 549 q 264 448 271 484 q 258 375 258 413 l 258 0 l 83 0 l 83 728 l 258 728 l 258 618 q 336 710 286 673 q 427 747 385 747 q 498 729 460 747 q 565 684 536 711 l 499 547 z "},"s":{"ha":650,"x_min":53,"x_max":600,"o":"m 232 333 q 167 371 191 355 q 123 412 144 387 q 93 470 102 437 q 84 549 84 503 q 152 693 84 640 q 335 746 220 746 q 511 685 441 746 q 593 543 580 624 l 430 514 q 399 574 422 558 q 338 590 376 590 q 275 578 297 590 q 252 531 252 566 q 269 492 252 509 q 308 468 286 476 q 374 442 330 459 q 451 410 418 425 q 565 320 529 372 q 600 183 600 269 q 520 38 600 96 q 329 -20 441 -20 q 147 39 219 -20 q 53 197 75 97 l 210 223 q 251 159 218 182 q 328 136 284 136 q 368 138 351 136 q 400 146 384 140 q 424 166 416 153 q 432 200 432 180 q 421 234 432 218 q 388 261 410 249 q 343 283 366 273 q 287 307 320 293 q 232 333 254 321 z "},"t":{"ha":479,"x_min":49,"x_max":424,"o":"m 144 572 l 49 572 l 49 728 l 144 728 l 144 897 l 319 897 l 319 728 l 424 728 l 424 572 l 319 572 l 319 201 q 395 137 319 137 l 421 137 l 421 -10 l 395 -10 q 274 2 322 -10 q 197 42 225 15 q 156 106 168 68 q 144 199 144 144 l 144 572 z "},"u":{"ha":754,"x_min":73,"x_max":680,"o":"m 680 0 l 505 0 l 505 109 q 416 17 475 54 q 290 -20 357 -20 q 132 78 190 -20 q 73 363 73 175 l 73 728 l 248 728 l 248 363 q 256 269 248 310 q 276 204 264 228 q 304 165 288 180 q 337 145 321 150 q 370 140 353 140 q 406 145 389 140 q 441 165 422 151 q 473 204 459 180 q 496 270 487 229 q 505 364 505 311 l 505 728 l 680 728 l 680 0 z "},"v":{"ha":719,"x_min":49,"x_max":653,"o":"m 279 0 l 49 728 l 233 728 l 355 262 l 486 728 l 653 728 l 423 0 l 279 0 z "},"w":{"ha":983,"x_min":39,"x_max":939,"o":"m 485 450 l 389 0 l 252 0 l 39 728 l 212 728 l 326 274 l 414 730 l 571 730 l 659 276 l 774 728 l 939 728 l 726 0 l 577 0 l 485 450 z "},"x":{"ha":715,"x_min":18,"x_max":696,"o":"m 692 0 l 484 0 l 355 227 l 227 0 l 18 0 l 250 363 l 31 728 l 227 728 l 356 504 l 483 728 l 696 728 l 461 370 l 692 0 z "},"y":{"ha":750,"x_min":73,"x_max":680,"o":"m 680 -20 q 653 -127 680 -73 q 583 -223 626 -182 q 485 -290 541 -264 q 376 -315 430 -315 q 201 -268 275 -315 q 95 -152 127 -220 l 233 -76 q 282 -135 246 -113 q 372 -158 319 -158 q 467 -126 429 -158 q 505 -40 505 -94 l 505 109 q 416 17 475 54 q 290 -20 357 -20 q 132 78 190 -20 q 73 363 73 175 l 73 728 l 248 728 l 248 363 q 256 269 248 310 q 276 204 264 228 q 304 165 288 180 q 337 145 321 150 q 370 140 353 140 q 406 145 389 140 q 441 165 422 151 q 473 204 459 180 q 496 270 487 229 q 505 364 505 311 l 505 728 l 680 728 l 680 20 l 680 -20 z "},"z":{"ha":682,"x_min":45,"x_max":625,"o":"m 328 163 l 603 163 l 603 0 l 45 0 l 340 566 l 78 566 l 78 728 l 625 728 l 328 163 z "},"{":{"ha":507,"x_min":54,"x_max":437,"o":"m 54 494 q 130 558 101 510 q 168 667 158 606 q 180 790 177 729 q 188 905 184 850 q 203 979 192 959 q 311 1050 233 1036 q 437 1059 344 1056 l 437 914 q 355 892 379 914 q 330 811 330 871 q 240 494 330 534 q 330 178 330 456 q 355 97 330 118 q 437 75 379 75 l 437 -69 q 298 -59 334 -67 q 203 9 231 -43 q 188 84 192 30 q 180 200 184 139 q 168 322 177 260 q 130 432 158 384 q 54 494 101 479 z "},"|":{"ha":317,"x_min":78,"x_max":243,"o":"m 78 0 l 78 986 l 243 986 l 243 0 l 78 0 z "},"}":{"ha":507,"x_min":82,"x_max":465,"o":"m 465 494 q 390 432 418 479 q 352 322 361 384 q 339 200 342 260 q 332 84 336 139 q 317 9 328 30 q 288 -27 305 -12 q 250 -50 270 -42 q 204 -62 231 -58 q 152 -67 178 -66 q 94 -69 127 -68 q 82 -69 86 -69 l 82 75 q 165 97 140 75 q 189 178 189 118 q 279 494 189 456 q 189 811 189 534 q 165 892 189 871 q 82 914 140 914 l 82 1059 q 220 1048 184 1056 q 317 979 288 1033 q 332 905 328 959 q 339 790 336 850 q 352 667 342 729 q 390 558 361 606 q 465 494 418 510 z "},"~":{"ha":515,"x_min":36,"x_max":468,"o":"m 36 548 q 55 564 40 551 q 78 584 69 577 q 102 600 87 591 q 131 613 116 609 q 160 618 145 618 q 198 607 178 618 q 235 582 218 597 q 270 551 252 566 q 307 525 287 536 q 347 515 328 515 q 395 529 369 515 q 432 554 421 544 q 468 587 444 564 l 468 411 q 447 394 465 408 q 419 371 430 379 q 387 355 408 363 q 347 347 367 347 q 293 363 321 347 q 244 399 264 380 q 200 434 224 418 q 158 450 176 450 q 122 444 140 450 q 94 430 104 437 q 64 407 83 422 q 36 385 45 391 l 36 548 z "},"¡":{"ha":210,"x_min":-39,"x_max":184,"o":"m 5 688 q 30 715 5 703 q 73 728 54 728 q 116 715 92 728 q 140 688 140 703 l 168 44 q 136 0 168 19 q 74 -20 103 -20 q 11 0 44 -20 q -22 43 -22 19 l 5 688 m 184 897 q 151 819 184 851 q 73 786 119 786 q -6 819 26 786 q -39 897 -39 851 q -6 976 -39 943 q 73 1008 26 1008 q 151 976 118 1008 q 184 897 184 943 z "},"¢":{"ha":600,"x_min":47,"x_max":498,"o":"m 212 199 q 95 272 142 210 q 47 428 47 334 q 63 517 47 475 q 102 588 78 559 q 154 635 127 616 q 208 662 182 654 l 208 819 l 364 819 l 364 663 q 432 629 393 656 q 496 568 471 602 l 389 481 l 388 481 q 378 489 387 481 q 349 507 368 498 q 304 515 330 515 q 239 488 266 515 q 212 427 212 461 q 237 355 212 385 q 302 325 261 325 q 338 330 323 325 q 359 338 354 335 q 376 354 363 340 q 389 369 388 368 l 498 277 q 435 219 470 241 q 368 193 401 196 l 368 53 l 212 53 l 212 199 z "},"£":{"ha":859,"x_min":50,"x_max":814,"o":"m 199 372 l 50 372 l 50 528 l 211 528 q 270 882 211 764 q 469 1000 329 1000 q 611 945 554 1000 q 706 772 669 890 l 550 757 q 523 822 541 798 q 469 846 506 846 q 431 826 448 846 q 406 775 415 806 q 393 711 397 744 q 389 646 389 678 l 389 574 l 389 528 l 631 528 l 631 372 l 390 372 q 381 320 389 366 q 371 257 374 275 q 358 209 367 240 q 338 157 349 178 l 652 157 q 689 173 671 157 q 715 209 706 190 l 814 106 q 650 0 766 0 l 92 0 q 125 97 98 26 q 174 240 153 168 q 199 372 195 313 z "},"¤":{"ha":669,"x_min":36,"x_max":633,"o":"m 267 510 q 287 463 267 481 q 335 444 308 444 q 380 464 361 444 q 400 510 400 484 q 380 558 400 539 q 335 578 361 578 q 287 559 307 578 q 267 510 267 540 m 407 288 q 335 275 380 275 q 262 286 289 275 l 262 207 l 36 207 l 36 433 l 111 433 q 97 509 97 468 q 109 582 97 551 l 36 582 l 36 808 l 262 808 l 262 735 q 335 748 291 748 q 372 744 347 748 q 407 735 397 741 l 407 808 l 633 808 l 633 582 l 558 582 q 570 509 570 537 q 555 433 570 479 l 633 433 l 633 207 l 407 207 l 407 288 z "},"¥":{"ha":770,"x_min":31,"x_max":725,"o":"m 285 431 l 97 431 l 97 586 l 212 586 l 31 947 l 222 947 l 379 602 l 547 947 l 725 947 l 531 586 l 636 586 l 636 431 l 460 431 l 460 349 l 636 349 l 636 193 l 460 193 l 460 0 l 285 0 l 285 193 l 97 193 l 97 349 l 285 349 l 285 431 z "},"¦":{"ha":275,"x_min":54,"x_max":220,"o":"m 220 452 l 220 0 l 54 0 l 54 452 l 220 452 m 54 521 l 54 972 l 220 972 l 220 521 l 54 521 z "},"§":{"ha":471,"x_min":22,"x_max":452,"o":"m 189 682 q 210 688 198 688 q 298 664 254 688 q 376 600 342 640 q 431 499 410 559 q 452 374 452 440 q 422 210 452 288 q 342 86 393 133 q 231 39 290 39 q 120 79 169 39 q 32 212 71 120 l 178 241 q 198 208 180 221 q 225 195 215 195 l 228 195 q 264 217 250 195 q 284 274 279 239 q 254 261 271 261 q 170 281 211 261 q 96 340 129 302 q 42 440 62 378 q 22 579 22 503 q 48 740 22 665 q 123 862 74 815 q 233 909 172 909 q 337 873 298 909 q 423 745 377 837 l 278 711 q 267 736 277 726 q 248 750 256 747 q 236 754 239 754 q 189 682 200 754 m 280 401 q 257 508 280 459 q 200 557 233 557 q 182 549 189 557 q 208 442 182 493 q 262 391 234 391 q 265 391 263 391 q 268 391 267 391 q 280 401 280 391 z "},"¨":{"ha":633,"x_min":45,"x_max":587,"o":"m 45 1192 q 78 1270 45 1238 q 157 1303 111 1303 q 235 1270 203 1303 q 268 1192 268 1238 q 235 1113 268 1145 q 157 1080 203 1080 q 78 1114 111 1080 q 45 1192 45 1146 m 365 1192 q 397 1270 365 1238 q 476 1303 430 1303 q 555 1270 522 1303 q 587 1192 587 1238 q 555 1113 587 1145 q 476 1080 522 1080 q 397 1114 431 1080 q 365 1192 365 1146 z "},"©":{"ha":739,"x_min":-53,"x_max":681,"o":"m -53 505 q -4 694 -53 608 q 130 830 45 780 q 314 880 214 880 q 498 830 414 880 q 632 693 583 780 q 681 505 681 607 q 632 317 681 404 q 498 181 583 231 q 314 131 414 131 q 130 181 214 131 q -4 317 45 231 q -53 505 -53 404 m 444 393 q 319 336 387 336 q 197 387 247 336 q 146 509 146 437 q 197 631 146 581 q 319 682 247 682 q 444 632 394 682 l 367 553 q 318 572 344 572 q 273 553 292 572 q 254 509 254 534 q 273 463 254 482 q 318 444 292 444 q 370 463 348 444 l 444 393 m 141 687 q 104 650 141 687 q 68 509 68 613 q 141 330 68 404 q 318 256 214 256 q 496 330 422 256 q 569 509 569 404 q 496 687 569 613 q 318 761 422 761 q 141 687 214 761 z "},"ª":{"ha":396,"x_min":20,"x_max":355,"o":"m 188 906 q 151 894 165 906 q 136 866 136 882 q 151 839 136 851 q 189 827 164 827 q 224 839 211 827 q 236 866 236 850 q 224 894 236 882 q 188 906 212 906 m 235 743 l 229 739 q 161 719 200 719 q 61 762 102 719 q 20 867 20 804 q 60 971 20 930 q 159 1013 101 1013 q 228 994 199 1013 l 231 991 l 229 998 q 219 1015 225 1009 q 204 1025 213 1021 q 186 1031 193 1030 q 167 1032 174 1032 q 140 1029 151 1032 q 121 1025 124 1026 l 87 1010 l 36 1091 l 48 1101 q 102 1125 64 1114 q 167 1135 137 1135 q 222 1131 202 1135 q 274 1111 252 1124 q 317 1076 298 1097 q 345 1022 334 1055 q 355 952 355 990 l 355 728 l 235 728 l 235 743 z "},"«":{"ha":615,"x_min":35,"x_max":547,"o":"m 401 758 l 547 758 l 417 561 l 547 363 l 401 363 l 271 561 l 401 758 m 163 758 l 311 758 l 181 561 l 309 363 l 163 363 l 35 561 l 163 758 z "},"¬":{"ha":760,"x_min":97,"x_max":681,"o":"m 681 237 l 525 237 l 525 473 l 97 473 l 97 639 l 681 639 l 681 237 z "},"­":{"ha":644,"x_min":60,"x_max":583,"o":"m 60 628 l 583 628 l 583 465 l 60 465 l 60 628 z "},"®":{"ha":830,"x_min":57,"x_max":771,"o":"m 192 653 q 213 549 192 595 q 267 476 233 503 q 338 434 300 448 q 415 420 376 420 q 492 436 454 420 q 563 480 531 452 q 616 554 595 509 q 636 653 636 600 q 614 761 636 713 q 558 838 592 810 q 487 882 524 867 q 415 897 450 897 q 337 881 376 897 q 266 837 298 866 q 212 760 233 808 q 192 653 192 712 m 57 653 q 79 792 57 728 q 138 899 101 856 q 221 972 174 942 q 317 1017 268 1003 q 415 1031 366 1031 q 552 1002 487 1031 q 666 924 617 974 q 743 804 714 875 q 771 653 771 733 q 719 462 771 547 q 586 331 667 376 q 415 286 505 286 q 314 300 364 286 q 217 345 264 315 q 135 418 171 376 q 78 522 100 461 q 57 653 57 583 m 381 666 q 394 666 385 666 q 409 665 404 665 q 450 672 441 665 q 459 705 459 678 q 446 737 459 730 q 396 744 433 744 l 381 744 l 381 666 m 286 834 l 381 834 q 508 804 465 834 q 551 705 551 774 q 550 683 551 693 q 546 665 549 673 q 541 651 543 657 q 534 640 539 646 q 526 631 528 634 q 517 623 524 628 q 507 617 509 618 q 496 611 505 616 q 486 606 487 606 l 550 482 l 448 482 l 399 595 l 381 599 l 381 483 l 286 483 l 286 834 z "},"¯":{"ha":651,"x_min":66,"x_max":590,"o":"m 66 1230 l 590 1230 l 590 1143 l 66 1143 l 66 1230 z "},"°":{"ha":517,"x_min":-12,"x_max":419,"o":"m 106 799 q 134 727 106 756 q 204 697 163 697 q 274 727 245 697 q 302 799 302 756 q 274 871 302 841 q 204 901 245 901 q 134 871 163 901 q 106 799 106 841 m 52 649 q 20 680 52 649 q -12 799 -12 711 q 52 949 -12 887 q 204 1010 115 1010 q 356 949 294 1010 q 419 799 419 887 q 356 649 419 711 q 204 587 294 587 q 52 649 115 587 z "},"±":{"ha":667,"x_min":87,"x_max":625,"o":"m 87 710 l 268 710 l 268 915 l 431 915 l 431 710 l 625 710 l 625 547 l 430 547 l 430 353 l 268 353 l 268 547 l 87 547 l 87 710 m 89 293 l 612 293 l 612 130 l 89 130 l 89 293 z "},"²":{"ha":494,"x_min":49,"x_max":405,"o":"m 162 962 l 56 994 l 59 1005 q 119 1097 71 1061 q 224 1133 168 1133 q 269 1128 243 1133 q 313 1112 291 1124 q 353 1082 336 1099 q 381 1034 371 1063 q 391 967 391 1004 q 378 892 391 922 q 332 829 365 861 q 302 802 316 812 l 254 766 q 209 728 220 740 q 191 709 196 715 l 405 709 l 405 600 l 49 600 l 49 614 q 52 666 49 641 q 63 713 56 690 q 85 760 72 740 q 123 804 102 783 q 157 834 134 815 q 193 861 179 851 q 226 886 210 872 q 252 911 240 897 q 269 937 263 923 q 275 967 275 951 q 261 1010 275 996 q 224 1025 247 1025 q 187 1013 201 1025 q 166 975 175 1003 l 162 962 z "},"³":{"ha":452,"x_min":33,"x_max":406,"o":"m 33 742 l 146 772 l 151 762 q 181 722 162 734 q 222 709 201 709 q 269 726 252 709 q 288 769 288 743 q 267 812 288 793 q 222 830 248 830 l 152 830 l 152 929 l 214 929 q 248 946 233 929 q 263 981 263 962 q 249 1021 263 1008 q 212 1035 233 1035 q 184 1026 196 1035 q 168 1005 172 1017 l 163 994 l 52 1023 l 58 1038 q 212 1142 97 1142 q 272 1134 243 1142 q 324 1109 300 1126 q 361 1062 347 1093 q 376 995 376 1032 q 336 902 376 938 q 353 887 342 897 q 377 861 365 877 q 398 820 391 842 q 406 769 406 795 q 391 704 406 734 q 353 650 377 673 q 295 614 328 627 q 222 600 260 600 q 146 613 183 600 q 83 655 113 625 q 38 728 55 683 l 33 742 z "},"´":{"ha":391,"x_min":53,"x_max":355,"o":"m 132 1040 q 123 1036 127 1036 q 117 1038 122 1036 q 92 1051 104 1041 q 71 1072 79 1062 q 57 1103 63 1082 q 53 1126 53 1116 q 54 1136 53 1129 q 60 1145 56 1141 l 251 1312 q 271 1319 258 1319 q 283 1317 277 1319 q 313 1303 299 1313 q 336 1280 326 1293 q 353 1245 348 1267 q 355 1222 355 1234 q 353 1204 355 1213 q 341 1184 350 1191 l 132 1040 z "},"µ":{"ha":765,"x_min":97,"x_max":682,"o":"m 262 53 l 262 -269 l 97 -269 l 97 603 l 265 603 l 265 317 q 279 231 265 268 q 314 176 292 195 q 356 148 335 157 q 397 139 378 139 q 480 198 443 139 q 517 317 517 256 l 517 603 l 682 603 l 682 0 l 517 0 l 517 57 q 465 1 500 22 q 401 -20 429 -20 q 320 3 364 -20 q 262 53 276 25 z "},"¶":{"ha":872,"x_min":75,"x_max":773,"o":"m 498 828 l 498 539 q 549 534 502 539 q 599 530 595 530 l 599 833 q 549 831 595 833 q 498 828 502 828 m 334 776 q 323 771 332 775 q 310 765 313 767 q 296 758 306 763 q 282 750 287 753 q 270 741 277 746 q 257 729 262 735 q 249 716 253 724 q 242 701 244 709 q 240 684 240 692 q 243 654 240 668 q 254 631 246 641 q 267 613 261 621 q 284 599 273 606 q 301 589 296 592 q 319 581 307 586 q 334 574 332 575 l 334 776 m 498 155 l 599 155 l 599 383 q 548 385 595 383 q 498 387 502 387 l 498 155 m 334 0 l 334 419 q 256 444 289 431 q 186 478 222 456 q 128 526 151 499 q 90 593 105 553 q 75 684 75 633 q 107 790 75 741 q 192 873 140 839 q 312 931 244 907 q 450 966 379 955 q 589 977 520 977 l 773 977 l 773 0 l 334 0 z "},"·":{"ha":336,"x_min":63,"x_max":286,"o":"m 63 519 q 96 598 63 566 q 174 631 128 631 q 253 598 220 631 q 286 519 286 566 q 253 441 286 473 q 174 408 220 408 q 96 441 128 408 q 63 519 63 474 z "},"¸":{"ha":358,"x_min":39,"x_max":281,"o":"m 39 -161 q 50 -156 41 -161 q 62 -148 58 -151 q 75 -141 66 -146 q 88 -132 83 -136 q 100 -123 93 -129 q 111 -114 107 -118 q 120 -105 115 -110 q 126 -96 124 -100 q 127 -86 127 -91 q 126 -63 127 -71 q 119 -40 125 -54 q 98 -11 112 -25 l 208 50 q 281 -90 281 -15 q 270 -131 281 -111 q 245 -165 258 -151 q 205 -196 233 -178 q 166 -221 178 -214 q 125 -242 155 -227 q 122 -244 123 -243 q 119 -246 121 -245 q 115 -248 117 -247 l 39 -161 z "},"¹":{"ha":340,"x_min":33,"x_max":264,"o":"m 146 1009 l 33 1009 l 156 1121 l 264 1121 l 264 600 l 146 600 l 146 1009 z "},"º":{"ha":517,"x_min":-12,"x_max":419,"o":"m 106 799 q 134 727 106 757 q 204 697 163 697 q 274 727 245 697 q 302 799 302 755 q 274 871 302 842 q 204 901 245 901 q 134 871 163 901 q 106 799 106 842 m 52 649 q -12 799 -12 711 q 52 949 -12 887 q 204 1010 114 1010 q 357 949 294 1010 q 419 799 419 887 q 357 649 419 711 q 204 587 294 587 q 52 649 114 587 z "},"»":{"ha":667,"x_min":86,"x_max":599,"o":"m 232 759 l 363 561 l 232 364 l 86 364 l 216 561 l 86 758 l 232 759 m 471 759 l 599 561 l 471 364 l 325 364 l 452 561 l 322 758 l 471 759 z "},"¼":{"ha":848,"x_min":21,"x_max":817,"o":"m 770 71 l 817 71 l 817 -37 l 770 -37 l 770 -155 l 652 -155 l 652 -37 l 454 -37 l 454 50 l 651 366 l 770 366 l 770 71 m 655 188 l 580 72 l 655 72 l 655 188 m 134 1009 l 21 1009 l 144 1121 l 252 1121 l 252 600 l 134 600 l 134 1009 m 176 -98 l 34 -98 l 677 1082 l 814 1082 l 176 -98 z "},"½":{"ha":848,"x_min":21,"x_max":819,"o":"m 134 1009 l 21 1009 l 144 1121 l 252 1121 l 252 600 l 134 600 l 134 1009 m 576 207 l 471 239 l 473 250 q 533 342 485 306 q 638 378 582 378 q 683 374 656 378 q 728 357 705 370 q 768 327 751 345 q 795 279 784 309 q 806 212 806 248 q 793 138 806 168 q 747 74 779 106 q 716 47 730 58 l 669 12 q 623 -26 634 -15 q 606 -46 610 -40 l 819 -46 l 819 -155 l 464 -155 l 464 -141 q 467 -89 464 -109 q 477 -42 470 -64 q 500 5 486 -15 q 537 50 516 28 q 572 79 548 60 q 608 106 593 96 q 640 131 624 118 q 667 156 654 142 q 684 182 677 168 q 690 212 690 196 q 675 256 690 241 q 638 270 661 270 q 602 258 615 270 q 581 220 589 248 l 576 207 m 176 -98 l 34 -98 l 677 1082 l 814 1082 l 176 -98 z "},"¾":{"ha":891,"x_min":20,"x_max":866,"o":"m 20 742 l 133 772 l 138 762 q 168 722 149 734 q 209 709 187 709 q 256 726 239 709 q 274 769 274 743 q 254 812 274 793 q 209 830 235 830 l 140 830 l 140 929 l 201 929 q 235 946 220 929 q 250 981 250 962 q 236 1021 250 1008 q 199 1035 220 1035 q 172 1026 183 1035 q 155 1005 159 1017 l 151 994 l 39 1023 l 45 1038 q 199 1142 84 1142 q 259 1134 231 1142 q 311 1109 288 1126 q 349 1062 334 1093 q 363 995 363 1032 q 323 902 363 938 q 340 887 329 897 q 364 861 352 877 q 385 820 378 842 q 392 769 392 798 q 378 704 392 733 q 340 650 364 673 q 282 614 315 627 q 209 600 247 600 q 134 613 170 600 q 70 655 100 625 q 25 728 42 683 l 20 742 m 819 71 l 866 71 l 866 -37 l 819 -37 l 819 -155 l 701 -155 l 701 -37 l 503 -37 l 503 50 l 700 366 l 819 366 l 819 71 m 704 188 l 629 72 l 704 72 l 704 188 m 225 -98 l 83 -98 l 726 1082 l 863 1082 l 225 -98 z "},"¿":{"ha":647,"x_min":-29,"x_max":606,"o":"m 204 632 l 204 721 l 386 721 l 386 589 q 373 527 386 555 q 341 477 361 498 q 298 437 321 456 q 250 398 274 418 q 206 358 226 379 q 174 310 186 338 q 161 250 161 282 q 182 186 161 212 q 232 152 203 161 q 296 142 261 142 q 384 177 349 142 q 424 267 419 213 l 606 239 q 510 50 593 124 q 298 -24 428 -24 q 201 -13 248 -24 q 112 20 153 -2 q 38 74 70 43 q -11 150 7 106 q -29 247 -29 195 q -16 340 -29 298 q 17 412 -3 383 q 63 464 38 440 q 112 507 87 488 q 158 544 137 526 q 191 584 178 562 q 204 632 204 606 m 405 903 q 372 824 405 857 q 294 791 340 791 q 215 824 248 791 q 182 903 182 857 q 215 981 182 949 q 294 1014 248 1014 q 372 981 339 1014 q 405 903 405 948 z "},"À":{"ha":964,"x_min":14,"x_max":934,"o":"m 475 762 l 357 421 l 592 421 l 475 762 m 579 987 l 934 0 l 723 0 l 631 259 q 317 259 631 259 l 224 0 l 14 0 l 368 987 l 579 987 m 509 1040 l 301 1184 q 288 1204 291 1192 q 286 1222 286 1213 q 289 1245 286 1234 q 306 1280 294 1266 q 330 1303 317 1293 q 359 1317 343 1313 q 372 1319 366 1319 q 391 1312 383 1319 l 583 1145 q 587 1136 586 1142 q 589 1124 589 1129 q 585 1103 589 1113 q 571 1072 579 1082 q 550 1051 563 1062 q 526 1038 538 1041 q 519 1036 520 1036 q 509 1040 514 1036 z "},"Á":{"ha":964,"x_min":14,"x_max":934,"o":"m 475 762 l 357 421 l 592 421 l 475 762 m 579 987 l 934 0 l 723 0 l 631 259 q 317 259 631 259 l 224 0 l 14 0 l 368 987 l 579 987 m 492 1040 q 483 1036 487 1036 q 476 1038 481 1036 q 452 1051 464 1041 q 431 1072 439 1062 q 416 1103 422 1082 q 412 1126 412 1116 q 414 1136 412 1129 q 419 1145 415 1141 l 610 1312 q 630 1319 618 1319 q 643 1317 636 1319 q 672 1303 659 1313 q 696 1280 685 1293 q 712 1245 707 1267 q 715 1222 715 1234 q 713 1204 715 1213 q 701 1184 709 1191 l 492 1040 z "},"Â":{"ha":876,"x_min":14,"x_max":934,"o":"m 749 1058 l 565 1058 l 475 1167 l 391 1060 l 203 1060 l 396 1291 l 556 1291 l 749 1058 m 475 762 l 357 421 l 592 421 l 475 762 m 579 987 l 934 0 l 723 0 l 631 259 q 317 259 631 259 l 224 0 l 14 0 l 368 987 l 579 987 z "},"Ã":{"ha":876,"x_min":14,"x_max":934,"o":"m 258 1230 q 277 1246 262 1234 q 301 1266 292 1259 q 324 1282 310 1273 q 353 1296 338 1291 q 382 1300 368 1300 q 420 1290 401 1300 q 457 1264 440 1279 q 492 1233 475 1249 q 530 1207 509 1218 q 570 1197 550 1197 q 617 1212 591 1197 q 655 1236 644 1226 q 690 1270 666 1246 l 690 1093 q 670 1076 687 1090 q 641 1054 652 1061 q 610 1038 630 1046 q 570 1029 589 1029 q 515 1046 543 1029 q 467 1081 487 1062 q 422 1116 446 1100 q 380 1133 399 1133 q 345 1126 362 1133 q 316 1112 327 1119 q 287 1089 306 1105 q 258 1067 268 1074 l 258 1230 m 475 762 l 357 421 l 592 421 l 475 762 m 579 987 l 934 0 l 723 0 l 631 259 q 317 259 631 259 l 224 0 l 14 0 l 368 987 l 579 987 z "},"Ä":{"ha":876,"x_min":14,"x_max":934,"o":"m 205 1128 q 238 1206 205 1174 q 317 1239 271 1239 q 395 1206 363 1239 q 428 1128 428 1174 q 395 1049 428 1082 q 317 1017 363 1017 q 238 1050 271 1017 q 205 1128 205 1082 m 525 1128 q 557 1206 525 1174 q 636 1239 590 1239 q 715 1206 682 1239 q 747 1128 747 1174 q 715 1049 747 1082 q 636 1017 682 1017 q 557 1050 591 1017 q 525 1128 525 1082 m 475 762 l 357 421 l 592 421 l 475 762 m 579 987 l 934 0 l 723 0 l 631 259 q 317 259 631 259 l 224 0 l 14 0 l 368 987 l 579 987 z "},"Å":{"ha":876,"x_min":14,"x_max":934,"o":"m 381 1210 q 410 1138 381 1167 q 479 1108 438 1108 q 549 1138 521 1108 q 577 1210 577 1167 q 549 1282 577 1252 q 479 1312 521 1312 q 410 1282 438 1312 q 381 1210 381 1252 m 327 1060 q 295 1091 327 1060 q 264 1210 264 1122 q 327 1360 264 1298 q 479 1421 390 1421 q 632 1360 569 1421 q 694 1210 694 1298 q 632 1060 694 1122 q 479 998 569 998 q 327 1060 390 998 m 475 762 l 357 421 l 592 421 l 475 762 m 579 987 l 934 0 l 723 0 l 631 259 q 317 259 631 259 l 224 0 l 14 0 l 368 987 l 579 987 z "},"Æ":{"ha":1078,"x_min":7,"x_max":999,"o":"m 555 404 l 367 404 l 209 0 l 7 0 l 397 987 l 999 987 l 999 816 l 736 816 l 736 570 l 999 570 l 999 400 l 735 400 l 735 170 l 999 170 l 999 0 l 555 0 l 555 404 m 555 872 l 421 569 l 555 569 l 555 872 z "},"Ç":{"ha":827,"x_min":75,"x_max":886,"o":"m 341 -235 q 352 -230 343 -235 q 365 -222 361 -224 q 377 -215 368 -220 q 391 -206 386 -210 q 402 -197 395 -203 q 414 -188 410 -192 q 422 -179 418 -184 q 428 -170 427 -174 q 430 -160 430 -165 q 429 -137 430 -145 q 421 -114 428 -128 q 401 -85 414 -99 l 511 -24 q 584 -164 584 -89 q 572 -205 584 -184 q 548 -239 561 -225 q 508 -270 535 -252 q 469 -295 481 -288 q 428 -316 457 -301 q 425 -318 426 -317 q 421 -320 423 -319 q 418 -321 419 -321 l 341 -235 m 686 657 q 652 744 677 703 q 585 814 628 785 q 492 844 543 844 q 402 824 441 844 q 338 769 363 803 q 296 688 313 735 q 273 593 280 642 q 267 492 267 545 q 273 392 267 440 q 296 298 280 345 q 338 218 313 252 q 402 164 363 184 q 492 143 442 143 q 618 199 566 143 q 686 328 671 256 l 886 328 q 860 231 880 279 q 806 137 840 182 q 727 57 772 92 q 621 1 682 22 q 492 -20 559 -20 q 332 12 404 -20 q 213 95 260 43 q 134 214 166 146 q 89 351 102 281 q 75 492 75 421 q 89 635 75 565 q 134 773 102 705 q 213 893 166 842 q 332 976 260 944 q 492 1007 404 1007 q 621 986 560 1007 q 727 929 682 964 q 806 848 772 894 q 861 754 841 802 q 886 657 880 705 l 686 657 z "},"È":{"ha":821,"x_min":78,"x_max":744,"o":"m 78 987 l 744 987 l 744 825 l 260 825 l 260 587 l 701 587 l 701 425 l 260 425 l 260 163 l 744 163 l 744 0 l 78 0 l 78 987 m 479 1040 l 271 1184 q 258 1204 260 1192 q 256 1222 256 1213 q 258 1245 256 1234 q 275 1280 263 1266 q 299 1303 286 1293 q 328 1317 313 1313 q 341 1319 336 1319 q 360 1312 353 1319 l 552 1145 q 557 1136 555 1142 q 558 1124 558 1129 q 555 1103 558 1113 q 541 1072 549 1082 q 519 1051 532 1062 q 495 1038 507 1041 q 488 1036 490 1036 q 479 1040 484 1036 z "},"É":{"ha":821,"x_min":78,"x_max":744,"o":"m 78 987 l 744 987 l 744 825 l 260 825 l 260 587 l 701 587 l 701 425 l 260 425 l 260 163 l 744 163 l 744 0 l 78 0 l 78 987 m 431 1040 q 422 1036 426 1036 q 415 1038 420 1036 q 391 1051 403 1041 q 370 1072 378 1062 q 355 1103 361 1082 q 351 1126 351 1116 q 353 1136 351 1129 q 358 1145 354 1141 l 549 1312 q 569 1319 557 1319 q 582 1317 575 1319 q 611 1303 597 1313 q 635 1280 624 1293 q 651 1245 646 1267 q 654 1222 654 1234 q 652 1204 654 1213 q 640 1184 648 1191 l 431 1040 z "},"Ê":{"ha":780,"x_min":78,"x_max":744,"o":"m 711 1042 l 528 1042 l 438 1152 l 354 1044 l 166 1044 l 359 1276 l 519 1276 l 711 1042 m 78 987 l 744 987 l 744 825 l 260 825 l 260 587 l 701 587 l 701 425 l 260 425 l 260 163 l 744 163 l 744 0 l 78 0 l 78 987 z "},"Ë":{"ha":780,"x_min":78,"x_max":744,"o":"m 170 1141 q 203 1220 170 1187 q 281 1253 235 1253 q 360 1220 328 1253 q 393 1141 393 1187 q 360 1063 393 1095 q 281 1030 328 1030 q 203 1063 236 1030 q 170 1141 170 1096 m 490 1141 q 522 1220 490 1187 q 601 1253 555 1253 q 680 1220 647 1253 q 712 1141 712 1187 q 680 1063 712 1095 q 601 1030 647 1030 q 522 1063 555 1030 q 490 1141 490 1096 m 78 987 l 744 987 l 744 825 l 260 825 l 260 587 l 701 587 l 701 425 l 260 425 l 260 163 l 744 163 l 744 0 l 78 0 l 78 987 z "},"Ì":{"ha":452,"x_min":-27,"x_max":279,"o":"m 97 0 l 97 987 l 279 987 l 279 0 l 97 0 m 196 1040 l -12 1184 q -25 1204 -22 1192 q -27 1222 -27 1213 q -24 1245 -27 1234 q -7 1280 -20 1266 q 16 1303 3 1293 q 45 1317 30 1313 q 58 1319 53 1319 q 77 1312 70 1319 l 269 1145 q 274 1136 273 1142 q 275 1124 275 1129 q 272 1103 275 1113 q 258 1072 266 1082 q 237 1051 250 1062 q 212 1038 224 1041 q 205 1036 207 1036 q 196 1040 201 1036 z "},"Í":{"ha":452,"x_min":97,"x_max":400,"o":"m 97 0 l 97 987 l 279 987 l 279 0 l 97 0 m 177 1040 q 168 1036 172 1036 q 161 1038 167 1036 q 137 1051 149 1041 q 116 1072 124 1062 q 102 1103 108 1082 q 98 1126 98 1116 q 99 1136 98 1129 q 104 1145 100 1141 l 296 1312 q 315 1319 303 1319 q 328 1317 321 1319 q 357 1303 344 1313 q 381 1280 370 1293 q 397 1245 393 1267 q 400 1222 400 1234 q 398 1204 400 1213 q 386 1184 395 1191 l 177 1040 z "},"Î":{"ha":452,"x_min":-88,"x_max":457,"o":"m 457 1042 l 273 1042 l 184 1152 l 100 1044 l -88 1044 l 104 1276 l 264 1276 l 457 1042 m 97 0 l 97 987 l 279 987 l 279 0 l 97 0 z "},"Ï":{"ha":452,"x_min":-83,"x_max":458,"o":"m -83 1152 q -51 1230 -83 1198 q 28 1263 -18 1263 q 106 1230 74 1263 q 139 1152 139 1198 q 106 1073 139 1105 q 28 1040 74 1040 q -51 1074 -18 1040 q -83 1152 -83 1106 m 236 1152 q 269 1230 236 1198 q 347 1263 301 1263 q 426 1230 393 1263 q 458 1152 458 1198 q 426 1073 458 1105 q 347 1040 393 1040 q 269 1074 302 1040 q 236 1152 236 1106 m 97 0 l 97 987 l 279 987 l 279 0 l 97 0 z "},"Ð":{"ha":1004,"x_min":92,"x_max":920,"o":"m 176 415 l 92 415 l 92 577 l 176 577 l 176 987 l 472 987 q 656 949 572 987 q 799 844 741 910 q 888 686 856 777 q 920 493 920 595 q 887 300 920 391 q 797 143 854 209 q 654 38 739 77 q 472 0 570 0 l 319 0 l 176 0 l 176 415 m 358 415 l 358 165 l 472 165 q 664 256 589 165 q 739 493 739 348 q 664 730 739 638 q 472 821 588 821 l 357 821 l 357 577 l 525 577 l 525 415 l 358 415 z "},"Ñ":{"ha":876,"x_min":78,"x_max":825,"o":"m 218 1216 q 236 1232 222 1219 q 260 1252 251 1245 q 283 1268 269 1259 q 312 1281 298 1277 q 342 1286 327 1286 q 380 1275 360 1286 q 417 1250 399 1265 q 451 1219 434 1234 q 489 1193 469 1204 q 529 1183 509 1183 q 577 1197 551 1183 q 614 1222 603 1212 q 650 1255 625 1232 l 650 1079 q 629 1062 646 1076 q 601 1039 612 1047 q 569 1023 589 1031 q 529 1015 549 1015 q 474 1031 503 1015 q 426 1067 446 1048 q 382 1102 406 1086 q 340 1118 358 1118 q 304 1112 321 1118 q 276 1098 286 1105 q 246 1075 265 1090 q 218 1053 227 1059 l 218 1216 m 78 0 l 78 987 l 254 987 l 643 350 l 643 987 l 825 987 l 825 0 l 646 0 l 260 660 l 260 0 l 78 0 z "},"Ò":{"ha":913,"x_min":68,"x_max":901,"o":"m 495 1308 l 287 1452 q 274 1472 277 1459 q 272 1490 272 1480 q 275 1513 272 1502 q 292 1548 279 1534 q 315 1571 302 1561 q 345 1585 329 1581 q 357 1587 352 1587 q 376 1580 369 1587 l 568 1413 q 573 1404 572 1410 q 574 1392 574 1397 q 571 1371 574 1381 q 557 1340 565 1350 q 536 1319 549 1330 q 511 1305 524 1309 q 505 1304 506 1304 q 495 1308 500 1304 m 710 492 q 699 619 710 559 q 663 730 688 678 q 592 813 638 783 q 485 844 547 844 q 395 824 435 844 q 331 769 356 803 q 290 688 306 735 q 267 593 273 642 q 260 492 260 545 q 267 392 260 440 q 290 298 273 345 q 331 218 306 252 q 396 164 356 184 q 485 143 435 143 q 575 164 535 143 q 639 218 614 184 q 680 298 664 252 q 703 392 696 345 q 710 492 710 440 m 68 492 q 82 635 68 565 q 127 773 96 705 q 206 893 159 842 q 325 976 253 944 q 485 1007 397 1007 q 645 976 573 1007 q 764 893 717 944 q 842 773 810 842 q 888 635 874 705 q 901 492 901 565 q 888 351 901 420 q 842 214 874 281 q 764 95 810 146 q 645 12 717 43 q 485 -20 573 -20 q 325 12 397 -20 q 206 95 253 43 q 127 214 159 146 q 82 351 96 281 q 68 492 68 421 z "},"Ó":{"ha":913,"x_min":68,"x_max":901,"o":"m 710 492 q 699 619 710 559 q 663 730 688 678 q 592 813 638 783 q 485 844 547 844 q 395 824 435 844 q 331 769 356 803 q 290 688 306 735 q 267 593 273 642 q 260 492 260 545 q 267 392 260 440 q 290 298 273 345 q 331 218 306 252 q 396 164 356 184 q 485 143 435 143 q 575 164 535 143 q 639 218 614 184 q 680 298 664 252 q 703 392 696 345 q 710 492 710 440 m 68 492 q 82 635 68 565 q 127 773 96 705 q 206 893 159 842 q 325 976 253 944 q 485 1007 397 1007 q 645 976 573 1007 q 764 893 717 944 q 842 773 810 842 q 888 635 874 705 q 901 492 901 565 q 888 351 901 420 q 842 214 874 281 q 764 95 810 146 q 645 12 717 43 q 485 -20 573 -20 q 325 12 397 -20 q 206 95 253 43 q 127 214 159 146 q 82 351 96 281 q 68 492 68 421 m 481 1040 l 273 1184 q 260 1204 263 1192 q 258 1222 258 1213 q 261 1245 258 1234 q 278 1280 266 1266 q 302 1303 289 1293 q 331 1317 315 1313 q 344 1319 338 1319 q 363 1312 355 1319 l 555 1145 q 559 1136 558 1142 q 561 1124 561 1129 q 557 1103 561 1113 q 543 1072 551 1082 q 522 1051 535 1062 q 498 1038 510 1041 q 491 1036 492 1036 q 481 1040 486 1036 z "},"Ô":{"ha":913,"x_min":68,"x_max":901,"o":"m 710 492 q 699 619 710 559 q 663 730 688 678 q 592 813 638 783 q 485 844 547 844 q 395 824 435 844 q 331 769 356 803 q 290 688 306 735 q 267 593 273 642 q 260 492 260 545 q 267 392 260 440 q 290 298 273 345 q 331 218 306 252 q 396 164 356 184 q 485 143 435 143 q 575 164 535 143 q 639 218 614 184 q 680 298 664 252 q 703 392 696 345 q 710 492 710 440 m 68 492 q 82 635 68 565 q 127 773 96 705 q 206 893 159 842 q 325 976 253 944 q 485 1007 397 1007 q 645 976 573 1007 q 764 893 717 944 q 842 773 810 842 q 888 635 874 705 q 901 492 901 565 q 888 351 901 420 q 842 214 874 281 q 764 95 810 146 q 645 12 717 43 q 485 -20 573 -20 q 325 12 397 -20 q 206 95 253 43 q 127 214 159 146 q 82 351 96 281 q 68 492 68 421 m 488 1040 q 479 1036 483 1036 q 472 1038 477 1036 q 448 1051 460 1041 q 427 1072 435 1062 q 412 1103 418 1082 q 408 1126 408 1116 q 410 1136 408 1129 q 415 1145 411 1141 l 606 1312 q 626 1319 614 1319 q 639 1317 632 1319 q 668 1303 654 1313 q 692 1280 681 1293 q 708 1245 703 1267 q 711 1222 711 1234 q 709 1204 711 1213 q 696 1184 705 1191 l 488 1040 z "},"Õ":{"ha":913,"x_min":68,"x_max":901,"o":"m 275 1251 q 293 1267 279 1254 q 317 1286 308 1280 q 340 1302 326 1293 q 369 1316 355 1312 q 399 1320 384 1320 q 437 1310 417 1320 q 474 1284 456 1299 q 508 1254 491 1269 q 546 1228 526 1238 q 586 1217 566 1217 q 634 1232 608 1217 q 671 1257 660 1246 q 707 1290 682 1267 l 707 1114 q 686 1096 703 1111 q 657 1074 669 1082 q 626 1058 646 1066 q 586 1050 606 1050 q 531 1066 559 1050 q 483 1101 503 1082 q 439 1137 463 1120 q 397 1153 415 1153 q 361 1146 378 1153 q 333 1132 343 1139 q 303 1109 322 1125 q 275 1087 284 1094 l 275 1251 m 710 492 q 699 619 710 559 q 663 730 688 678 q 592 813 638 783 q 485 844 547 844 q 395 824 435 844 q 331 769 356 803 q 290 688 306 735 q 267 593 273 642 q 260 492 260 545 q 267 392 260 440 q 290 298 273 345 q 331 218 306 252 q 396 164 356 184 q 485 143 435 143 q 575 164 535 143 q 639 218 614 184 q 680 298 664 252 q 703 392 696 345 q 710 492 710 440 m 68 492 q 82 635 68 565 q 127 773 96 705 q 206 893 159 842 q 325 976 253 944 q 485 1007 397 1007 q 645 976 573 1007 q 764 893 717 944 q 842 773 810 842 q 888 635 874 705 q 901 492 901 565 q 888 351 901 420 q 842 214 874 281 q 764 95 810 146 q 645 12 717 43 q 485 -20 573 -20 q 325 12 397 -20 q 206 95 253 43 q 127 214 159 146 q 82 351 96 281 q 68 492 68 421 z "},"Ö":{"ha":913,"x_min":68,"x_max":901,"o":"m 211 1179 q 243 1257 211 1225 q 322 1290 276 1290 q 401 1257 368 1290 q 433 1179 433 1225 q 401 1100 433 1133 q 322 1067 368 1067 q 243 1101 277 1067 q 211 1179 211 1133 m 530 1179 q 563 1257 530 1225 q 642 1290 595 1290 q 720 1257 688 1290 q 753 1179 753 1225 q 720 1100 753 1133 q 642 1067 688 1067 q 563 1101 596 1067 q 530 1179 530 1133 m 710 492 q 699 619 710 559 q 663 730 688 678 q 592 813 638 783 q 485 844 547 844 q 395 824 435 844 q 331 769 356 803 q 290 688 306 735 q 267 593 273 642 q 260 492 260 545 q 267 392 260 440 q 290 298 273 345 q 331 218 306 252 q 396 164 356 184 q 485 143 435 143 q 575 164 535 143 q 639 218 614 184 q 680 298 664 252 q 703 392 696 345 q 710 492 710 440 m 68 492 q 82 635 68 565 q 127 773 96 705 q 206 893 159 842 q 325 976 253 944 q 485 1007 397 1007 q 645 976 573 1007 q 764 893 717 944 q 842 773 810 842 q 888 635 874 705 q 901 492 901 565 q 888 351 901 420 q 842 214 874 281 q 764 95 810 146 q 645 12 717 43 q 485 -20 573 -20 q 325 12 397 -20 q 206 95 253 43 q 127 214 159 146 q 82 351 96 281 q 68 492 68 421 z "},"×":{"ha":565,"x_min":22,"x_max":537,"o":"m 42 311 l 169 439 l 22 583 l 137 699 l 283 555 l 419 694 l 535 579 l 398 440 l 537 304 l 423 188 l 285 325 l 158 196 l 42 311 z "},"Ø":{"ha":966,"x_min":68,"x_max":901,"o":"m 370 -4 l 361 -20 l 168 -20 l 214 92 q 106 277 145 160 q 68 493 68 393 q 82 643 68 571 q 129 783 96 715 q 208 900 161 850 q 328 980 256 950 q 489 1010 400 1010 q 597 994 557 1010 l 603 1013 l 787 1013 l 746 914 q 865 729 828 840 q 901 493 901 619 q 889 371 901 435 q 847 236 878 307 q 771 109 817 165 q 651 17 726 54 q 485 -20 577 -20 q 370 -4 427 -20 m 432 151 q 446 149 438 151 q 463 145 454 146 q 484 144 471 144 q 563 161 527 144 q 623 207 599 178 q 664 270 646 235 q 692 346 682 305 q 706 422 701 386 q 710 493 710 458 q 668 724 710 629 l 432 151 m 298 289 l 532 842 q 517 844 530 842 q 489 847 504 847 q 394 825 435 847 q 327 768 352 803 q 286 686 302 734 q 264 591 270 637 q 258 493 258 545 q 270 390 258 454 q 298 289 281 326 z "},"Ù":{"ha":880,"x_min":78,"x_max":787,"o":"m 432 -24 q 238 31 319 -24 q 118 179 157 85 q 78 397 78 273 l 78 987 l 260 987 l 260 397 q 269 304 260 348 q 296 222 277 261 q 350 161 315 184 q 432 139 385 139 q 500 154 470 139 q 550 194 530 170 q 582 253 569 219 q 600 323 595 288 q 605 397 605 359 l 605 987 l 787 987 l 787 397 q 747 179 787 273 q 626 31 707 85 q 432 -24 545 -24 m 452 1040 l 243 1184 q 231 1204 233 1192 q 229 1222 229 1213 q 231 1245 229 1234 q 248 1280 236 1266 q 272 1303 259 1293 q 301 1317 286 1313 q 314 1319 309 1319 q 333 1312 326 1319 l 525 1145 q 530 1136 528 1142 q 531 1124 531 1129 q 528 1103 531 1113 q 513 1072 522 1082 q 492 1051 505 1062 q 468 1038 480 1041 q 461 1036 463 1036 q 452 1040 456 1036 z "},"Ú":{"ha":880,"x_min":78,"x_max":787,"o":"m 432 -24 q 238 31 319 -24 q 118 179 157 85 q 78 397 78 273 l 78 987 l 260 987 l 260 397 q 269 304 260 348 q 296 222 277 261 q 350 161 315 184 q 432 139 385 139 q 500 154 470 139 q 550 194 530 170 q 582 253 569 219 q 600 323 595 288 q 605 397 605 359 l 605 987 l 787 987 l 787 397 q 747 179 787 273 q 626 31 707 85 q 432 -24 545 -24 m 444 1040 q 435 1036 439 1036 q 429 1038 434 1036 q 404 1051 416 1041 q 383 1072 391 1062 q 369 1103 375 1082 q 365 1126 365 1116 q 366 1136 365 1129 q 372 1145 368 1141 l 563 1312 q 583 1319 570 1319 q 595 1317 589 1319 q 625 1303 611 1313 q 648 1280 637 1293 q 665 1245 660 1267 q 667 1222 667 1234 q 665 1204 667 1213 q 653 1184 662 1191 l 444 1040 z "},"Û":{"ha":880,"x_min":78,"x_max":787,"o":"m 718 1062 l 534 1062 l 445 1171 l 361 1064 l 173 1064 l 366 1295 l 526 1295 l 718 1062 m 432 -24 q 238 31 319 -24 q 118 179 157 85 q 78 397 78 273 l 78 987 l 260 987 l 260 397 q 269 304 260 348 q 296 222 277 261 q 350 161 315 184 q 432 139 385 139 q 500 154 470 139 q 550 194 530 170 q 582 253 569 219 q 600 323 595 288 q 605 397 605 359 l 605 987 l 787 987 l 787 397 q 747 179 787 273 q 626 31 707 85 q 432 -24 545 -24 z "},"Ü":{"ha":880,"x_min":78,"x_max":787,"o":"m 174 1154 q 207 1232 174 1200 q 286 1265 239 1265 q 364 1232 332 1265 q 397 1154 397 1200 q 364 1075 397 1107 q 286 1042 332 1042 q 207 1076 240 1042 q 174 1154 174 1108 m 494 1154 q 526 1232 494 1200 q 605 1265 559 1265 q 684 1232 651 1265 q 716 1154 716 1200 q 684 1075 716 1107 q 605 1042 651 1042 q 526 1076 559 1042 q 494 1154 494 1108 m 432 -24 q 238 31 319 -24 q 118 179 157 85 q 78 397 78 273 l 78 987 l 260 987 l 260 397 q 269 304 260 348 q 296 222 277 261 q 350 161 315 184 q 432 139 385 139 q 500 154 470 139 q 550 194 530 170 q 582 253 569 219 q 600 323 595 288 q 605 397 605 359 l 605 987 l 787 987 l 787 397 q 747 179 787 273 q 626 31 707 85 q 432 -24 545 -24 z "},"Ý":{"ha":800,"x_min":45,"x_max":854,"o":"m 429 1289 q 420 1285 425 1285 q 414 1286 419 1285 q 389 1300 401 1290 q 368 1321 376 1311 q 354 1352 360 1331 q 350 1375 350 1365 q 351 1385 350 1378 q 357 1394 353 1390 l 548 1561 q 568 1568 555 1568 q 581 1566 574 1568 q 610 1552 596 1562 q 633 1529 623 1542 q 650 1494 645 1516 q 652 1471 652 1483 q 650 1453 652 1461 q 638 1433 647 1440 l 429 1289 m 45 987 l 276 987 l 450 665 l 623 987 l 854 987 l 541 468 l 541 0 l 359 0 l 359 468 l 45 987 z "},"Þ":{"ha":939,"x_min":92,"x_max":727,"o":"m 273 357 q 352 360 315 357 q 425 375 389 364 q 488 402 462 385 q 530 446 513 418 q 546 509 546 473 q 273 652 546 652 l 273 357 m 92 987 l 273 987 l 273 813 q 389 807 335 813 q 495 788 442 801 q 588 751 547 774 q 661 695 629 728 q 710 615 693 663 q 727 509 727 568 q 701 376 727 433 q 634 285 675 319 q 532 230 593 251 q 410 202 471 210 q 273 195 349 195 l 273 0 l 92 0 l 92 987 z "},"ß":{"ha":855,"x_min":42,"x_max":785,"o":"m 108 854 q 437 1036 203 1036 q 663 950 578 1036 q 747 728 747 864 q 712 588 747 640 q 633 520 677 536 q 677 496 652 516 q 727 444 702 475 q 768 366 751 413 q 785 271 785 319 q 687 54 785 128 q 419 -20 588 -20 q 281 16 315 -20 l 348 153 q 402 132 370 132 q 509 145 463 132 q 585 190 555 158 q 615 271 615 222 q 547 391 615 341 q 367 440 479 440 l 343 440 q 345 440 345 440 q 346 440 346 440 q 347 442 347 441 q 347 444 347 443 q 348 448 347 446 q 348 454 348 451 q 350 461 349 456 q 353 471 351 465 l 363 572 q 433 579 399 572 q 501 603 467 587 q 555 651 534 618 q 575 728 575 683 q 541 841 575 805 q 437 878 507 878 q 257 773 307 878 q 233 565 239 735 q 221 220 227 395 q 200 0 216 45 l 42 0 q 62 161 57 35 q 67 420 67 287 q 76 683 66 554 q 108 854 85 812 z "},"à":{"ha":703,"x_min":61,"x_max":663,"o":"m 458 321 q 440 338 458 321 q 363 355 422 355 q 264 321 303 355 q 225 241 225 287 q 264 163 225 196 q 363 130 302 130 q 458 162 422 130 q 493 241 493 195 q 458 321 493 288 m 305 503 q 423 468 372 503 q 488 391 474 434 l 488 446 q 476 516 488 486 q 448 563 465 546 q 408 591 431 581 q 364 605 385 602 q 320 608 343 608 q 259 602 289 608 q 214 590 229 595 q 174 572 200 584 l 104 684 q 200 728 134 708 q 320 747 266 747 q 424 737 376 747 q 517 701 473 726 q 594 638 562 676 q 645 543 626 601 q 663 413 663 486 l 663 207 l 663 0 l 489 0 l 489 92 q 425 15 475 49 q 308 -20 375 -20 q 133 56 204 -20 q 61 243 61 131 q 132 429 61 355 q 305 503 203 503 m 381 804 l 173 948 q 160 968 163 956 q 158 986 158 977 q 161 1009 158 998 q 178 1044 165 1030 q 201 1067 189 1057 q 231 1081 215 1077 q 243 1083 238 1083 q 262 1076 255 1083 l 454 909 q 459 900 458 906 q 460 888 460 893 q 457 867 460 877 q 443 836 451 846 q 422 815 435 826 q 397 802 410 805 q 391 800 392 800 q 381 804 386 800 z "},"á":{"ha":703,"x_min":61,"x_max":663,"o":"m 458 321 q 440 338 458 321 q 363 355 422 355 q 264 321 303 355 q 225 241 225 287 q 264 163 225 196 q 363 130 302 130 q 458 162 422 130 q 493 241 493 195 q 458 321 493 288 m 305 503 q 423 468 372 503 q 488 391 474 434 l 488 446 q 476 516 488 486 q 448 563 465 546 q 408 591 431 581 q 364 605 385 602 q 320 608 343 608 q 259 602 289 608 q 214 590 229 595 q 174 572 200 584 l 104 684 q 200 728 134 708 q 320 747 266 747 q 424 737 376 747 q 517 701 473 726 q 594 638 562 676 q 645 543 626 601 q 663 413 663 486 l 663 207 l 663 0 l 489 0 l 489 92 q 425 15 475 49 q 308 -20 375 -20 q 133 56 204 -20 q 61 243 61 131 q 132 429 61 355 q 305 503 203 503 m 321 802 q 312 799 316 799 q 305 800 311 799 q 281 814 293 804 q 260 835 268 825 q 245 865 252 845 q 241 888 241 879 q 243 899 241 892 q 248 907 244 904 l 439 1075 q 459 1082 447 1082 q 472 1080 465 1082 q 501 1065 488 1076 q 525 1043 514 1056 q 541 1008 536 1029 q 544 985 544 997 q 542 967 544 975 q 530 947 538 954 l 321 802 z "},"â":{"ha":703,"x_min":61,"x_max":663,"o":"m 631 772 l 447 772 l 357 881 l 273 774 l 85 774 l 278 1005 l 438 1005 l 631 772 m 458 321 q 440 338 458 321 q 363 355 422 355 q 264 321 303 355 q 225 241 225 287 q 264 163 225 196 q 363 130 302 130 q 458 162 422 130 q 493 241 493 195 q 458 321 493 288 m 305 503 q 423 468 372 503 q 488 391 474 434 l 488 446 q 476 516 488 486 q 448 563 465 546 q 408 591 431 581 q 364 605 385 602 q 320 608 343 608 q 259 602 289 608 q 214 590 229 595 q 174 572 200 584 l 104 684 q 200 728 134 708 q 320 747 266 747 q 424 737 376 747 q 517 701 473 726 q 594 638 562 676 q 645 543 626 601 q 663 413 663 486 l 663 207 l 663 0 l 489 0 l 489 92 q 425 15 475 49 q 308 -20 375 -20 q 133 56 204 -20 q 61 243 61 131 q 132 429 61 355 q 305 503 203 503 z "},"ã":{"ha":703,"x_min":61,"x_max":663,"o":"m 171 976 q 190 992 175 979 q 213 1012 204 1005 q 237 1028 222 1019 q 266 1041 251 1037 q 295 1046 280 1046 q 333 1035 313 1046 q 370 1009 353 1025 q 405 979 387 994 q 442 953 422 964 q 482 943 463 943 q 530 957 504 943 q 567 982 556 972 q 603 1015 578 992 l 603 839 q 582 822 600 836 q 554 799 565 807 q 522 783 543 791 q 482 775 502 775 q 428 791 456 775 q 379 827 399 808 q 335 862 359 846 q 293 878 311 878 q 257 871 275 878 q 229 858 239 865 q 199 835 218 850 q 171 812 180 819 l 171 976 m 458 321 q 440 338 458 321 q 363 355 422 355 q 264 321 303 355 q 225 241 225 287 q 264 163 225 196 q 363 130 302 130 q 458 162 422 130 q 493 241 493 195 q 458 321 493 288 m 305 503 q 423 468 372 503 q 488 391 474 434 l 488 446 q 476 516 488 486 q 448 563 465 546 q 408 591 431 581 q 364 605 385 602 q 320 608 343 608 q 259 602 289 608 q 214 590 229 595 q 174 572 200 584 l 104 684 q 200 728 134 708 q 320 747 266 747 q 424 737 376 747 q 517 701 473 726 q 594 638 562 676 q 645 543 626 601 q 663 413 663 486 l 663 207 l 663 0 l 489 0 l 489 92 q 425 15 475 49 q 308 -20 375 -20 q 133 56 204 -20 q 61 243 61 131 q 132 429 61 355 q 305 503 203 503 z "},"ä":{"ha":703,"x_min":61,"x_max":663,"o":"m 107 903 q 140 981 107 949 q 218 1014 172 1014 q 297 981 264 1014 q 330 903 330 949 q 297 824 330 857 q 218 791 264 791 q 140 825 173 791 q 107 903 107 857 m 427 903 q 459 981 427 949 q 538 1014 492 1014 q 616 981 584 1014 q 649 903 649 949 q 616 824 649 857 q 538 791 584 791 q 459 825 492 791 q 427 903 427 857 m 458 321 q 440 338 458 321 q 363 355 422 355 q 264 321 303 355 q 225 241 225 287 q 264 163 225 196 q 363 130 302 130 q 458 162 422 130 q 493 241 493 195 q 458 321 493 288 m 305 503 q 423 468 372 503 q 488 391 474 434 l 488 446 q 476 516 488 486 q 448 563 465 546 q 408 591 431 581 q 364 605 385 602 q 320 608 343 608 q 259 602 289 608 q 214 590 229 595 q 174 572 200 584 l 104 684 q 200 728 134 708 q 320 747 266 747 q 424 737 376 747 q 517 701 473 726 q 594 638 562 676 q 645 543 626 601 q 663 413 663 486 l 663 207 l 663 0 l 489 0 l 489 92 q 425 15 475 49 q 308 -20 375 -20 q 133 56 204 -20 q 61 243 61 131 q 132 429 61 355 q 305 503 203 503 z "},"å":{"ha":703,"x_min":61,"x_max":663,"o":"m 265 967 q 294 895 265 924 q 363 865 322 865 q 433 895 405 865 q 461 967 461 924 q 433 1039 461 1009 q 363 1069 405 1069 q 294 1039 322 1069 q 265 967 265 1009 m 211 817 q 179 848 211 817 q 148 967 148 879 q 211 1117 148 1055 q 363 1179 274 1179 q 516 1117 453 1179 q 578 967 578 1055 q 516 817 578 879 q 363 755 453 755 q 211 817 274 755 m 458 321 q 440 338 458 321 q 363 355 422 355 q 264 321 303 355 q 225 241 225 287 q 264 163 225 196 q 363 130 302 130 q 458 162 422 130 q 493 241 493 195 q 458 321 493 288 m 305 503 q 423 468 372 503 q 488 391 474 434 l 488 446 q 476 516 488 486 q 448 563 465 546 q 408 591 431 581 q 364 605 385 602 q 320 608 343 608 q 259 602 289 608 q 214 590 229 595 q 174 572 200 584 l 104 684 q 200 728 134 708 q 320 747 266 747 q 424 737 376 747 q 517 701 473 726 q 594 638 562 676 q 645 543 626 601 q 663 413 663 486 l 663 207 l 663 0 l 489 0 l 489 92 q 425 15 475 49 q 308 -20 375 -20 q 133 56 204 -20 q 61 243 61 131 q 132 429 61 355 q 305 503 203 503 z "},"æ":{"ha":1196,"x_min":61,"x_max":1123,"o":"m 458 321 q 440 338 458 321 q 363 355 422 355 q 264 321 303 355 q 225 241 225 287 q 264 163 225 196 q 363 130 302 130 q 458 162 422 130 q 493 241 493 195 q 458 321 493 288 m 819 136 q 924 181 886 136 l 1078 115 q 964 16 1036 51 q 819 -20 891 -20 q 663 24 736 -20 l 663 0 l 489 0 l 489 92 q 425 15 475 49 q 308 -20 375 -20 q 133 56 204 -20 q 61 243 61 131 q 132 429 61 355 q 305 503 203 503 q 423 469 372 503 q 488 391 474 435 l 488 401 l 488 446 q 476 516 488 486 q 448 563 465 546 q 408 591 431 581 q 364 605 385 602 q 320 608 343 608 q 259 602 289 608 q 214 590 229 595 q 174 572 200 584 l 104 684 q 200 728 134 708 q 320 747 266 747 q 589 644 499 747 q 691 718 633 692 q 813 745 749 745 q 974 695 903 745 q 1084 559 1044 646 q 1123 364 1123 473 l 1123 318 l 673 318 q 684 240 673 274 q 711 186 695 205 q 747 156 726 168 q 784 140 767 144 q 819 136 802 136 m 673 441 l 954 441 q 911 546 949 503 q 813 589 874 589 q 715 545 753 589 q 673 441 677 501 z "},"ç":{"ha":574,"x_min":58,"x_max":664,"o":"m 214 -232 q 224 -226 216 -231 q 237 -219 233 -221 q 250 -211 241 -216 q 263 -203 258 -206 q 275 -194 268 -199 q 286 -184 282 -189 q 295 -176 290 -180 q 301 -166 299 -171 q 302 -157 302 -161 q 301 -133 302 -142 q 294 -110 300 -125 q 273 -81 287 -96 l 383 -20 q 456 -161 456 -85 q 445 -201 456 -181 q 420 -235 433 -222 q 380 -267 408 -249 q 341 -291 353 -285 q 300 -313 330 -298 q 297 -315 298 -314 q 294 -316 296 -315 q 290 -318 292 -317 l 214 -232 m 519 513 q 397 590 475 590 q 283 525 330 590 q 236 361 236 460 q 287 200 236 262 q 411 138 337 138 q 436 140 425 138 q 455 144 447 142 q 471 153 463 146 q 484 162 479 159 q 494 174 488 165 q 502 186 500 183 q 510 200 504 189 q 517 214 515 212 l 662 138 q 557 26 622 72 q 411 -20 492 -20 q 154 84 249 -20 q 58 361 58 188 q 154 639 58 532 q 397 746 250 746 q 550 703 476 746 q 664 589 625 660 l 519 513 z "},"è":{"ha":741,"x_min":60,"x_max":696,"o":"m 246 441 l 526 441 q 484 546 522 503 q 386 589 447 589 q 288 545 326 589 q 246 441 250 501 m 392 136 q 496 181 459 136 l 651 115 q 536 16 609 51 q 392 -20 464 -20 q 264 9 325 -20 q 158 89 203 39 q 86 211 113 139 q 60 364 60 283 q 155 636 60 527 q 386 745 250 745 q 546 695 475 745 q 656 559 617 646 q 696 364 696 473 l 696 318 l 245 318 q 257 240 246 274 q 283 186 268 205 q 319 156 299 168 q 357 140 340 144 q 392 136 374 136 m 385 804 l 177 948 q 164 968 167 956 q 162 986 162 977 q 165 1009 162 998 q 182 1044 170 1030 q 205 1067 193 1057 q 235 1081 219 1077 q 248 1083 242 1083 q 267 1076 259 1083 l 458 909 q 463 900 462 906 q 465 888 465 893 q 461 867 465 877 q 447 836 455 846 q 426 815 439 826 q 401 802 414 805 q 395 800 396 800 q 385 804 390 800 z "},"é":{"ha":741,"x_min":60,"x_max":696,"o":"m 246 441 l 526 441 q 484 546 522 503 q 386 589 447 589 q 288 545 326 589 q 246 441 250 501 m 392 136 q 496 181 459 136 l 651 115 q 536 16 609 51 q 392 -20 464 -20 q 264 9 325 -20 q 158 89 203 39 q 86 211 113 139 q 60 364 60 283 q 155 636 60 527 q 386 745 250 745 q 546 695 475 745 q 656 559 617 646 q 696 364 696 473 l 696 318 l 245 318 q 257 240 246 274 q 283 186 268 205 q 319 156 299 168 q 357 140 340 144 q 392 136 374 136 m 344 802 q 335 799 339 799 q 328 800 334 799 q 304 814 316 804 q 283 835 291 825 q 269 865 275 845 q 264 888 264 879 q 266 899 264 892 q 271 907 267 904 l 463 1075 q 482 1082 470 1082 q 495 1080 488 1082 q 524 1065 511 1076 q 548 1043 537 1056 q 564 1008 559 1029 q 567 985 567 997 q 565 967 567 975 q 553 947 562 954 l 344 802 z "},"ê":{"ha":654,"x_min":60,"x_max":696,"o":"m 668 781 l 484 781 l 395 890 l 311 783 l 123 783 l 315 1015 l 475 1015 l 668 781 m 246 441 l 526 441 q 484 546 522 503 q 386 589 447 589 q 288 545 326 589 q 246 441 250 501 m 392 136 q 496 181 459 136 l 651 115 q 536 16 609 51 q 392 -20 464 -20 q 264 9 325 -20 q 158 89 203 39 q 86 211 113 139 q 60 364 60 283 q 155 636 60 527 q 386 745 250 745 q 546 695 475 745 q 656 559 617 646 q 696 364 696 473 l 696 318 l 245 318 q 257 240 246 274 q 283 186 268 205 q 319 156 299 168 q 357 140 340 144 q 392 136 374 136 z "},"ë":{"ha":654,"x_min":60,"x_max":696,"o":"m 116 887 q 149 966 116 933 q 227 998 181 998 q 306 966 273 998 q 338 887 338 933 q 306 808 338 841 q 227 776 273 776 q 149 809 182 776 q 116 887 116 842 m 435 887 q 468 966 435 933 q 547 998 500 998 q 625 966 593 998 q 658 887 658 933 q 625 808 658 841 q 547 776 593 776 q 468 809 501 776 q 435 887 435 842 m 246 441 l 526 441 q 484 546 522 503 q 386 589 447 589 q 288 545 326 589 q 246 441 250 501 m 392 136 q 496 181 459 136 l 651 115 q 536 16 609 51 q 392 -20 464 -20 q 264 9 325 -20 q 158 89 203 39 q 86 211 113 139 q 60 364 60 283 q 155 636 60 527 q 386 745 250 745 q 546 695 475 745 q 656 559 617 646 q 696 364 696 473 l 696 318 l 245 318 q 257 240 246 274 q 283 186 268 205 q 319 156 299 168 q 357 140 340 144 q 392 136 374 136 z "},"ì":{"ha":373,"x_min":-30,"x_max":273,"o":"m 193 804 l -15 948 q -28 968 -25 956 q -30 986 -30 977 q -27 1009 -30 998 q -10 1044 -22 1030 q 14 1067 1 1057 q 43 1081 27 1077 q 56 1083 50 1083 q 75 1076 67 1083 l 267 909 q 271 900 270 906 q 273 888 273 893 q 269 867 273 877 q 255 836 263 846 q 234 815 247 826 q 210 802 222 805 q 203 800 204 800 q 193 804 198 800 m 94 728 l 269 728 l 269 0 l 94 0 l 94 728 z "},"í":{"ha":369,"x_min":94,"x_max":396,"o":"m 173 804 q 164 800 168 800 q 157 802 163 800 q 133 815 145 805 q 112 836 120 826 q 98 867 104 846 q 94 890 94 880 q 95 900 94 893 q 100 909 96 905 l 292 1076 q 311 1083 299 1083 q 324 1081 317 1083 q 353 1067 340 1077 q 377 1044 366 1057 q 393 1009 389 1031 q 396 986 396 998 q 394 968 396 977 q 382 948 391 955 l 173 804 m 94 728 l 269 728 l 269 0 l 94 0 l 94 728 z "},"î":{"ha":370,"x_min":-87,"x_max":458,"o":"m 458 777 l 275 777 l 185 886 l 101 779 l -87 779 l 106 1010 l 266 1010 l 458 777 m 94 728 l 277 728 l 277 0 l 94 0 l 94 728 z "},"ï":{"ha":372,"x_min":-79,"x_max":463,"o":"m 241 897 q 273 976 241 943 q 352 1008 306 1008 q 431 976 398 1008 q 463 897 463 943 q 431 819 463 851 q 352 786 398 786 q 274 819 307 786 q 241 897 241 852 m -79 897 q -46 976 -79 943 q 33 1008 -14 1008 q 111 976 79 1008 q 144 897 144 943 q 111 819 144 851 q 33 786 79 786 q -46 819 -14 786 q -79 897 -79 852 m 94 728 l 277 728 l 277 0 l 94 0 l 94 728 z "},"ð":{"ha":720,"x_min":49,"x_max":646,"o":"m 224 317 q 262 175 224 228 q 340 122 300 122 q 431 182 392 122 q 469 317 469 241 q 424 441 469 393 q 322 490 378 490 q 253 436 282 490 q 224 317 224 382 m 505 833 q 592 691 550 781 q 639 522 633 600 q 646 414 646 471 q 644 343 646 382 q 557 74 644 180 q 345 -33 471 -33 q 232 -14 282 -33 q 148 37 182 5 q 92 115 114 70 q 59 212 69 161 q 49 319 49 262 q 129 553 49 460 q 328 646 209 646 q 418 614 375 646 q 489 542 460 583 q 457 651 489 579 q 392 753 425 722 l 332 697 l 229 802 l 286 851 q 266 864 273 860 q 240 872 259 868 q 193 876 221 876 l 191 876 q 119 869 151 876 l 106 1000 q 206 1011 129 1010 l 210 1011 q 318 992 267 1011 q 397 950 368 973 l 478 1025 l 589 900 l 505 833 z "},"ñ":{"ha":739,"x_min":81,"x_max":688,"o":"m 171 985 q 190 1002 175 989 q 213 1021 204 1015 q 237 1037 222 1028 q 266 1051 251 1046 q 295 1055 280 1055 q 333 1045 313 1055 q 370 1019 353 1034 q 405 988 387 1004 q 442 963 422 973 q 482 952 463 952 q 530 967 504 952 q 567 991 556 981 q 603 1025 578 1002 l 603 848 q 582 831 600 846 q 554 809 565 817 q 522 793 543 801 q 482 785 502 785 q 428 801 456 785 q 379 836 399 817 q 335 871 359 855 q 293 888 311 888 q 257 881 275 888 q 229 867 239 874 q 199 844 218 860 q 171 822 180 829 l 171 985 m 256 0 l 81 0 l 81 728 l 256 728 l 256 618 q 346 711 286 674 q 475 747 405 747 q 549 728 512 747 q 617 673 586 709 q 668 580 649 637 q 688 453 688 522 l 688 0 l 513 0 l 513 364 q 504 477 513 432 q 479 546 496 523 q 441 579 462 570 q 391 588 420 588 q 348 583 367 588 q 312 562 330 577 q 282 523 294 547 q 263 458 270 498 q 256 363 256 418 l 256 0 z "},"ò":{"ha":780,"x_min":62,"x_max":703,"o":"m 233 364 q 384 140 233 140 q 534 364 534 140 q 384 587 534 587 q 233 364 233 587 m 62 364 q 146 643 62 541 q 383 746 231 746 q 619 644 536 746 q 703 364 703 541 q 619 84 703 187 q 383 -20 536 -20 q 146 83 230 -20 q 62 364 62 185 m 373 802 l 165 947 q 152 967 155 954 q 150 985 150 975 q 153 1008 150 997 q 170 1043 157 1029 q 193 1065 180 1056 q 222 1080 207 1076 q 235 1082 230 1082 q 254 1075 247 1082 l 446 907 q 451 899 450 905 q 452 886 452 892 q 449 865 452 876 q 435 835 443 845 q 414 814 427 825 q 389 800 401 804 q 382 799 384 799 q 373 802 378 799 z "},"ó":{"ha":782,"x_min":62,"x_max":703,"o":"m 233 364 q 384 140 233 140 q 534 364 534 140 q 384 587 534 587 q 233 364 233 587 m 62 364 q 146 643 62 541 q 383 746 231 746 q 619 644 536 746 q 703 364 703 541 q 619 84 703 187 q 383 -20 536 -20 q 146 83 230 -20 q 62 364 62 185 m 374 802 q 365 799 369 799 q 358 800 363 799 q 334 814 346 804 q 313 835 321 825 q 298 865 304 845 q 294 888 294 879 q 296 899 294 892 q 301 907 297 904 l 492 1075 q 512 1082 500 1082 q 525 1080 518 1082 q 554 1065 541 1076 q 578 1043 567 1056 q 594 1008 589 1029 q 597 985 597 997 q 595 967 597 975 q 583 947 591 954 l 374 802 z "},"ô":{"ha":780,"x_min":62,"x_max":703,"o":"m 654 774 l 470 774 l 380 884 l 296 777 l 109 777 l 301 1008 l 461 1008 l 654 774 m 233 364 q 384 140 233 140 q 534 364 534 140 q 384 587 534 587 q 233 364 233 587 m 62 364 q 146 643 62 541 q 383 746 231 746 q 619 644 536 746 q 703 364 703 541 q 619 84 703 187 q 383 -20 536 -20 q 146 83 230 -20 q 62 364 62 185 z "},"õ":{"ha":780,"x_min":62,"x_max":703,"o":"m 168 980 q 187 996 172 983 q 211 1016 201 1009 q 234 1032 220 1023 q 263 1045 248 1041 q 292 1050 277 1050 q 330 1039 311 1050 q 367 1014 350 1029 q 402 983 385 998 q 439 957 419 968 q 479 947 460 947 q 527 961 501 947 q 565 986 553 976 q 600 1019 576 996 l 600 843 q 579 826 597 840 q 551 803 562 811 q 519 787 540 795 q 479 779 499 779 q 425 795 453 779 q 376 831 397 812 q 332 866 356 850 q 290 882 309 882 q 254 876 272 882 q 226 862 237 869 q 197 839 216 854 q 168 817 178 823 l 168 980 m 233 364 q 384 140 233 140 q 534 364 534 140 q 384 587 534 587 q 233 364 233 587 m 62 364 q 146 643 62 541 q 383 746 231 746 q 619 644 536 746 q 703 364 703 541 q 619 84 703 187 q 383 -20 536 -20 q 146 83 230 -20 q 62 364 62 185 z "},"ö":{"ha":780,"x_min":62,"x_max":703,"o":"m 108 895 q 140 973 108 941 q 219 1006 173 1006 q 298 973 265 1006 q 330 895 330 941 q 298 816 330 848 q 219 783 265 783 q 140 817 174 783 q 108 895 108 849 m 427 895 q 460 973 427 941 q 538 1006 492 1006 q 617 973 585 1006 q 650 895 650 941 q 617 816 650 848 q 538 783 585 783 q 460 817 493 783 q 427 895 427 849 m 233 364 q 384 140 233 140 q 534 364 534 140 q 384 587 534 587 q 233 364 233 587 m 62 364 q 146 643 62 541 q 383 746 231 746 q 619 644 536 746 q 703 364 703 541 q 619 84 703 187 q 383 -20 536 -20 q 146 83 230 -20 q 62 364 62 185 z "},"÷":{"ha":680,"x_min":80,"x_max":604,"o":"m 235 684 q 268 763 235 730 q 347 795 300 795 q 425 763 393 795 q 458 684 458 730 q 425 606 458 638 q 347 573 393 573 q 268 606 301 573 q 235 684 235 639 m 235 191 q 268 269 235 237 q 347 302 300 302 q 425 269 393 302 q 458 191 458 237 q 425 112 458 144 q 347 79 393 79 q 268 112 301 79 q 235 191 235 145 m 80 518 l 604 518 l 604 355 l 80 355 l 80 518 z "},"ø":{"ha":708,"x_min":36,"x_max":720,"o":"m 518 431 l 339 150 q 383 136 356 136 q 456 170 422 136 q 508 255 490 203 q 526 361 526 306 q 518 431 526 406 m 429 576 q 392 590 409 590 q 309 555 345 590 q 256 468 273 519 q 239 361 239 417 q 248 300 239 318 l 429 576 m 36 -20 l 129 121 q 81 227 100 161 q 62 361 62 292 q 101 559 62 472 q 216 696 140 646 q 392 746 291 746 q 459 736 420 746 q 519 713 498 726 l 541 747 l 720 747 l 633 610 q 684 498 665 564 q 703 361 703 433 q 612 89 703 197 q 386 -20 522 -20 q 313 -11 352 -20 q 252 12 275 -3 l 231 -20 l 36 -20 z "},"ù":{"ha":672,"x_min":73,"x_max":680,"o":"m 680 0 l 505 0 l 505 109 q 416 17 475 54 q 290 -20 357 -20 q 132 78 190 -20 q 73 363 73 175 l 73 728 l 248 728 l 248 363 q 256 269 248 310 q 276 204 264 228 q 304 165 288 180 q 337 145 321 150 q 370 140 353 140 q 406 145 389 140 q 441 165 422 151 q 473 204 459 180 q 496 270 487 229 q 505 364 505 311 l 505 728 l 680 728 l 680 0 m 391 804 l 183 948 q 170 968 173 956 q 168 986 168 977 q 171 1009 168 998 q 188 1044 176 1030 q 212 1067 199 1057 q 241 1081 225 1077 q 254 1083 248 1083 q 273 1076 265 1083 l 465 909 q 469 900 468 906 q 471 888 471 893 q 467 867 471 877 q 453 836 461 846 q 432 815 445 826 q 408 802 420 805 q 401 800 402 800 q 391 804 396 800 z "},"ú":{"ha":694,"x_min":73,"x_max":680,"o":"m 680 0 l 505 0 l 505 109 q 416 17 475 54 q 290 -20 357 -20 q 132 78 190 -20 q 73 363 73 175 l 73 728 l 248 728 l 248 363 q 256 269 248 310 q 276 204 264 228 q 304 165 288 180 q 337 145 321 150 q 370 140 353 140 q 406 145 389 140 q 441 165 422 151 q 473 204 459 180 q 496 270 487 229 q 505 364 505 311 l 505 728 l 680 728 l 680 0 m 360 802 q 351 799 355 799 q 345 800 350 799 q 320 814 332 804 q 299 835 307 825 q 285 865 291 845 q 281 888 281 879 q 282 899 281 892 q 288 907 283 904 l 479 1075 q 498 1082 486 1082 q 511 1080 505 1082 q 541 1065 527 1076 q 564 1043 553 1056 q 581 1008 576 1029 q 583 985 583 997 q 581 967 583 975 q 569 947 578 954 l 360 802 z "},"û":{"ha":694,"x_min":73,"x_max":680,"o":"m 652 797 l 468 797 l 378 906 l 294 799 l 106 799 l 299 1030 l 459 1030 l 652 797 m 680 0 l 505 0 l 505 109 q 416 17 475 54 q 290 -20 357 -20 q 132 78 190 -20 q 73 363 73 175 l 73 728 l 248 728 l 248 363 q 256 269 248 310 q 276 204 264 228 q 304 165 288 180 q 337 145 321 150 q 370 140 353 140 q 406 145 389 140 q 441 165 422 151 q 473 204 459 180 q 496 270 487 229 q 505 364 505 311 l 505 728 l 680 728 l 680 0 z "},"ü":{"ha":694,"x_min":73,"x_max":680,"o":"m 106 897 q 139 976 106 943 q 218 1008 172 1008 q 296 976 264 1008 q 329 897 329 943 q 296 819 329 851 q 218 786 264 786 q 139 819 172 786 q 106 897 106 852 m 426 897 q 458 976 426 943 q 537 1008 491 1008 q 616 976 583 1008 q 648 897 648 943 q 616 819 648 851 q 537 786 583 786 q 458 819 492 786 q 426 897 426 852 m 680 0 l 505 0 l 505 109 q 416 17 475 54 q 290 -20 357 -20 q 132 78 190 -20 q 73 363 73 175 l 73 728 l 248 728 l 248 363 q 256 269 248 310 q 276 204 264 228 q 304 165 288 180 q 337 145 321 150 q 370 140 353 140 q 406 145 389 140 q 441 165 422 151 q 473 204 459 180 q 496 270 487 229 q 505 364 505 311 l 505 728 l 680 728 l 680 0 z "},"ý":{"ha":667,"x_min":73,"x_max":680,"o":"m 680 -20 q 653 -127 680 -73 q 583 -223 626 -182 q 485 -290 541 -264 q 376 -315 430 -315 q 201 -268 275 -315 q 95 -152 127 -220 l 233 -76 q 282 -135 246 -113 q 372 -158 319 -158 q 467 -126 429 -158 q 505 -40 505 -94 l 505 109 q 416 17 475 54 q 290 -20 357 -20 q 132 78 190 -20 q 73 363 73 175 l 73 728 l 248 728 l 248 363 q 256 269 248 310 q 276 204 264 228 q 304 165 288 180 q 337 145 321 150 q 370 140 353 140 q 406 145 389 140 q 441 165 422 151 q 473 204 459 180 q 496 270 487 229 q 505 364 505 311 l 505 728 l 680 728 l 680 20 l 680 -20 m 387 802 q 378 799 382 799 q 372 800 377 799 q 347 814 359 804 q 326 835 334 825 q 312 865 318 845 q 308 888 308 879 q 309 899 308 892 q 315 907 311 904 l 506 1075 q 526 1082 513 1082 q 538 1080 532 1082 q 568 1065 554 1076 q 591 1043 581 1056 q 608 1008 603 1029 q 610 985 610 997 q 608 967 610 975 q 596 947 605 954 l 387 802 z "},"þ":{"ha":741,"x_min":81,"x_max":688,"o":"m 256 0 l 81 0 l 81 986 l 256 986 l 256 786 q 317 865 274 827 q 404 903 359 903 q 557 845 492 903 q 655 696 623 787 q 688 501 688 606 q 678 376 688 435 q 646 262 669 317 q 590 168 624 208 q 505 103 557 127 q 387 79 452 79 q 339 91 362 79 q 299 120 315 102 q 272 151 282 137 q 256 175 261 165 l 256 0 m 513 509 q 470 675 513 603 q 385 747 428 747 q 291 675 332 747 q 250 509 250 602 q 289 310 250 385 q 378 235 327 235 q 471 310 430 235 q 513 509 513 385 z "},"ÿ":{"ha":667,"x_min":73,"x_max":680,"o":"m 96 897 q 128 976 96 943 q 207 1008 161 1008 q 286 976 253 1008 q 318 897 318 943 q 286 819 318 851 q 207 786 253 786 q 128 819 161 786 q 96 897 96 852 m 415 897 q 448 976 415 943 q 526 1008 480 1008 q 605 976 572 1008 q 637 897 637 943 q 605 819 637 851 q 526 786 572 786 q 448 819 481 786 q 415 897 415 852 m 680 -20 q 653 -127 680 -73 q 583 -223 626 -182 q 485 -290 541 -264 q 376 -315 430 -315 q 201 -268 275 -315 q 95 -152 127 -220 l 233 -76 q 282 -135 246 -113 q 372 -158 319 -158 q 467 -126 429 -158 q 505 -40 505 -94 l 505 109 q 416 17 475 54 q 290 -20 357 -20 q 132 78 190 -20 q 73 363 73 175 l 73 728 l 248 728 l 248 363 q 256 269 248 310 q 276 204 264 228 q 304 165 288 180 q 337 145 321 150 q 370 140 353 140 q 406 145 389 140 q 441 165 422 151 q 473 204 459 180 q 496 270 487 229 q 505 364 505 311 l 505 728 l 680 728 l 680 20 l 680 -20 z "},"Ā":{"ha":964,"x_min":14,"x_max":934,"o":"m 227 1230 l 750 1230 l 750 1143 l 227 1143 l 227 1230 m 475 762 l 357 421 l 592 421 l 475 762 m 579 987 l 934 0 l 723 0 l 631 259 q 317 259 631 259 l 224 0 l 14 0 l 368 987 l 579 987 z "},"ā":{"ha":732,"x_min":61,"x_max":663,"o":"m 102 960 l 625 960 l 625 874 l 102 874 l 102 960 m 458 321 q 440 338 458 321 q 363 355 422 355 q 264 321 303 355 q 225 241 225 287 q 264 163 225 196 q 363 130 302 130 q 458 162 422 130 q 493 241 493 195 q 458 321 493 288 m 305 503 q 423 468 372 503 q 488 391 474 434 l 488 446 q 476 516 488 486 q 448 563 465 546 q 408 591 431 581 q 364 605 385 602 q 320 608 343 608 q 259 602 289 608 q 214 590 229 595 q 174 572 200 584 l 104 684 q 200 728 134 708 q 320 747 266 747 q 424 737 376 747 q 517 701 473 726 q 594 638 562 676 q 645 543 626 601 q 663 413 663 486 l 663 207 l 663 0 l 489 0 l 489 92 q 425 15 475 49 q 308 -20 375 -20 q 133 56 204 -20 q 61 243 61 131 q 132 429 61 355 q 305 503 203 503 z "},"Ă":{"ha":964,"x_min":14,"x_max":934,"o":"m 538 1199 q 624 1317 570 1222 l 730 1317 q 731 1296 731 1310 q 684 1137 731 1217 q 600 1059 656 1090 q 493 1028 547 1028 q 386 1059 439 1028 q 302 1137 330 1090 q 255 1296 255 1217 q 256 1317 255 1310 l 365 1317 q 448 1200 403 1230 q 496 1188 463 1190 q 538 1199 524 1190 m 475 762 l 357 421 l 592 421 l 475 762 m 579 987 l 934 0 l 723 0 l 631 259 q 317 259 631 259 l 224 0 l 14 0 l 368 987 l 579 987 z "},"ă":{"ha":732,"x_min":61,"x_max":663,"o":"m 412 962 q 498 1080 444 985 l 604 1080 q 605 1059 605 1073 q 557 899 605 979 q 474 821 530 853 q 367 791 421 791 q 260 821 313 791 q 176 899 203 853 q 129 1059 129 979 q 130 1080 129 1073 l 239 1080 q 321 962 277 992 q 370 951 336 952 q 412 962 398 952 m 458 321 q 440 338 458 321 q 363 355 422 355 q 264 321 303 355 q 225 241 225 287 q 264 163 225 196 q 363 130 302 130 q 458 162 422 130 q 493 241 493 195 q 458 321 493 288 m 305 503 q 423 468 372 503 q 488 391 474 434 l 488 446 q 476 516 488 486 q 448 563 465 546 q 408 591 431 581 q 364 605 385 602 q 320 608 343 608 q 259 602 289 608 q 214 590 229 595 q 174 572 200 584 l 104 684 q 200 728 134 708 q 320 747 266 747 q 424 737 376 747 q 517 701 473 726 q 594 638 562 676 q 645 543 626 601 q 663 413 663 486 l 663 207 l 663 0 l 489 0 l 489 92 q 425 15 475 49 q 308 -20 375 -20 q 133 56 204 -20 q 61 243 61 131 q 132 429 61 355 q 305 503 203 503 z "},"Ą":{"ha":964,"x_min":-3,"x_max":948,"o":"m 948 -147 l 871 -233 q 838 -216 862 -229 q 802 -195 838 -216 q 766 -171 785 -186 q 735 -143 743 -152 q 713 -111 722 -128 q 705 -76 705 -94 q 779 64 705 -1 l 888 3 q 868 -26 876 -10 q 860 -49 861 -40 q 859 -72 859 -54 q 869 -93 859 -81 q 892 -114 882 -106 q 921 -132 906 -123 q 948 -147 939 -143 m 458 762 l 340 421 l 576 421 l 458 762 m 563 987 l 918 0 l 707 0 l 614 259 q 300 259 614 259 l 208 0 l -3 0 l 352 987 l 563 987 z "},"ą":{"ha":732,"x_min":61,"x_max":719,"o":"m 719 -147 l 642 -233 q 609 -216 633 -229 q 572 -195 609 -216 q 537 -171 555 -186 q 506 -143 514 -152 q 484 -111 492 -128 q 476 -76 476 -94 q 549 64 476 -1 l 659 3 q 639 -26 647 -10 q 631 -49 632 -40 q 630 -72 630 -54 q 640 -93 630 -81 q 663 -114 652 -106 q 692 -132 677 -123 q 719 -147 709 -143 m 458 321 q 440 338 458 321 q 363 355 422 355 q 264 321 303 355 q 225 241 225 287 q 264 163 225 196 q 363 130 302 130 q 458 162 422 130 q 493 241 493 195 q 458 321 493 288 m 305 503 q 423 468 372 503 q 488 391 474 434 l 488 446 q 476 516 488 486 q 448 563 465 546 q 408 591 431 581 q 364 605 385 602 q 320 608 343 608 q 259 602 289 608 q 214 590 229 595 q 174 572 200 584 l 104 684 q 200 728 134 708 q 320 747 266 747 q 424 737 376 747 q 517 701 473 726 q 594 638 562 676 q 645 543 626 601 q 663 413 663 486 l 663 207 l 663 0 l 489 0 l 489 92 q 425 15 475 49 q 308 -20 375 -20 q 133 56 204 -20 q 61 243 61 131 q 132 429 61 355 q 305 503 203 503 z "},"Ć":{"ha":888,"x_min":68,"x_max":880,"o":"m 471 1040 q 463 1036 467 1036 q 456 1038 461 1036 q 431 1051 444 1041 q 410 1072 418 1062 q 396 1103 402 1082 q 392 1126 392 1116 q 393 1136 392 1129 q 399 1145 395 1141 l 590 1312 q 610 1319 597 1319 q 623 1317 616 1319 q 652 1303 638 1313 q 675 1280 665 1293 q 692 1245 687 1267 q 694 1222 694 1234 q 692 1204 694 1213 q 680 1184 689 1191 l 471 1040 m 680 657 q 646 744 670 703 q 578 814 621 785 q 485 844 536 844 q 395 824 435 844 q 331 769 356 803 q 290 688 306 735 q 267 593 273 642 q 260 492 260 545 q 267 392 260 440 q 290 298 273 345 q 331 218 306 252 q 396 164 356 184 q 485 143 435 143 q 612 199 559 143 q 680 328 664 256 l 879 328 q 853 231 873 279 q 799 137 833 182 q 720 57 765 92 q 614 1 675 22 q 485 -20 553 -20 q 325 12 397 -20 q 206 95 253 43 q 127 214 159 146 q 82 351 96 281 q 68 492 68 421 q 82 635 68 565 q 127 773 96 705 q 206 893 159 842 q 325 976 253 944 q 485 1007 397 1007 q 614 986 553 1007 q 720 929 675 964 q 800 848 765 894 q 854 754 834 802 q 880 657 873 705 l 680 657 z "},"ć":{"ha":710,"x_min":58,"x_max":664,"o":"m 393 802 q 384 799 388 799 q 377 800 382 799 q 353 814 365 804 q 332 835 340 825 q 317 865 323 845 q 313 888 313 879 q 315 899 313 892 q 320 907 316 904 l 511 1075 q 531 1082 519 1082 q 544 1080 537 1082 q 573 1065 559 1076 q 597 1043 586 1056 q 613 1008 608 1029 q 616 985 616 997 q 614 967 616 975 q 602 947 610 954 l 393 802 m 519 513 q 397 590 475 590 q 283 525 330 590 q 236 361 236 460 q 287 200 236 262 q 411 138 337 138 q 436 140 425 138 q 455 144 447 142 q 471 153 463 146 q 484 162 479 159 q 494 174 488 165 q 502 186 500 183 q 510 200 504 189 q 517 214 515 212 l 662 138 q 557 26 622 72 q 411 -20 492 -20 q 154 84 249 -20 q 58 361 58 188 q 154 639 58 532 q 397 746 250 746 q 550 703 476 746 q 664 589 625 660 l 519 513 z "},"Ĉ":{"ha":888,"x_min":68,"x_max":880,"o":"m 760 1059 l 576 1059 l 487 1168 l 403 1061 l 215 1061 l 408 1293 l 568 1293 l 760 1059 m 680 657 q 646 744 670 703 q 578 814 621 785 q 485 844 536 844 q 395 824 435 844 q 331 769 356 803 q 290 688 306 735 q 267 593 273 642 q 260 492 260 545 q 267 392 260 440 q 290 298 273 345 q 331 218 306 252 q 396 164 356 184 q 485 143 435 143 q 612 199 559 143 q 680 328 664 256 l 879 328 q 853 231 873 279 q 799 137 833 182 q 720 57 765 92 q 614 1 675 22 q 485 -20 553 -20 q 325 12 397 -20 q 206 95 253 43 q 127 214 159 146 q 82 351 96 281 q 68 492 68 421 q 82 635 68 565 q 127 773 96 705 q 206 893 159 842 q 325 976 253 944 q 485 1007 397 1007 q 614 986 553 1007 q 720 929 675 964 q 800 848 765 894 q 854 754 834 802 q 880 657 873 705 l 680 657 z "},"ĉ":{"ha":710,"x_min":58,"x_max":664,"o":"m 664 776 l 480 776 l 391 885 l 307 778 l 119 778 l 311 1009 l 471 1009 l 664 776 m 519 513 q 397 590 475 590 q 283 525 330 590 q 236 361 236 460 q 287 200 236 262 q 411 138 337 138 q 436 140 425 138 q 455 144 447 142 q 471 153 463 146 q 484 162 479 159 q 494 174 488 165 q 502 186 500 183 q 510 200 504 189 q 517 214 515 212 l 662 138 q 557 26 622 72 q 411 -20 492 -20 q 154 84 249 -20 q 58 361 58 188 q 154 639 58 532 q 397 746 250 746 q 550 703 476 746 q 664 589 625 660 l 519 513 z "},"Ċ":{"ha":888,"x_min":68,"x_max":880,"o":"m 379 1157 q 412 1236 379 1203 q 490 1268 444 1268 q 569 1236 536 1268 q 602 1157 602 1203 q 569 1078 602 1111 q 490 1046 536 1046 q 412 1079 445 1046 q 379 1157 379 1112 m 680 657 q 646 744 670 703 q 578 814 621 785 q 485 844 536 844 q 395 824 435 844 q 331 769 356 803 q 290 688 306 735 q 267 593 273 642 q 260 492 260 545 q 267 392 260 440 q 290 298 273 345 q 331 218 306 252 q 396 164 356 184 q 485 143 435 143 q 612 199 559 143 q 680 328 664 256 l 879 328 q 853 231 873 279 q 799 137 833 182 q 720 57 765 92 q 614 1 675 22 q 485 -20 553 -20 q 325 12 397 -20 q 206 95 253 43 q 127 214 159 146 q 82 351 96 281 q 68 492 68 421 q 82 635 68 565 q 127 773 96 705 q 206 893 159 842 q 325 976 253 944 q 485 1007 397 1007 q 614 986 553 1007 q 720 929 675 964 q 800 848 765 894 q 854 754 834 802 q 880 657 873 705 l 680 657 z "},"ċ":{"ha":710,"x_min":58,"x_max":664,"o":"m 271 915 q 304 994 271 961 q 382 1026 336 1026 q 461 994 429 1026 q 494 915 494 961 q 461 836 494 869 q 382 804 429 804 q 304 837 337 804 q 271 915 271 869 m 519 513 q 397 590 475 590 q 283 525 330 590 q 236 361 236 460 q 287 200 236 262 q 411 138 337 138 q 436 140 425 138 q 455 144 447 142 q 471 153 463 146 q 484 162 479 159 q 494 174 488 165 q 502 186 500 183 q 510 200 504 189 q 517 214 515 212 l 662 138 q 557 26 622 72 q 411 -20 492 -20 q 154 84 249 -20 q 58 361 58 188 q 154 639 58 532 q 397 746 250 746 q 550 703 476 746 q 664 589 625 660 l 519 513 z "},"Č":{"ha":888,"x_min":68,"x_max":880,"o":"m 760 1293 l 568 1059 l 408 1059 l 215 1291 l 403 1291 l 487 1183 l 576 1293 l 760 1293 m 680 657 q 646 744 670 703 q 578 814 621 785 q 485 844 536 844 q 395 824 435 844 q 331 769 356 803 q 290 688 306 735 q 267 593 273 642 q 260 492 260 545 q 267 392 260 440 q 290 298 273 345 q 331 218 306 252 q 396 164 356 184 q 485 143 435 143 q 612 199 559 143 q 680 328 664 256 l 879 328 q 853 231 873 279 q 799 137 833 182 q 720 57 765 92 q 614 1 675 22 q 485 -20 553 -20 q 325 12 397 -20 q 206 95 253 43 q 127 214 159 146 q 82 351 96 281 q 68 492 68 421 q 82 635 68 565 q 127 773 96 705 q 206 893 159 842 q 325 976 253 944 q 485 1007 397 1007 q 614 986 553 1007 q 720 929 675 964 q 800 848 765 894 q 854 754 834 802 q 880 657 873 705 l 680 657 z "},"č":{"ha":710,"x_min":58,"x_max":676,"o":"m 676 1009 l 484 776 l 323 776 l 131 1007 l 319 1007 l 403 900 l 492 1009 l 676 1009 m 519 513 q 397 590 475 590 q 283 525 330 590 q 236 361 236 460 q 287 200 236 262 q 411 138 337 138 q 436 140 425 138 q 455 144 447 142 q 471 153 463 146 q 484 162 479 159 q 494 174 488 165 q 502 186 500 183 q 510 200 504 189 q 517 214 515 212 l 662 138 q 557 26 622 72 q 411 -20 492 -20 q 154 84 249 -20 q 58 361 58 188 q 154 639 58 532 q 397 746 250 746 q 550 703 476 746 q 664 589 625 660 l 519 513 z "},"Ď":{"ha":863,"x_min":78,"x_max":811,"o":"m 683 1293 l 490 1059 l 330 1059 l 138 1291 l 326 1291 l 410 1183 l 499 1293 l 683 1293 m 619 510 q 547 737 619 648 q 354 825 474 825 l 260 825 l 260 163 l 354 163 q 547 257 475 163 q 619 510 619 352 m 811 510 q 759 249 811 366 q 611 66 707 133 q 395 0 516 0 l 78 0 l 78 987 l 395 987 q 613 923 517 987 q 760 750 709 859 q 811 510 811 642 z "},"ď":{"ha":914,"x_min":50,"x_max":883,"o":"m 883 939 q 873 876 883 907 q 848 820 863 844 q 821 779 835 797 q 798 754 806 761 l 763 777 q 776 810 767 785 q 784 844 784 832 q 783 849 784 848 q 745 878 761 855 q 728 939 728 902 q 751 1000 728 972 q 804 1027 773 1027 q 862 1000 841 1027 q 883 939 883 972 m 515 0 l 515 106 q 423 16 480 51 q 307 -19 366 -19 q 193 11 243 -19 q 112 94 142 41 q 66 214 81 146 q 50 361 50 281 q 65 508 50 440 q 111 630 81 576 q 192 715 142 684 q 307 746 242 746 q 423 712 366 746 q 515 622 480 677 l 515 986 l 690 986 l 690 0 l 515 0 m 227 364 q 240 266 227 310 q 275 195 253 221 q 321 154 296 168 q 370 140 346 140 q 422 151 397 140 q 470 186 447 162 q 507 257 493 211 q 521 364 521 302 q 507 471 521 425 q 470 541 493 517 q 422 576 447 565 q 370 587 397 587 q 320 575 344 587 q 274 538 296 564 q 239 469 252 513 q 227 364 227 424 z "},"Đ":{"ha":1004,"x_min":92,"x_max":920,"o":"m 176 415 l 92 415 l 92 577 l 176 577 l 176 987 l 472 987 q 656 949 572 987 q 799 844 742 909 q 888 686 855 778 q 920 493 920 597 q 887 300 920 392 q 796 142 854 209 q 654 38 739 77 q 472 0 572 0 l 319 0 l 176 0 l 176 415 m 358 415 l 358 165 l 472 165 q 664 256 589 165 q 739 493 739 348 q 663 730 739 637 q 472 821 588 821 l 357 821 l 357 577 l 525 577 l 525 415 l 358 415 z "},"đ":{"ha":761,"x_min":50,"x_max":736,"o":"m 227 364 q 240 266 227 310 q 275 195 253 221 q 321 154 296 168 q 370 140 346 140 q 422 151 397 140 q 470 186 447 162 q 507 257 493 211 q 521 364 521 302 q 507 471 521 425 q 470 541 493 517 q 422 576 447 565 q 370 587 397 587 q 320 575 344 587 q 274 538 296 564 q 239 469 252 513 q 227 364 227 424 m 515 0 l 515 106 q 423 16 480 51 q 307 -19 366 -19 q 193 11 243 -19 q 112 94 142 41 q 66 214 81 146 q 50 361 50 281 q 65 508 50 440 q 111 630 81 576 q 192 715 142 684 q 307 746 242 746 q 423 712 366 746 q 515 622 480 677 l 515 773 l 391 773 l 391 936 l 515 936 l 515 986 l 690 986 l 690 936 l 736 936 l 736 773 l 690 773 l 690 0 l 515 0 z "},"Ē":{"ha":821,"x_min":78,"x_max":744,"o":"m 170 1230 l 693 1230 l 693 1143 l 170 1143 l 170 1230 m 78 987 l 744 987 l 744 825 l 260 825 l 260 587 l 701 587 l 701 425 l 260 425 l 260 163 l 744 163 l 744 0 l 78 0 l 78 987 z "},"ē":{"ha":741,"x_min":60,"x_max":696,"o":"m 127 961 l 650 961 l 650 875 l 127 875 l 127 961 m 246 441 l 526 441 q 484 546 522 503 q 386 589 447 589 q 288 545 326 589 q 246 441 250 501 m 392 136 q 496 181 459 136 l 651 115 q 536 16 609 51 q 392 -20 464 -20 q 264 9 325 -20 q 158 89 203 39 q 86 211 113 139 q 60 364 60 283 q 155 636 60 527 q 386 745 250 745 q 546 695 475 745 q 656 559 617 646 q 696 364 696 473 l 696 318 l 245 318 q 257 240 246 274 q 283 186 268 205 q 319 156 299 168 q 357 140 340 144 q 392 136 374 136 z "},"Ĕ":{"ha":821,"x_min":78,"x_max":744,"o":"m 443 1199 q 529 1317 475 1222 l 635 1317 q 636 1296 636 1310 q 589 1137 636 1217 q 505 1059 562 1090 q 398 1028 452 1028 q 291 1059 344 1028 q 208 1137 235 1090 q 160 1296 160 1217 q 161 1317 160 1310 l 270 1317 q 353 1200 308 1230 q 401 1188 368 1190 q 443 1199 429 1190 m 78 987 l 744 987 l 744 825 l 260 825 l 260 587 l 701 587 l 701 425 l 260 425 l 260 163 l 744 163 l 744 0 l 78 0 l 78 987 z "},"ĕ":{"ha":741,"x_min":60,"x_max":696,"o":"m 426 962 q 512 1080 458 985 l 618 1080 q 619 1059 619 1073 q 572 899 619 979 q 488 821 545 853 q 381 791 435 791 q 274 821 327 791 q 191 899 218 853 q 143 1059 143 979 q 144 1080 143 1073 l 253 1080 q 336 962 291 992 q 384 951 351 952 q 426 962 412 952 m 246 441 l 526 441 q 484 546 522 503 q 386 589 447 589 q 288 545 326 589 q 246 441 250 501 m 392 136 q 496 181 459 136 l 651 115 q 536 16 609 51 q 392 -20 464 -20 q 264 9 325 -20 q 158 89 203 39 q 86 211 113 139 q 60 364 60 283 q 155 636 60 527 q 386 745 250 745 q 546 695 475 745 q 656 559 617 646 q 696 364 696 473 l 696 318 l 245 318 q 257 240 246 274 q 283 186 268 205 q 319 156 299 168 q 357 140 340 144 q 392 136 374 136 z "},"Ė":{"ha":821,"x_min":78,"x_max":744,"o":"m 339 1192 q 372 1270 339 1238 q 450 1303 404 1303 q 529 1270 496 1303 q 562 1192 562 1238 q 529 1113 562 1145 q 450 1080 496 1080 q 372 1114 405 1080 q 339 1192 339 1146 m 78 987 l 744 987 l 744 825 l 260 825 l 260 587 l 701 587 l 701 425 l 260 425 l 260 163 l 744 163 l 744 0 l 78 0 l 78 987 z "},"ė":{"ha":741,"x_min":60,"x_max":696,"o":"m 271 917 q 304 996 271 963 q 382 1028 336 1028 q 461 996 429 1028 q 494 917 494 963 q 461 838 494 871 q 382 806 429 806 q 304 839 337 806 q 271 917 271 871 m 246 441 l 526 441 q 484 546 522 503 q 386 589 447 589 q 288 545 326 589 q 246 441 250 501 m 392 136 q 496 181 459 136 l 651 115 q 536 16 609 51 q 392 -20 464 -20 q 264 9 325 -20 q 158 89 203 39 q 86 211 113 139 q 60 364 60 283 q 155 636 60 527 q 386 745 250 745 q 546 695 475 745 q 656 559 617 646 q 696 364 696 473 l 696 318 l 245 318 q 257 240 246 274 q 283 186 268 205 q 319 156 299 168 q 357 140 340 144 q 392 136 374 136 z "},"Ę":{"ha":821,"x_min":78,"x_max":747,"o":"m 747 -147 l 670 -233 q 637 -216 661 -229 q 600 -195 637 -216 q 565 -171 583 -186 q 534 -143 542 -152 q 512 -111 520 -128 q 504 -76 504 -94 q 577 64 504 -1 l 687 3 q 667 -26 675 -10 q 659 -49 660 -40 q 658 -72 658 -54 q 668 -93 658 -81 q 691 -114 680 -106 q 720 -132 705 -123 q 747 -147 737 -143 m 78 987 l 744 987 l 744 825 l 260 825 l 260 587 l 701 587 l 701 425 l 260 425 l 260 163 l 744 163 l 744 0 l 78 0 l 78 987 z "},"ę":{"ha":741,"x_min":60,"x_max":696,"o":"m 518 -147 l 441 -233 q 408 -216 432 -229 q 372 -195 408 -216 q 336 -171 355 -186 q 305 -143 313 -152 q 283 -111 292 -128 q 275 -76 275 -94 q 349 64 275 -1 l 458 3 q 438 -26 446 -10 q 430 -49 431 -40 q 429 -72 429 -54 q 439 -93 429 -81 q 463 -114 452 -106 q 491 -132 476 -123 q 518 -147 509 -143 m 246 441 l 526 441 q 484 546 522 503 q 386 589 447 589 q 288 545 326 589 q 246 441 250 501 m 392 136 q 496 181 459 136 l 651 115 q 536 16 609 51 q 392 -20 464 -20 q 264 9 325 -20 q 158 89 203 39 q 86 211 113 139 q 60 364 60 283 q 155 636 60 527 q 386 745 250 745 q 546 695 475 745 q 656 559 617 646 q 696 364 696 473 l 696 318 l 245 318 q 257 240 246 274 q 283 186 268 205 q 319 156 299 168 q 357 140 340 144 q 392 136 374 136 z "},"Ě":{"ha":821,"x_min":78,"x_max":744,"o":"m 703 1293 l 511 1059 l 351 1059 l 158 1291 l 346 1291 l 430 1183 l 519 1293 l 703 1293 m 78 987 l 744 987 l 744 825 l 260 825 l 260 587 l 701 587 l 701 425 l 260 425 l 260 163 l 744 163 l 744 0 l 78 0 l 78 987 z "},"ě":{"ha":741,"x_min":60,"x_max":696,"o":"m 656 1010 l 463 777 l 303 777 l 111 1008 l 298 1008 l 382 901 l 472 1010 l 656 1010 m 246 441 l 526 441 q 484 546 522 503 q 386 589 447 589 q 288 545 326 589 q 246 441 250 501 m 392 136 q 496 181 459 136 l 651 115 q 536 16 609 51 q 392 -20 464 -20 q 264 9 325 -20 q 158 89 203 39 q 86 211 113 139 q 60 364 60 283 q 155 636 60 527 q 386 745 250 745 q 546 695 475 745 q 656 559 617 646 q 696 364 696 473 l 696 318 l 245 318 q 257 240 246 274 q 283 186 268 205 q 319 156 299 168 q 357 140 340 144 q 392 136 374 136 z "},"Ĝ":{"ha":964,"x_min":61,"x_max":873,"o":"m 760 1059 l 576 1059 l 487 1168 l 403 1061 l 215 1061 l 408 1293 l 568 1293 l 760 1059 m 484 -18 q 321 14 394 -18 q 201 99 249 46 q 121 222 154 151 q 75 366 89 292 q 61 517 61 439 q 75 657 61 589 q 121 791 89 726 q 201 906 154 857 q 322 985 249 955 q 485 1015 395 1015 q 675 961 589 1015 q 803 814 762 907 l 628 755 q 568 822 618 791 q 485 852 518 852 q 382 822 428 852 q 309 742 336 791 q 267 634 281 692 q 253 517 253 576 q 267 385 253 450 q 309 266 281 321 q 381 177 336 211 q 484 143 427 143 q 569 159 532 143 q 627 200 606 176 q 662 259 648 225 q 680 323 675 293 q 685 385 685 353 l 479 385 l 479 547 l 873 547 l 873 448 q 862 316 873 380 q 821 191 850 252 q 748 83 791 129 q 636 9 705 37 q 484 -18 568 -18 z "},"ĝ":{"ha":771,"x_min":50,"x_max":690,"o":"m 665 775 l 481 775 l 391 884 l 307 777 l 119 777 l 312 1008 l 472 1008 l 665 775 m 515 -47 l 515 106 q 423 16 480 51 q 307 -19 366 -19 q 193 11 243 -19 q 112 94 142 41 q 66 214 81 146 q 50 361 50 281 q 65 508 50 440 q 111 630 81 576 q 192 715 142 684 q 307 746 242 746 q 423 712 366 746 q 515 622 480 677 l 515 728 l 690 728 l 690 -34 q 670 -138 690 -89 q 611 -227 650 -188 q 512 -290 573 -267 q 374 -313 450 -313 q 263 -296 314 -313 q 179 -255 213 -280 q 122 -196 146 -229 q 86 -131 98 -163 q 71 -67 74 -99 q 235 -60 171 -62 q 276 -133 241 -105 q 374 -161 310 -161 q 476 -131 437 -161 q 515 -47 515 -100 m 227 364 q 240 266 227 310 q 275 195 253 221 q 321 154 296 168 q 370 140 346 140 q 422 151 397 140 q 470 186 447 162 q 507 257 493 211 q 521 364 521 302 q 507 471 521 425 q 470 541 493 517 q 422 576 447 565 q 370 587 397 587 q 320 575 344 587 q 274 538 296 564 q 239 469 252 513 q 227 364 227 424 z "},"Ğ":{"ha":964,"x_min":61,"x_max":873,"o":"m 529 1199 q 615 1317 561 1222 l 722 1317 q 722 1296 722 1310 q 675 1137 722 1217 q 591 1059 648 1090 q 484 1028 538 1028 q 377 1059 430 1028 q 294 1137 321 1090 q 246 1296 246 1217 q 247 1317 246 1310 l 356 1317 q 439 1200 394 1230 q 487 1188 454 1190 q 529 1199 515 1190 m 484 -18 q 321 14 394 -18 q 201 99 249 46 q 121 222 154 151 q 75 366 89 292 q 61 517 61 439 q 75 657 61 589 q 121 791 89 726 q 201 906 154 857 q 322 985 249 955 q 485 1015 395 1015 q 675 961 589 1015 q 803 814 762 907 l 628 755 q 568 822 618 791 q 485 852 518 852 q 382 822 428 852 q 309 742 336 791 q 267 634 281 692 q 253 517 253 576 q 267 385 253 450 q 309 266 281 321 q 381 177 336 211 q 484 143 427 143 q 569 159 532 143 q 627 200 606 176 q 662 259 648 225 q 680 323 675 293 q 685 385 685 353 l 479 385 l 479 547 l 873 547 l 873 448 q 862 316 873 380 q 821 191 850 252 q 748 83 791 129 q 636 9 705 37 q 484 -18 568 -18 z "},"ğ":{"ha":771,"x_min":50,"x_max":690,"o":"m 370 964 q 456 1082 401 987 l 562 1082 q 563 1061 563 1075 q 515 901 563 981 q 432 823 488 855 q 325 793 379 793 q 218 823 271 793 q 134 901 161 855 q 87 1061 87 981 q 87 1082 87 1075 l 197 1082 q 279 964 235 994 q 328 953 294 954 q 370 964 356 954 m 515 -47 l 515 106 q 423 16 480 51 q 307 -19 366 -19 q 193 11 243 -19 q 112 94 142 41 q 66 214 81 146 q 50 361 50 281 q 65 508 50 440 q 111 630 81 576 q 192 715 142 684 q 307 746 242 746 q 423 712 366 746 q 515 622 480 677 l 515 728 l 690 728 l 690 -34 q 670 -138 690 -89 q 611 -227 650 -188 q 512 -290 573 -267 q 374 -313 450 -313 q 263 -296 314 -313 q 179 -255 213 -280 q 122 -196 146 -229 q 86 -131 98 -163 q 71 -67 74 -99 q 235 -60 171 -62 q 276 -133 241 -105 q 374 -161 310 -161 q 476 -131 437 -161 q 515 -47 515 -100 m 227 364 q 240 266 227 310 q 275 195 253 221 q 321 154 296 168 q 370 140 346 140 q 422 151 397 140 q 470 186 447 162 q 507 257 493 211 q 521 364 521 302 q 507 471 521 425 q 470 541 493 517 q 422 576 447 565 q 370 587 397 587 q 320 575 344 587 q 274 538 296 564 q 239 469 252 513 q 227 364 227 424 z "},"Ġ":{"ha":964,"x_min":61,"x_max":873,"o":"m 372 1192 q 404 1270 372 1238 q 483 1303 437 1303 q 562 1270 529 1303 q 594 1192 594 1238 q 562 1113 594 1145 q 483 1080 529 1080 q 404 1114 437 1080 q 372 1192 372 1146 m 484 -18 q 321 14 394 -18 q 201 99 249 46 q 121 222 154 151 q 75 366 89 292 q 61 517 61 439 q 75 657 61 589 q 121 791 89 726 q 201 906 154 857 q 322 985 249 955 q 485 1015 395 1015 q 675 961 589 1015 q 803 814 762 907 l 628 755 q 568 822 618 791 q 485 852 518 852 q 382 822 428 852 q 309 742 336 791 q 267 634 281 692 q 253 517 253 576 q 267 385 253 450 q 309 266 281 321 q 381 177 336 211 q 484 143 427 143 q 569 159 532 143 q 627 200 606 176 q 662 259 648 225 q 680 323 675 293 q 685 385 685 353 l 479 385 l 479 547 l 873 547 l 873 448 q 862 316 873 380 q 821 191 850 252 q 748 83 791 129 q 636 9 705 37 q 484 -18 568 -18 z "},"ġ":{"ha":771,"x_min":50,"x_max":690,"o":"m 263 918 q 296 996 263 964 q 374 1029 328 1029 q 453 996 420 1029 q 486 918 486 964 q 453 839 486 871 q 374 806 420 806 q 296 840 329 806 q 263 918 263 872 m 515 -47 l 515 106 q 423 16 480 51 q 307 -19 366 -19 q 193 11 243 -19 q 112 94 142 41 q 66 214 81 146 q 50 361 50 281 q 65 508 50 440 q 111 630 81 576 q 192 715 142 684 q 307 746 242 746 q 423 712 366 746 q 515 622 480 677 l 515 728 l 690 728 l 690 -34 q 670 -138 690 -89 q 611 -227 650 -188 q 512 -290 573 -267 q 374 -313 450 -313 q 263 -296 314 -313 q 179 -255 213 -280 q 122 -196 146 -229 q 86 -131 98 -163 q 71 -67 74 -99 q 235 -60 171 -62 q 276 -133 241 -105 q 374 -161 310 -161 q 476 -131 437 -161 q 515 -47 515 -100 m 227 364 q 240 266 227 310 q 275 195 253 221 q 321 154 296 168 q 370 140 346 140 q 422 151 397 140 q 470 186 447 162 q 507 257 493 211 q 521 364 521 302 q 507 471 521 425 q 470 541 493 517 q 422 576 447 565 q 370 587 397 587 q 320 575 344 587 q 274 538 296 564 q 239 469 252 513 q 227 364 227 424 z "},"Ģ":{"ha":964,"x_min":61,"x_max":873,"o":"m 484 -18 q 321 14 394 -18 q 201 99 249 46 q 121 222 154 151 q 75 366 89 292 q 61 517 61 439 q 75 657 61 589 q 121 791 89 726 q 201 906 154 857 q 322 985 249 955 q 485 1015 395 1015 q 675 961 589 1015 q 803 814 762 907 l 628 755 q 568 822 618 791 q 485 852 518 852 q 382 822 428 852 q 309 742 336 791 q 267 634 281 692 q 253 517 253 576 q 267 385 253 450 q 309 266 281 321 q 381 177 336 211 q 484 143 427 143 q 569 159 532 143 q 627 200 606 176 q 662 259 648 225 q 680 323 675 293 q 685 385 685 353 l 479 385 l 479 547 l 873 547 l 873 448 q 862 316 873 380 q 821 191 850 252 q 748 83 791 129 q 636 9 705 37 q 484 -18 568 -18 z "},"ģ":{"ha":771,"x_min":50,"x_max":690,"o":"m 515 -47 l 515 106 q 423 16 480 51 q 307 -19 366 -19 q 193 11 243 -19 q 112 94 142 41 q 66 214 81 146 q 50 361 50 281 q 65 508 50 440 q 111 630 81 576 q 192 715 142 684 q 307 746 242 746 q 423 712 366 746 q 515 622 480 677 l 515 728 l 690 728 l 690 -34 q 670 -138 690 -89 q 611 -227 650 -188 q 512 -290 573 -267 q 374 -313 450 -313 q 263 -296 314 -313 q 179 -255 213 -280 q 122 -196 146 -229 q 86 -131 98 -163 q 71 -67 74 -99 q 235 -60 171 -62 q 276 -133 241 -105 q 374 -161 310 -161 q 476 -131 437 -161 q 515 -47 515 -100 m 227 364 q 240 266 227 310 q 275 195 253 221 q 321 154 296 168 q 370 140 346 140 q 422 151 397 140 q 470 186 447 162 q 507 257 493 211 q 521 364 521 302 q 507 471 521 425 q 470 541 493 517 q 422 576 447 565 q 370 587 397 587 q 320 575 344 587 q 274 538 296 564 q 239 469 252 513 q 227 364 227 424 z "},"Ĥ":{"ha":850,"x_min":78,"x_max":772,"o":"m 695 1059 l 511 1059 l 422 1168 l 338 1061 l 150 1061 l 342 1293 l 503 1293 l 695 1059 m 78 987 l 260 987 l 260 586 l 589 586 l 589 987 l 772 987 l 772 0 l 589 0 l 589 423 l 260 423 l 260 0 l 78 0 l 78 987 z "},"ĥ":{"ha":760,"x_min":81,"x_max":688,"o":"m 686 1059 l 503 1059 l 413 1168 l 329 1061 l 141 1061 l 334 1293 l 494 1293 l 686 1059 m 256 0 l 81 0 l 81 986 l 256 986 l 256 618 q 346 711 286 674 q 475 747 405 747 q 549 728 512 747 q 617 673 586 709 q 668 580 649 637 q 688 453 688 522 l 688 0 l 513 0 l 513 364 q 504 477 513 432 q 479 546 496 523 q 441 579 462 570 q 391 588 420 588 q 348 583 367 588 q 312 562 330 577 q 282 523 294 547 q 263 458 270 498 q 256 363 256 418 l 256 0 z "},"Ħ":{"ha":850,"x_min":30,"x_max":820,"o":"m 78 987 l 260 987 l 260 891 l 589 891 l 589 987 l 772 987 l 772 891 l 820 891 l 820 728 l 772 728 l 772 0 l 589 0 l 589 423 l 260 423 l 260 0 l 78 0 l 78 728 l 30 728 l 30 891 l 78 891 l 78 987 m 589 728 l 260 728 l 260 586 l 589 586 l 589 728 z "},"ħ":{"ha":760,"x_min":27,"x_max":688,"o":"m 256 0 l 81 0 l 81 787 l 27 787 l 27 949 l 81 949 l 81 986 l 256 986 l 256 949 l 423 949 l 423 787 l 256 787 l 256 618 q 346 711 286 674 q 475 747 405 747 q 549 728 512 747 q 617 673 586 709 q 668 580 649 637 q 688 453 688 522 l 688 0 l 513 0 l 513 364 q 504 477 513 432 q 479 546 496 523 q 441 579 462 570 q 391 588 420 588 q 348 583 367 588 q 312 562 330 577 q 282 523 294 547 q 263 458 270 498 q 256 363 256 418 l 256 0 z "},"Ĩ":{"ha":376,"x_min":-31,"x_max":401,"o":"m -31 1227 q -12 1244 -24 1233 q 11 1263 -1 1255 q 35 1279 14 1265 q 64 1293 50 1289 q 93 1297 80 1297 q 131 1287 112 1297 q 168 1261 151 1276 q 185 1246 177 1254 q 202 1230 193 1238 q 240 1204 220 1215 q 280 1194 260 1194 q 328 1208 302 1194 q 365 1234 351 1221 q 401 1267 389 1256 l 401 1090 q 380 1073 399 1088 q 351 1051 370 1065 q 320 1035 340 1043 q 280 1027 300 1027 q 225 1043 254 1027 q 177 1078 197 1059 q 133 1114 159 1095 q 91 1130 110 1130 q 55 1123 71 1130 q 27 1109 35 1115 q -3 1086 22 1105 q -31 1064 -22 1072 l -31 1227 m 97 0 l 97 987 l 279 987 l 279 0 l 97 0 z "},"ĩ":{"ha":362,"x_min":-42,"x_max":390,"o":"m 94 728 l 269 728 l 269 0 l 94 0 l 94 728 m -42 1012 q -23 1028 -35 1017 q 0 1048 -12 1039 q 24 1063 3 1050 q 53 1077 39 1073 q 82 1082 69 1082 q 120 1072 101 1082 q 157 1046 140 1061 q 174 1030 166 1038 q 191 1015 182 1022 q 229 989 209 999 q 269 979 250 979 q 317 993 291 979 q 354 1018 340 1005 q 390 1051 378 1040 l 390 875 q 369 857 388 873 q 340 836 359 849 q 309 819 329 827 q 269 811 289 811 q 214 827 243 811 q 166 863 186 843 q 122 898 148 880 q 80 914 99 914 q 44 907 60 914 q 16 894 24 899 q -14 871 11 890 q -42 848 -33 856 l -42 1012 z "},"Ī":{"ha":376,"x_min":-72,"x_max":452,"o":"m -72 1230 l 452 1230 l 452 1143 l -72 1143 l -72 1230 m 97 0 l 97 987 l 279 987 l 279 0 l 97 0 z "},"ī":{"ha":362,"x_min":-81,"x_max":443,"o":"m 94 728 l 269 728 l 269 0 l 94 0 l 94 728 m -81 959 l 443 959 l 443 873 l -81 873 l -81 959 z "},"Ĭ":{"ha":376,"x_min":-52,"x_max":424,"o":"m 231 1199 q 317 1317 262 1222 l 423 1317 q 424 1296 424 1310 q 376 1137 424 1217 q 293 1059 349 1090 q 186 1028 240 1028 q 79 1059 132 1028 q -5 1137 22 1090 q -52 1296 -52 1217 q -52 1317 -52 1310 l 58 1317 q 140 1200 96 1230 q 189 1188 155 1190 q 231 1199 217 1190 m 97 0 l 97 987 l 279 987 l 279 0 l 97 0 z "},"ĭ":{"ha":362,"x_min":-52,"x_max":425,"o":"m 94 728 l 269 728 l 269 0 l 94 0 l 94 728 m 231 936 q 317 1054 263 959 l 424 1054 q 425 1033 425 1047 q 377 873 425 954 q 294 795 350 827 q 186 765 241 765 q 79 795 132 765 q -4 873 23 827 q -52 1033 -52 954 q -51 1054 -52 1047 l 58 1054 q 141 937 96 966 q 189 925 156 926 q 231 936 218 926 z "},"Į":{"ha":376,"x_min":93,"x_max":336,"o":"m 336 -147 l 259 -233 q 226 -216 250 -229 q 189 -195 226 -216 q 154 -171 172 -186 q 123 -143 131 -152 q 101 -111 109 -128 q 93 -76 93 -94 q 166 64 93 -1 l 276 3 q 256 -26 264 -10 q 248 -49 249 -40 q 247 -72 247 -54 q 257 -93 247 -81 q 280 -114 269 -106 q 309 -132 294 -123 q 336 -147 326 -143 m 97 0 l 97 987 l 279 987 l 279 0 l 97 0 z "},"į":{"ha":362,"x_min":81,"x_max":324,"o":"m 324 -147 l 248 -233 q 214 -216 238 -229 q 178 -195 214 -216 q 142 -171 161 -186 q 111 -143 119 -152 q 90 -111 98 -128 q 81 -76 81 -94 q 155 64 81 -1 l 264 3 q 244 -26 252 -10 q 236 -49 237 -40 q 235 -72 235 -54 q 245 -93 235 -81 q 269 -114 258 -106 q 297 -132 282 -123 q 324 -147 315 -143 m 112 828 q 97 844 112 828 q 82 905 82 861 q 112 981 82 949 q 182 1013 141 1013 q 252 981 222 1013 q 281 905 281 949 q 252 828 281 861 q 182 796 222 796 q 112 828 141 796 m 94 728 l 269 728 l 269 0 l 94 0 l 94 728 z "},"İ":{"ha":376,"x_min":77,"x_max":300,"o":"m 77 1192 q 110 1270 77 1238 q 189 1303 142 1303 q 267 1270 235 1303 q 300 1192 300 1238 q 267 1113 300 1145 q 189 1080 235 1080 q 110 1114 143 1080 q 77 1192 77 1146 m 97 0 l 97 987 l 279 987 l 279 0 l 97 0 z "},"ı":{"ha":362,"x_min":94,"x_max":269,"o":"m 94 728 l 269 728 l 269 0 l 94 0 l 94 728 z "},"Ĳ":{"ha":1158,"x_min":97,"x_max":1074,"o":"m 378 397 l 542 397 q 551 307 542 351 q 582 228 560 267 q 640 170 603 191 q 727 149 677 149 q 808 170 774 149 q 859 228 842 191 q 884 306 876 264 q 892 397 892 347 l 892 987 l 1074 987 l 1074 397 q 1036 178 1074 273 q 919 31 998 85 q 727 -24 839 -24 q 598 -3 655 -24 q 499 56 538 19 q 431 146 459 92 q 391 262 405 197 q 378 397 378 323 m 97 0 l 97 987 l 279 987 l 279 0 l 97 0 z "},"ĳ":{"ha":630,"x_min":82,"x_max":549,"o":"m 380 829 q 350 905 350 862 q 380 981 350 947 q 450 1013 410 1013 q 519 981 490 1013 q 549 905 549 947 q 519 829 549 862 q 450 796 490 796 q 380 829 410 796 m 108 -226 l 222 -109 q 248 -129 231 -121 q 283 -138 267 -138 q 340 -117 318 -138 q 362 -62 362 -95 l 362 728 l 537 728 l 537 -24 q 499 -155 537 -91 q 401 -255 461 -218 q 276 -293 340 -293 q 182 -279 221 -293 q 108 -226 144 -267 m 112 828 q 97 844 112 828 q 82 905 82 861 q 112 981 82 949 q 182 1013 141 1013 q 252 981 222 1013 q 281 905 281 949 q 252 828 281 861 q 182 796 222 796 q 112 828 141 796 m 94 728 l 269 728 l 269 0 l 94 0 l 94 728 z "},"Ĵ":{"ha":848,"x_min":69,"x_max":943,"o":"m 943 1057 l 760 1057 l 670 1166 l 586 1059 l 398 1059 l 591 1290 l 751 1290 l 943 1057 m 69 397 l 251 397 q 418 139 251 139 q 498 161 465 139 q 550 222 532 184 q 575 304 568 261 q 583 397 583 347 l 583 987 l 765 987 l 765 397 q 727 178 765 272 q 610 31 689 85 q 418 -24 530 -24 q 289 -3 347 -24 q 190 56 231 18 q 122 146 150 94 q 82 262 95 199 q 69 397 69 325 z "},"ĵ":{"ha":362,"x_min":-160,"x_max":454,"o":"m -160 -226 l -45 -109 q -20 -129 -37 -121 q 16 -138 -1 -138 q 72 -117 50 -138 q 94 -62 94 -95 l 94 728 l 269 728 l 269 -24 q 232 -155 269 -92 q 133 -255 195 -217 q 8 -293 71 -293 q -87 -279 -47 -293 q -160 -226 -123 -267 m 454 777 l 270 777 l 180 886 l 96 779 l -92 779 l 101 1010 l 261 1010 l 454 777 z "},"Ķ":{"ha":904,"x_min":78,"x_max":875,"o":"m 78 987 l 260 987 l 260 565 l 628 987 l 855 987 l 478 548 l 875 0 l 647 0 l 339 426 l 260 336 l 260 0 l 78 0 l 78 987 z "},"ķ":{"ha":677,"x_min":81,"x_max":675,"o":"m 392 405 l 675 0 l 476 0 l 265 317 l 256 301 l 256 0 l 81 0 l 81 986 l 256 986 l 256 486 l 446 728 l 660 728 l 392 405 z "},"ĸ":{"ha":698,"x_min":16,"x_max":696,"o":"m 197 281 l 197 -1 l 16 -1 l 16 728 l 197 728 l 197 456 l 469 728 l 696 728 l 352 372 l 692 0 l 465 0 l 197 281 z "},"Ĺ":{"ha":827,"x_min":78,"x_max":745,"o":"m 338 1040 q 330 1036 334 1036 q 323 1038 328 1036 q 298 1051 311 1041 q 277 1072 286 1062 q 263 1103 269 1082 q 259 1126 259 1116 q 260 1136 259 1129 q 266 1145 262 1141 l 457 1312 q 477 1319 465 1319 q 490 1317 483 1319 q 519 1303 505 1313 q 543 1280 532 1293 q 559 1245 554 1267 q 562 1222 562 1234 q 559 1204 562 1213 q 547 1184 556 1191 l 338 1040 m 78 987 l 260 987 l 260 163 l 745 163 l 745 0 l 78 0 l 78 987 z "},"ĺ":{"ha":380,"x_min":94,"x_max":397,"o":"m 174 1040 q 165 1036 169 1036 q 158 1038 163 1036 q 134 1051 146 1041 q 113 1072 121 1062 q 98 1103 104 1082 q 94 1126 94 1116 q 96 1136 94 1129 q 101 1145 97 1141 l 292 1312 q 312 1319 300 1319 q 325 1317 318 1319 q 354 1303 340 1313 q 378 1280 367 1293 q 394 1245 389 1267 q 397 1222 397 1234 q 395 1204 397 1213 q 382 1184 391 1191 l 174 1040 m 269 191 q 332 132 269 132 l 332 -20 q 151 26 207 -20 q 94 187 94 71 l 94 986 l 269 986 l 269 191 z "},"Ļ":{"ha":827,"x_min":78,"x_max":745,"o":"m 273 -161 q 283 -156 275 -161 q 296 -148 292 -151 q 309 -141 300 -146 q 322 -132 317 -136 q 334 -123 327 -129 q 345 -114 341 -118 q 354 -105 349 -110 q 360 -96 358 -100 q 361 -86 361 -91 q 360 -63 361 -71 q 353 -40 359 -54 q 332 -11 346 -25 l 442 50 q 515 -90 515 -15 q 504 -131 515 -111 q 479 -165 492 -151 q 439 -196 467 -178 q 400 -221 412 -214 q 359 -242 389 -227 q 356 -244 357 -243 q 353 -246 355 -245 q 349 -248 351 -247 l 273 -161 m 78 987 l 260 987 l 260 163 l 745 163 l 745 0 l 78 0 l 78 987 z "},"ļ":{"ha":380,"x_min":62,"x_max":332,"o":"m 62 -161 q 73 -156 64 -161 q 86 -148 82 -151 q 98 -141 90 -146 q 112 -132 107 -136 q 124 -123 117 -129 q 135 -114 131 -118 q 143 -105 139 -110 q 150 -96 148 -100 q 151 -86 151 -91 q 150 -63 151 -71 q 142 -40 149 -54 q 122 -11 136 -25 l 232 50 q 305 -90 305 -15 q 294 -131 305 -111 q 269 -165 282 -151 q 229 -196 256 -178 q 190 -221 202 -214 q 149 -242 178 -227 q 146 -244 147 -243 q 142 -246 144 -245 q 139 -248 140 -247 l 62 -161 m 269 191 q 332 132 269 132 l 332 -20 q 151 26 207 -20 q 94 187 94 71 l 94 986 l 269 986 l 269 191 z "},"Ľ":{"ha":827,"x_min":78,"x_max":745,"o":"m 490 939 q 480 876 490 907 q 456 820 470 844 q 428 779 442 797 q 406 754 413 761 l 370 777 q 383 810 374 785 q 391 844 391 832 q 391 849 391 848 q 352 878 368 855 q 336 939 336 902 q 358 1000 336 972 q 411 1027 380 1027 q 469 1000 448 1027 q 490 939 490 972 m 78 987 l 260 987 l 260 163 l 745 163 l 745 0 l 78 0 l 78 987 z "},"ľ":{"ha":524,"x_min":94,"x_max":490,"o":"m 490 939 q 480 876 490 907 q 456 820 470 844 q 428 779 442 797 q 406 754 413 761 l 370 777 q 383 810 374 785 q 391 844 391 832 q 391 849 391 848 q 352 878 368 855 q 336 939 336 902 q 358 1000 336 972 q 411 1027 380 1027 q 469 1000 448 1027 q 490 939 490 972 m 269 191 q 332 132 269 132 l 332 -20 q 151 26 207 -20 q 94 187 94 71 l 94 986 l 269 986 l 269 191 z "},"Ŀ":{"ha":827,"x_min":78,"x_max":745,"o":"m 407 519 q 439 598 407 566 q 518 631 472 631 q 597 598 564 631 q 629 519 629 566 q 597 441 629 473 q 518 408 564 408 q 439 441 472 408 q 407 519 407 474 m 78 987 l 260 987 l 260 163 l 745 163 l 745 0 l 78 0 l 78 987 z "},"ŀ":{"ha":555,"x_min":94,"x_max":550,"o":"m 328 519 q 360 598 328 566 q 439 631 393 631 q 517 598 485 631 q 550 519 550 566 q 517 441 550 473 q 439 408 485 408 q 360 441 393 408 q 328 519 328 474 m 269 191 q 332 132 269 132 l 332 -20 q 151 26 207 -20 q 94 187 94 71 l 94 986 l 269 986 l 269 191 z "},"Ł":{"ha":827,"x_min":0,"x_max":779,"o":"m 0 271 l 0 427 l 78 495 l 78 987 l 260 987 l 260 654 l 435 807 l 434 648 l 260 497 l 260 163 l 779 163 l 779 0 l 78 0 l 78 339 l 0 271 z "},"ł":{"ha":380,"x_min":0,"x_max":345,"o":"m 0 271 l 0 427 l 94 509 l 94 986 l 269 986 l 269 663 l 345 728 l 344 570 l 269 505 l 269 191 q 332 132 269 132 l 332 -20 q 151 26 206 -20 q 94 187 94 72 l 94 353 l 0 271 z "},"Ń":{"ha":911,"x_min":78,"x_max":825,"o":"m 400 1040 q 391 1036 395 1036 q 385 1038 390 1036 q 360 1051 372 1041 q 339 1072 347 1062 q 325 1103 331 1082 q 321 1126 321 1116 q 322 1136 321 1129 q 328 1145 323 1141 l 519 1312 q 538 1319 526 1319 q 551 1317 545 1319 q 581 1303 567 1313 q 604 1280 593 1293 q 621 1245 616 1267 q 623 1222 623 1234 q 621 1204 623 1213 q 609 1184 618 1191 l 400 1040 m 78 0 l 78 987 l 254 987 l 643 350 l 643 987 l 825 987 l 825 0 l 646 0 l 260 660 l 260 0 l 78 0 z "},"ń":{"ha":760,"x_min":81,"x_max":688,"o":"m 355 804 q 346 800 350 800 q 339 802 345 800 q 315 815 327 805 q 294 836 302 826 q 279 867 286 846 q 275 890 275 880 q 277 900 275 893 q 282 909 278 905 l 473 1076 q 493 1083 481 1083 q 506 1081 499 1083 q 535 1067 522 1077 q 559 1044 548 1057 q 575 1009 570 1031 q 578 986 578 998 q 576 968 578 977 q 564 948 572 955 l 355 804 m 256 0 l 81 0 l 81 728 l 256 728 l 256 618 q 346 711 286 674 q 475 747 405 747 q 549 728 512 747 q 617 673 586 709 q 668 580 649 637 q 688 453 688 522 l 688 0 l 513 0 l 513 364 q 504 477 513 432 q 479 546 496 523 q 441 579 462 570 q 391 588 420 588 q 348 583 367 588 q 312 562 330 577 q 282 523 294 547 q 263 458 270 498 q 256 363 256 418 l 256 0 z "},"Ņ":{"ha":911,"x_min":78,"x_max":825,"o":"m 78 0 l 78 987 l 254 987 l 643 350 l 643 987 l 825 987 l 825 0 l 646 0 l 260 660 l 260 0 l 78 0 z "},"ņ":{"ha":760,"x_min":81,"x_max":688,"o":"m 256 0 l 81 0 l 81 728 l 256 728 l 256 618 q 346 711 286 674 q 475 747 405 747 q 549 728 512 747 q 617 673 586 709 q 668 580 649 637 q 688 453 688 522 l 688 0 l 513 0 l 513 364 q 504 477 513 432 q 479 546 496 523 q 441 579 462 570 q 391 588 420 588 q 348 583 367 588 q 312 562 330 577 q 282 523 294 547 q 263 458 270 498 q 256 363 256 418 l 256 0 z "},"Ň":{"ha":911,"x_min":78,"x_max":825,"o":"m 760 1293 l 568 1059 l 408 1059 l 215 1291 l 403 1291 l 487 1183 l 576 1293 l 760 1293 m 78 0 l 78 987 l 254 987 l 643 350 l 643 987 l 825 987 l 825 0 l 646 0 l 260 660 l 260 0 l 78 0 z "},"ň":{"ha":760,"x_min":81,"x_max":688,"o":"m 654 1010 l 462 777 l 302 777 l 109 1008 l 297 1008 l 381 901 l 471 1010 l 654 1010 m 256 0 l 81 0 l 81 728 l 256 728 l 256 618 q 346 711 286 674 q 475 747 405 747 q 549 728 512 747 q 617 673 586 709 q 668 580 649 637 q 688 453 688 522 l 688 0 l 513 0 l 513 364 q 504 477 513 432 q 479 546 496 523 q 441 579 462 570 q 391 588 420 588 q 348 583 367 588 q 312 562 330 577 q 282 523 294 547 q 263 458 270 498 q 256 363 256 418 l 256 0 z "},"ŉ":{"ha":945,"x_min":45,"x_max":873,"o":"m 266 901 q 252 823 266 863 q 216 752 237 783 q 177 701 195 722 q 144 669 159 681 l 94 699 q 113 739 102 711 q 125 781 125 766 q 123 789 125 785 q 68 825 92 796 q 45 901 45 854 q 77 976 45 942 q 153 1010 110 1010 q 236 976 206 1010 q 266 901 266 942 m 441 0 l 266 0 l 266 728 l 441 728 l 441 618 q 531 711 471 674 q 660 747 590 747 q 734 728 697 747 q 803 673 771 709 q 853 580 834 637 q 873 453 873 522 l 873 0 l 698 0 l 698 364 q 689 477 698 432 q 664 546 681 523 q 626 579 647 570 q 576 588 606 588 q 533 583 552 588 q 497 562 515 577 q 467 523 479 547 q 448 458 455 498 q 441 363 441 418 l 441 0 z "},"Ŋ":{"ha":911,"x_min":81,"x_max":829,"o":"m 399 67 l 514 184 q 540 164 522 172 q 575 155 559 155 q 631 176 610 155 q 654 231 654 198 l 654 293 l 652 293 l 652 623 q 646 718 652 678 q 630 782 639 760 q 604 821 620 806 q 571 841 585 837 q 530 846 553 846 q 382 815 443 846 q 263 716 324 785 q 256 622 256 707 l 256 0 l 81 0 l 81 987 l 256 987 l 256 877 q 433 970 387 951 q 614 1006 517 1006 q 688 986 650 1006 q 757 932 727 965 q 807 838 787 897 q 827 711 827 781 l 829 269 q 791 138 829 202 q 693 38 753 75 q 568 0 631 0 q 473 14 513 0 q 399 67 436 26 z "},"ŋ":{"ha":760,"x_min":81,"x_max":690,"o":"m 260 -226 l 375 -109 q 401 -129 383 -121 q 436 -138 420 -138 q 492 -117 471 -138 q 515 -62 515 -95 l 515 0 l 513 0 l 513 364 q 507 459 513 424 q 491 524 501 499 q 465 563 480 550 q 431 583 448 578 q 391 588 413 588 q 349 583 368 588 q 312 562 330 578 q 282 523 294 548 q 263 458 271 499 q 256 363 256 416 l 256 0 l 81 0 l 81 728 l 256 728 l 256 618 q 346 711 286 673 q 475 747 405 747 q 549 728 513 747 q 617 673 584 710 q 669 580 650 635 q 688 453 688 523 l 690 -24 q 652 -155 690 -92 q 553 -255 615 -217 q 429 -293 492 -293 q 334 -279 373 -293 q 260 -226 297 -267 z "},"Ō":{"ha":956,"x_min":68,"x_max":901,"o":"m 218 1230 l 742 1230 l 742 1143 l 218 1143 l 218 1230 m 710 492 q 699 619 710 559 q 663 730 688 678 q 592 813 638 783 q 485 844 547 844 q 395 824 435 844 q 331 769 356 803 q 290 688 306 735 q 267 593 273 642 q 260 492 260 545 q 267 392 260 440 q 290 298 273 345 q 331 218 306 252 q 396 164 356 184 q 485 143 435 143 q 575 164 535 143 q 639 218 614 184 q 680 298 664 252 q 703 392 696 345 q 710 492 710 440 m 68 492 q 82 635 68 565 q 127 773 96 705 q 206 893 159 842 q 325 976 253 944 q 485 1007 397 1007 q 645 976 573 1007 q 764 893 717 944 q 842 773 810 842 q 888 635 874 705 q 901 492 901 565 q 888 351 901 420 q 842 214 874 281 q 764 95 810 146 q 645 12 717 43 q 485 -20 573 -20 q 325 12 397 -20 q 206 95 253 43 q 127 214 159 146 q 82 351 96 281 q 68 492 68 421 z "},"ō":{"ha":749,"x_min":62,"x_max":703,"o":"m 127 960 l 651 960 l 651 874 l 127 874 l 127 960 m 233 364 q 384 140 233 140 q 534 364 534 140 q 384 587 534 587 q 233 364 233 587 m 62 364 q 146 643 62 541 q 383 746 231 746 q 619 644 536 746 q 703 364 703 541 q 619 84 703 187 q 383 -20 536 -20 q 146 83 230 -20 q 62 364 62 185 z "},"Ŏ":{"ha":956,"x_min":68,"x_max":901,"o":"m 538 1199 q 624 1317 570 1222 l 730 1317 q 731 1296 731 1310 q 684 1137 731 1217 q 600 1059 656 1090 q 493 1028 547 1028 q 386 1059 439 1028 q 302 1137 330 1090 q 255 1296 255 1217 q 256 1317 255 1310 l 365 1317 q 448 1200 403 1230 q 496 1188 463 1190 q 538 1199 524 1190 m 710 492 q 699 619 710 559 q 663 730 688 678 q 592 813 638 783 q 485 844 547 844 q 395 824 435 844 q 331 769 356 803 q 290 688 306 735 q 267 593 273 642 q 260 492 260 545 q 267 392 260 440 q 290 298 273 345 q 331 218 306 252 q 396 164 356 184 q 485 143 435 143 q 575 164 535 143 q 639 218 614 184 q 680 298 664 252 q 703 392 696 345 q 710 492 710 440 m 68 492 q 82 635 68 565 q 127 773 96 705 q 206 893 159 842 q 325 976 253 944 q 485 1007 397 1007 q 645 976 573 1007 q 764 893 717 944 q 842 773 810 842 q 888 635 874 705 q 901 492 901 565 q 888 351 901 420 q 842 214 874 281 q 764 95 810 146 q 645 12 717 43 q 485 -20 573 -20 q 325 12 397 -20 q 206 95 253 43 q 127 214 159 146 q 82 351 96 281 q 68 492 68 421 z "},"ŏ":{"ha":749,"x_min":62,"x_max":703,"o":"m 418 963 q 504 1081 450 986 l 610 1081 q 611 1060 611 1074 q 564 901 611 981 q 480 823 536 854 q 373 792 427 792 q 266 823 319 792 q 182 901 210 854 q 135 1060 135 981 q 136 1081 135 1074 l 245 1081 q 328 964 283 994 q 376 952 342 954 q 418 963 404 954 m 233 364 q 384 140 233 140 q 534 364 534 140 q 384 587 534 587 q 233 364 233 587 m 62 364 q 146 643 62 541 q 383 746 231 746 q 619 644 536 746 q 703 364 703 541 q 619 84 703 187 q 383 -20 536 -20 q 146 83 230 -20 q 62 364 62 185 z "},"Ő":{"ha":913,"x_min":68,"x_max":901,"o":"m 650 1013 q 635 1006 646 1006 q 608 1013 623 1006 q 583 1028 595 1019 q 562 1054 573 1035 q 550 1086 550 1073 q 553 1095 550 1092 l 694 1307 q 724 1320 703 1320 q 756 1313 737 1320 q 785 1298 774 1307 q 810 1268 798 1289 q 821 1229 821 1247 q 814 1206 821 1215 l 650 1013 m 387 1013 q 372 1006 381 1006 q 345 1013 359 1006 q 319 1028 331 1019 q 297 1054 309 1036 q 286 1086 286 1072 q 289 1095 286 1092 l 431 1307 q 460 1320 439 1320 q 492 1313 473 1320 q 521 1298 511 1307 q 547 1268 535 1289 q 557 1229 557 1249 q 551 1206 557 1215 l 387 1013 m 710 492 q 699 619 710 559 q 663 730 688 678 q 592 813 638 783 q 485 844 547 844 q 395 824 435 844 q 331 769 356 803 q 290 688 306 735 q 267 593 273 642 q 260 492 260 545 q 267 392 260 440 q 290 298 273 345 q 331 218 306 252 q 396 164 356 184 q 485 143 435 143 q 575 164 535 143 q 639 218 614 184 q 680 298 664 252 q 703 392 696 345 q 710 492 710 440 m 68 492 q 82 635 68 565 q 127 773 96 705 q 206 893 159 842 q 325 976 253 944 q 485 1007 397 1007 q 645 976 573 1007 q 764 893 717 944 q 842 773 810 842 q 888 635 874 705 q 901 492 901 565 q 888 351 901 420 q 842 214 874 281 q 764 95 810 146 q 645 12 717 43 q 485 -20 573 -20 q 325 12 397 -20 q 206 95 253 43 q 127 214 159 146 q 82 351 96 281 q 68 492 68 421 z "},"ő":{"ha":782,"x_min":62,"x_max":752,"o":"m 581 785 q 566 779 576 779 q 539 785 553 779 q 513 800 526 791 q 492 826 504 807 q 481 858 481 845 q 484 867 481 864 l 625 1079 q 655 1092 634 1092 q 687 1085 668 1092 q 715 1070 705 1079 q 741 1040 729 1061 q 752 1001 752 1019 q 745 979 752 987 l 581 785 m 317 785 q 302 779 312 779 q 275 785 290 779 q 250 800 262 791 q 228 826 239 808 q 217 858 217 844 q 220 867 217 864 l 361 1079 q 391 1092 370 1092 q 423 1085 404 1092 q 452 1070 441 1079 q 477 1040 466 1061 q 488 1001 488 1021 q 481 979 488 987 l 317 785 m 233 364 q 384 140 233 140 q 534 364 534 140 q 384 587 534 587 q 233 364 233 587 m 62 364 q 146 643 62 541 q 383 746 231 746 q 619 644 536 746 q 703 364 703 541 q 619 84 703 187 q 383 -20 536 -20 q 146 83 230 -20 q 62 364 62 185 z "},"Œ":{"ha":1126,"x_min":68,"x_max":1075,"o":"m 558 0 l 558 5 q 424 -20 498 -20 q 309 1 361 -20 q 221 57 257 22 q 157 139 185 92 q 113 234 129 186 q 86 335 96 282 q 72 431 75 389 q 68 511 68 473 q 72 590 68 549 q 86 680 75 630 q 113 775 96 730 q 157 864 129 820 q 221 939 185 907 q 309 990 257 971 q 424 1010 361 1010 q 558 987 499 1010 l 1075 987 l 1075 825 l 740 825 l 740 759 l 740 587 l 764 587 l 1032 587 l 1032 425 l 764 425 l 740 425 l 740 250 l 740 163 l 1075 163 l 1075 0 l 558 0 m 558 758 q 424 847 526 847 q 360 829 389 847 q 315 779 332 810 q 286 713 298 748 q 269 637 274 678 q 262 568 264 596 q 260 511 260 539 q 261 463 260 488 q 266 401 262 439 q 276 330 270 363 q 295 262 283 297 q 325 201 308 227 q 367 160 341 176 q 424 144 393 144 q 558 243 526 144 l 558 758 z "},"œ":{"ha":1103,"x_min":62,"x_max":1042,"o":"m 646 441 l 872 441 q 864 497 869 473 q 846 543 858 521 q 812 577 833 565 q 759 589 790 589 q 706 576 728 589 q 672 542 684 564 q 654 496 661 520 q 646 441 648 472 m 556 75 q 356 -20 479 -20 q 196 34 264 -20 q 95 173 128 87 q 62 364 62 259 q 95 555 62 469 q 196 693 128 640 q 356 746 264 746 q 555 653 479 746 q 759 745 636 745 q 912 695 847 745 q 1009 560 977 645 q 1042 364 1042 475 l 1042 318 l 646 318 q 765 136 650 136 q 807 145 793 136 q 842 181 821 155 l 997 115 q 893 15 954 49 q 765 -20 833 -20 q 556 75 640 -20 m 233 364 q 357 140 233 140 q 467 273 448 140 q 473 364 473 312 q 467 456 473 416 q 357 587 448 587 q 233 364 233 587 z "},"Ŕ":{"ha":821,"x_min":78,"x_max":785,"o":"m 341 1040 q 332 1036 336 1036 q 326 1038 331 1036 q 301 1051 313 1041 q 280 1072 288 1062 q 266 1103 272 1082 q 262 1126 262 1116 q 263 1136 262 1129 q 269 1145 264 1141 l 460 1312 q 479 1319 467 1319 q 492 1317 486 1319 q 522 1303 508 1313 q 545 1280 534 1293 q 562 1245 557 1267 q 564 1222 564 1234 q 562 1204 564 1213 q 550 1184 559 1191 l 341 1040 m 260 559 l 308 559 q 397 561 361 559 q 467 571 433 564 q 520 593 500 579 q 551 632 539 608 q 562 691 562 656 q 551 750 562 726 q 520 789 539 774 q 467 812 500 804 q 397 822 433 820 q 308 825 361 825 l 260 825 l 260 559 m 578 -1 l 361 395 q 321 393 344 393 q 288 394 310 393 q 260 394 267 394 l 260 -1 l 78 -1 l 78 987 l 260 987 q 348 986 313 987 q 438 979 382 985 q 533 962 495 973 q 615 929 570 951 q 686 877 659 907 q 730 799 712 846 q 748 691 748 751 q 696 520 748 588 q 541 425 644 452 l 785 -1 l 578 -1 z "},"ŕ":{"ha":582,"x_min":83,"x_max":565,"o":"m 271 802 q 262 799 266 799 q 255 800 260 799 q 231 814 243 804 q 210 835 218 825 q 195 865 201 845 q 191 888 191 879 q 193 899 191 892 q 198 907 194 904 l 389 1075 q 409 1082 397 1082 q 422 1080 415 1082 q 451 1065 437 1076 q 475 1043 464 1056 q 491 1008 486 1029 q 494 985 494 997 q 492 967 494 975 q 479 947 488 954 l 271 802 m 499 547 q 393 589 426 589 q 328 569 356 589 q 286 516 300 549 q 264 448 271 484 q 258 375 258 413 l 258 0 l 83 0 l 83 728 l 258 728 l 258 618 q 336 710 286 673 q 427 747 385 747 q 498 729 460 747 q 565 684 536 711 l 499 547 z "},"Ŗ":{"ha":821,"x_min":78,"x_max":785,"o":"m 273 -161 q 283 -156 275 -161 q 296 -148 292 -151 q 309 -141 300 -146 q 322 -132 317 -136 q 334 -123 327 -129 q 345 -114 341 -118 q 354 -105 349 -110 q 360 -96 358 -100 q 361 -86 361 -91 q 360 -63 361 -71 q 353 -40 359 -54 q 332 -11 346 -25 l 442 50 q 515 -90 515 -15 q 504 -131 515 -111 q 479 -165 492 -151 q 439 -196 467 -178 q 400 -221 412 -214 q 359 -242 389 -227 q 356 -244 357 -243 q 353 -246 355 -245 q 349 -248 351 -247 l 273 -161 m 260 559 l 308 559 q 397 561 361 559 q 467 571 433 564 q 520 593 500 579 q 551 632 539 608 q 562 691 562 656 q 551 750 562 726 q 520 789 539 774 q 467 812 500 804 q 397 822 433 820 q 308 825 361 825 l 260 825 l 260 559 m 578 -1 l 361 395 q 321 393 344 393 q 288 394 310 393 q 260 394 267 394 l 260 -1 l 78 -1 l 78 987 l 260 987 q 348 986 313 987 q 438 979 382 985 q 533 962 495 973 q 615 929 570 951 q 686 877 659 907 q 730 799 712 846 q 748 691 748 751 q 696 520 748 588 q 541 425 644 452 l 785 -1 l 578 -1 z "},"ŗ":{"ha":582,"x_min":83,"x_max":565,"o":"m 83 -161 q 94 -156 85 -161 q 106 -148 102 -151 q 119 -141 110 -146 q 132 -132 127 -136 q 144 -123 137 -129 q 155 -114 151 -118 q 164 -105 159 -110 q 170 -96 168 -100 q 172 -86 172 -91 q 171 -63 172 -71 q 163 -40 170 -54 q 142 -11 156 -25 l 252 50 q 326 -90 326 -15 q 314 -131 326 -111 q 290 -165 302 -151 q 250 -196 277 -178 q 211 -221 222 -214 q 170 -242 199 -227 q 166 -244 168 -243 q 163 -246 165 -245 q 159 -248 161 -247 l 83 -161 m 499 547 q 393 589 426 589 q 328 569 356 589 q 286 516 300 549 q 264 448 271 484 q 258 375 258 413 l 258 0 l 83 0 l 83 728 l 258 728 l 258 618 q 336 710 286 673 q 427 747 385 747 q 498 729 460 747 q 565 684 536 711 l 499 547 z "},"Ř":{"ha":821,"x_min":78,"x_max":785,"o":"m 636 1290 l 444 1057 l 283 1057 l 91 1288 l 279 1288 l 363 1181 l 452 1290 l 636 1290 m 260 559 l 308 559 q 397 561 361 559 q 467 571 433 564 q 520 593 500 579 q 551 632 539 608 q 562 691 562 656 q 551 750 562 726 q 520 789 539 774 q 467 812 500 804 q 397 822 433 820 q 308 825 361 825 l 260 825 l 260 559 m 578 -1 l 361 395 q 321 393 344 393 q 288 394 310 393 q 260 394 267 394 l 260 -1 l 78 -1 l 78 987 l 260 987 q 348 986 313 987 q 438 979 382 985 q 533 962 495 973 q 615 929 570 951 q 686 877 659 907 q 730 799 712 846 q 748 691 748 751 q 696 520 748 588 q 541 425 644 452 l 785 -1 l 578 -1 z "},"ř":{"ha":582,"x_min":52,"x_max":597,"o":"m 597 987 l 405 754 l 245 754 l 52 985 l 240 985 l 324 878 l 414 987 l 597 987 m 499 547 q 393 589 426 589 q 328 569 356 589 q 286 516 300 549 q 264 448 271 484 q 258 375 258 413 l 258 0 l 83 0 l 83 728 l 258 728 l 258 618 q 336 710 286 673 q 427 747 385 747 q 498 729 460 747 q 565 684 536 711 l 499 547 z "},"Ś":{"ha":815,"x_min":56,"x_max":764,"o":"m 406 1040 q 397 1036 401 1036 q 391 1038 396 1036 q 366 1051 378 1041 q 345 1072 353 1062 q 331 1103 337 1082 q 327 1126 327 1116 q 328 1136 327 1129 q 334 1145 330 1141 l 525 1312 q 545 1319 532 1319 q 557 1317 551 1319 q 587 1303 573 1313 q 610 1280 600 1293 q 627 1245 622 1267 q 629 1222 629 1234 q 627 1204 629 1213 q 615 1184 624 1191 l 406 1040 m 56 274 l 238 303 q 300 190 255 235 q 420 144 346 144 q 537 180 496 144 q 578 274 578 216 q 565 331 578 305 q 533 373 552 356 q 481 406 513 389 q 420 433 449 422 q 349 461 391 444 q 275 492 306 478 q 207 530 235 512 q 150 577 179 548 q 106 646 121 606 q 92 739 92 687 q 119 859 92 806 q 193 945 146 912 q 298 995 240 978 q 420 1012 356 1012 q 622 953 534 1012 q 739 804 709 894 l 553 770 q 420 848 520 848 q 317 823 357 848 q 277 739 277 798 q 296 689 277 712 q 348 648 314 666 q 413 617 381 630 q 488 588 446 604 q 552 562 530 572 q 620 526 591 543 q 677 483 649 508 q 724 428 706 457 q 753 360 742 399 q 764 274 764 321 q 665 60 764 140 q 420 -20 567 -20 q 177 61 279 -20 q 56 274 76 142 z "},"ś":{"ha":650,"x_min":53,"x_max":600,"o":"m 330 804 q 321 800 326 800 q 315 802 320 800 q 290 815 302 805 q 269 836 277 826 q 255 867 261 846 q 251 890 251 880 q 252 900 251 893 q 258 909 254 905 l 449 1076 q 469 1083 456 1083 q 481 1081 475 1083 q 511 1067 497 1077 q 534 1044 524 1057 q 551 1009 546 1031 q 553 986 553 998 q 551 968 553 977 q 539 948 548 955 l 330 804 m 232 333 q 167 371 191 355 q 123 412 144 387 q 93 470 102 437 q 84 549 84 503 q 152 693 84 640 q 335 746 220 746 q 511 685 441 746 q 593 543 580 624 l 430 514 q 399 574 422 558 q 338 590 376 590 q 275 578 297 590 q 252 531 252 566 q 269 492 252 509 q 308 468 286 476 q 374 442 330 459 q 451 410 418 425 q 565 320 529 372 q 600 183 600 269 q 520 38 600 96 q 329 -20 441 -20 q 147 39 219 -20 q 53 197 75 97 l 210 223 q 251 159 218 182 q 328 136 284 136 q 368 138 351 136 q 400 146 384 140 q 424 166 416 153 q 432 200 432 180 q 421 234 432 218 q 388 261 410 249 q 343 283 366 273 q 287 307 320 293 q 232 333 254 321 z "},"Ŝ":{"ha":815,"x_min":56,"x_max":764,"o":"m 681 1059 l 497 1059 l 408 1168 l 323 1061 l 136 1061 l 328 1293 l 488 1293 l 681 1059 m 56 274 l 238 303 q 300 190 255 235 q 420 144 346 144 q 537 180 496 144 q 578 274 578 216 q 565 331 578 305 q 533 373 552 356 q 481 406 513 389 q 420 433 449 422 q 349 461 391 444 q 275 492 306 478 q 207 530 235 512 q 150 577 179 548 q 106 646 121 606 q 92 739 92 687 q 119 859 92 806 q 193 945 146 912 q 298 995 240 978 q 420 1012 356 1012 q 622 953 534 1012 q 739 804 709 894 l 553 770 q 420 848 520 848 q 317 823 357 848 q 277 739 277 798 q 296 689 277 712 q 348 648 314 666 q 413 617 381 630 q 488 588 446 604 q 552 562 530 572 q 620 526 591 543 q 677 483 649 508 q 724 428 706 457 q 753 360 742 399 q 764 274 764 321 q 665 60 764 140 q 420 -20 567 -20 q 177 61 279 -20 q 56 274 76 142 z "},"ŝ":{"ha":650,"x_min":53,"x_max":612,"o":"m 612 776 l 429 776 l 339 885 l 255 778 l 67 778 l 260 1009 l 420 1009 l 612 776 m 232 333 q 167 371 191 355 q 123 412 144 387 q 93 470 102 437 q 84 549 84 503 q 152 693 84 640 q 335 746 220 746 q 511 685 441 746 q 593 543 580 624 l 430 514 q 399 574 422 558 q 338 590 376 590 q 275 578 297 590 q 252 531 252 566 q 269 492 252 509 q 308 468 286 476 q 374 442 330 459 q 451 410 418 425 q 565 320 529 372 q 600 183 600 269 q 520 38 600 96 q 329 -20 441 -20 q 147 39 219 -20 q 53 197 75 97 l 210 223 q 251 159 218 182 q 328 136 284 136 q 368 138 351 136 q 400 146 384 140 q 424 166 416 153 q 432 200 432 180 q 421 234 432 218 q 388 261 410 249 q 343 283 366 273 q 287 307 320 293 q 232 333 254 321 z "},"Ş":{"ha":815,"x_min":56,"x_max":764,"o":"m 273 -161 q 283 -156 275 -161 q 296 -148 292 -151 q 309 -141 300 -146 q 322 -132 317 -136 q 334 -123 327 -129 q 345 -114 341 -118 q 354 -105 349 -110 q 360 -96 358 -100 q 361 -86 361 -91 q 360 -63 361 -71 q 353 -40 359 -54 q 332 -11 346 -25 l 442 50 q 515 -90 515 -15 q 504 -131 515 -111 q 479 -165 492 -151 q 439 -196 467 -178 q 400 -221 412 -214 q 359 -242 389 -227 q 356 -244 357 -243 q 353 -246 355 -245 q 349 -248 351 -247 l 273 -161 m 56 274 l 238 303 q 300 190 255 235 q 420 144 346 144 q 537 180 496 144 q 578 274 578 216 q 565 331 578 305 q 533 373 552 356 q 481 406 513 389 q 420 433 449 422 q 349 461 391 444 q 275 492 306 478 q 207 530 235 512 q 150 577 179 548 q 106 646 121 606 q 92 739 92 687 q 119 859 92 806 q 193 945 146 912 q 298 995 240 978 q 420 1012 356 1012 q 622 953 534 1012 q 739 804 709 894 l 553 770 q 420 848 520 848 q 317 823 357 848 q 277 739 277 798 q 296 689 277 712 q 348 648 314 666 q 413 617 381 630 q 488 588 446 604 q 552 562 530 572 q 620 526 591 543 q 677 483 649 508 q 724 428 706 457 q 753 360 742 399 q 764 274 764 321 q 665 60 764 140 q 420 -20 567 -20 q 177 61 279 -20 q 56 274 76 142 z "},"ş":{"ha":650,"x_min":53,"x_max":600,"o":"m 188 -161 q 199 -156 190 -161 q 211 -148 208 -151 q 224 -141 215 -146 q 237 -132 233 -136 q 249 -123 242 -129 q 260 -114 256 -118 q 269 -105 264 -110 q 275 -96 273 -100 q 277 -86 277 -91 q 276 -63 277 -71 q 268 -40 275 -54 q 248 -11 261 -25 l 357 50 q 431 -90 431 -15 q 419 -131 431 -111 q 395 -165 408 -151 q 355 -196 382 -178 q 316 -221 328 -214 q 275 -242 304 -227 q 271 -244 273 -243 q 268 -246 270 -245 q 264 -248 266 -247 l 188 -161 m 232 333 q 167 371 191 355 q 123 412 144 387 q 93 470 102 437 q 84 549 84 503 q 152 693 84 640 q 335 746 220 746 q 511 685 441 746 q 593 543 580 624 l 430 514 q 399 574 422 558 q 338 590 376 590 q 275 578 297 590 q 252 531 252 566 q 269 492 252 509 q 308 468 286 476 q 374 442 330 459 q 451 410 418 425 q 565 320 529 372 q 600 183 600 269 q 520 38 600 96 q 329 -20 441 -20 q 147 39 219 -20 q 53 197 75 97 l 210 223 q 251 159 218 182 q 328 136 284 136 q 368 138 351 136 q 400 146 384 140 q 424 166 416 153 q 432 200 432 180 q 421 234 432 218 q 388 261 410 249 q 343 283 366 273 q 287 307 320 293 q 232 333 254 321 z "},"Š":{"ha":815,"x_min":56,"x_max":764,"o":"m 718 1293 l 525 1059 l 365 1059 l 172 1291 l 360 1291 l 444 1183 l 534 1293 l 718 1293 m 56 274 l 238 303 q 300 190 255 235 q 420 144 346 144 q 537 180 496 144 q 578 274 578 216 q 565 331 578 305 q 533 373 552 356 q 481 406 513 389 q 420 433 449 422 q 349 461 391 444 q 275 492 306 478 q 207 530 235 512 q 150 577 179 548 q 106 646 121 606 q 92 739 92 687 q 119 859 92 806 q 193 945 146 912 q 298 995 240 978 q 420 1012 356 1012 q 622 953 534 1012 q 739 804 709 894 l 553 770 q 420 848 520 848 q 317 823 357 848 q 277 739 277 798 q 296 689 277 712 q 348 648 314 666 q 413 617 381 630 q 488 588 446 604 q 552 562 530 572 q 620 526 591 543 q 677 483 649 508 q 724 428 706 457 q 753 360 742 399 q 764 274 764 321 q 665 60 764 140 q 420 -20 567 -20 q 177 61 279 -20 q 56 274 76 142 z "},"š":{"ha":650,"x_min":53,"x_max":610,"o":"m 610 988 l 417 755 l 257 755 l 64 986 l 252 986 l 336 879 l 426 988 l 610 988 m 232 333 q 167 371 191 355 q 123 412 144 387 q 93 470 102 437 q 84 549 84 503 q 152 693 84 640 q 335 746 220 746 q 511 685 441 746 q 593 543 580 624 l 430 514 q 399 574 422 558 q 338 590 376 590 q 275 578 297 590 q 252 531 252 566 q 269 492 252 509 q 308 468 286 476 q 374 442 330 459 q 451 410 418 425 q 565 320 529 372 q 600 183 600 269 q 520 38 600 96 q 329 -20 441 -20 q 147 39 219 -20 q 53 197 75 97 l 210 223 q 251 159 218 182 q 328 136 284 136 q 368 138 351 136 q 400 146 384 140 q 424 166 416 153 q 432 200 432 180 q 421 234 432 218 q 388 261 410 249 q 343 283 366 273 q 287 307 320 293 q 232 333 254 321 z "},"Ţ":{"ha":918,"x_min":53,"x_max":868,"o":"m 326 -161 q 336 -156 328 -161 q 349 -148 345 -151 q 361 -141 353 -146 q 375 -132 370 -136 q 387 -123 380 -129 q 398 -114 394 -118 q 407 -105 402 -110 q 413 -96 411 -100 q 414 -86 414 -91 q 413 -63 414 -71 q 406 -40 412 -54 q 385 -11 399 -25 l 495 50 q 568 -90 568 -15 q 557 -131 568 -111 q 532 -165 545 -151 q 492 -196 519 -178 q 453 -221 465 -214 q 412 -242 441 -227 q 409 -244 410 -243 q 406 -246 408 -245 q 402 -248 404 -247 l 326 -161 m 53 987 l 868 987 l 868 825 l 558 825 l 558 0 l 376 0 l 376 825 l 53 825 l 53 987 z "},"ţ":{"ha":479,"x_min":49,"x_max":424,"o":"m 116 -161 q 127 -156 118 -161 q 139 -148 136 -151 q 152 -141 143 -146 q 165 -132 161 -136 q 177 -123 170 -129 q 189 -114 184 -118 q 197 -105 193 -110 q 203 -96 201 -100 q 205 -86 205 -91 q 204 -63 205 -71 q 196 -40 203 -54 q 176 -11 189 -25 l 286 50 q 359 -90 359 -15 q 347 -131 359 -111 q 323 -165 336 -151 q 283 -196 310 -178 q 244 -221 256 -214 q 203 -242 232 -227 q 199 -244 201 -243 q 196 -246 198 -245 q 193 -248 194 -247 l 116 -161 m 144 572 l 49 572 l 49 728 l 144 728 l 144 897 l 319 897 l 319 728 l 424 728 l 424 572 l 319 572 l 319 201 q 395 137 319 137 l 421 137 l 421 -10 l 395 -10 q 274 2 322 -10 q 197 42 225 15 q 156 106 168 68 q 144 199 144 144 l 144 572 z "},"Ť":{"ha":918,"x_min":53,"x_max":868,"o":"m 744 1294 l 551 1061 l 391 1061 l 199 1292 l 387 1292 l 471 1185 l 560 1294 l 744 1294 m 53 987 l 868 987 l 868 825 l 558 825 l 558 0 l 376 0 l 376 825 l 53 825 l 53 987 z "},"ť":{"ha":600,"x_min":49,"x_max":578,"o":"m 578 939 q 568 876 578 907 q 543 820 557 844 q 515 779 530 797 q 493 754 500 761 l 458 777 q 471 810 462 785 q 479 844 479 832 q 478 849 479 848 q 439 878 456 855 q 423 939 423 902 q 446 1000 423 972 q 498 1027 468 1027 q 557 1000 536 1027 q 578 939 578 972 m 144 572 l 49 572 l 49 728 l 144 728 l 144 897 l 319 897 l 319 728 l 424 728 l 424 572 l 319 572 l 319 201 q 395 137 319 137 l 421 137 l 421 -10 l 395 -10 q 274 2 322 -10 q 197 42 225 15 q 156 106 168 68 q 144 199 144 144 l 144 572 z "},"Ŧ":{"ha":918,"x_min":53,"x_max":868,"o":"m 53 987 l 868 987 l 868 825 l 558 825 l 558 511 l 724 511 l 724 349 l 558 349 l 558 0 l 376 0 l 376 349 l 201 349 l 201 511 l 376 511 l 376 825 l 53 825 l 53 987 z "},"ŧ":{"ha":479,"x_min":27,"x_max":444,"o":"m 144 572 l 49 572 l 49 728 l 144 728 l 144 897 l 319 897 l 319 728 l 424 728 l 424 572 l 319 572 l 319 511 l 444 511 l 444 349 l 319 349 l 319 201 q 395 137 319 137 l 421 137 l 421 -10 l 395 -10 q 274 2 322 -10 q 197 42 225 15 q 156 106 168 68 q 144 199 144 144 l 144 349 l 27 349 l 27 511 l 144 511 l 144 572 z "},"Ũ":{"ha":913,"x_min":78,"x_max":787,"o":"m 227 1227 q 245 1244 234 1233 q 269 1263 257 1255 q 292 1279 271 1265 q 321 1293 307 1289 q 351 1297 338 1297 q 389 1287 370 1297 q 426 1261 409 1276 q 443 1246 435 1254 q 460 1230 451 1238 q 498 1204 477 1215 q 538 1194 518 1194 q 586 1208 559 1194 q 623 1234 608 1221 q 659 1267 647 1256 l 659 1090 q 637 1073 656 1088 q 609 1051 627 1065 q 578 1035 597 1043 q 538 1027 557 1027 q 483 1043 511 1027 q 435 1078 455 1059 q 391 1114 416 1095 q 349 1130 368 1130 q 313 1123 329 1130 q 285 1109 292 1115 q 255 1086 279 1105 q 227 1064 236 1072 l 227 1227 m 432 -24 q 238 31 319 -24 q 118 179 157 85 q 78 397 78 273 l 78 987 l 260 987 l 260 397 q 269 304 260 348 q 296 222 277 261 q 350 161 315 184 q 432 139 385 139 q 500 154 470 139 q 550 194 530 170 q 582 253 569 219 q 600 323 595 288 q 605 397 605 359 l 605 987 l 787 987 l 787 397 q 747 179 787 273 q 626 31 707 85 q 432 -24 545 -24 z "},"ũ":{"ha":754,"x_min":73,"x_max":680,"o":"m 161 1013 q 180 1029 169 1018 q 203 1048 192 1040 q 227 1064 206 1050 q 256 1078 242 1074 q 286 1082 273 1082 q 323 1072 304 1082 q 361 1046 344 1061 q 378 1031 370 1039 q 395 1015 386 1023 q 433 989 412 1000 q 473 979 453 979 q 521 994 494 979 q 557 1019 543 1006 q 593 1052 582 1041 l 593 876 q 572 858 591 873 q 544 836 562 850 q 513 820 532 828 q 473 812 492 812 q 418 828 446 812 q 370 863 390 844 q 326 899 351 880 q 283 915 302 915 q 248 908 264 915 q 220 895 227 900 q 190 871 214 890 q 161 849 171 857 l 161 1013 m 680 0 l 505 0 l 505 109 q 416 17 475 54 q 290 -20 357 -20 q 132 78 190 -20 q 73 363 73 175 l 73 728 l 248 728 l 248 363 q 256 269 248 310 q 276 204 264 228 q 304 165 288 180 q 337 145 321 150 q 370 140 353 140 q 406 145 389 140 q 441 165 422 151 q 473 204 459 180 q 496 270 487 229 q 505 364 505 311 l 505 728 l 680 728 l 680 0 z "},"Ū":{"ha":913,"x_min":78,"x_max":787,"o":"m 170 1230 l 694 1230 l 694 1143 l 170 1143 l 170 1230 m 432 -24 q 238 31 319 -24 q 118 179 157 85 q 78 397 78 273 l 78 987 l 260 987 l 260 397 q 269 304 260 348 q 296 222 277 261 q 350 161 315 184 q 432 139 385 139 q 500 154 470 139 q 550 194 530 170 q 582 253 569 219 q 600 323 595 288 q 605 397 605 359 l 605 987 l 787 987 l 787 397 q 747 179 787 273 q 626 31 707 85 q 432 -24 545 -24 z "},"ū":{"ha":754,"x_min":73,"x_max":680,"o":"m 124 961 l 648 961 l 648 875 l 124 875 l 124 961 m 680 0 l 505 0 l 505 109 q 416 17 475 54 q 290 -20 357 -20 q 132 78 190 -20 q 73 363 73 175 l 73 728 l 248 728 l 248 363 q 256 269 248 310 q 276 204 264 228 q 304 165 288 180 q 337 145 321 150 q 370 140 353 140 q 406 145 389 140 q 441 165 422 151 q 473 204 459 180 q 496 270 487 229 q 505 364 505 311 l 505 728 l 680 728 l 680 0 z "},"Ŭ":{"ha":913,"x_min":78,"x_max":787,"o":"m 486 1199 q 572 1317 518 1222 l 679 1317 q 680 1296 680 1310 q 632 1137 680 1217 q 549 1059 605 1090 q 441 1028 496 1028 q 334 1059 387 1028 q 251 1137 278 1090 q 203 1296 203 1217 q 204 1317 203 1310 l 313 1317 q 396 1200 351 1230 q 444 1188 411 1190 q 486 1199 473 1190 m 432 -24 q 238 31 319 -24 q 118 179 157 85 q 78 397 78 273 l 78 987 l 260 987 l 260 397 q 269 304 260 348 q 296 222 277 261 q 350 161 315 184 q 432 139 385 139 q 500 154 470 139 q 550 194 530 170 q 582 253 569 219 q 600 323 595 288 q 605 397 605 359 l 605 987 l 787 987 l 787 397 q 747 179 787 273 q 626 31 707 85 q 432 -24 545 -24 z "},"ŭ":{"ha":754,"x_min":73,"x_max":680,"o":"m 412 964 q 498 1082 444 987 l 604 1082 q 605 1061 605 1076 q 557 902 605 982 q 474 824 530 856 q 367 793 421 793 q 260 824 313 793 q 176 902 203 856 q 129 1061 129 982 q 130 1082 129 1076 l 239 1082 q 321 965 277 995 q 370 954 336 955 q 412 964 398 955 m 680 0 l 505 0 l 505 109 q 416 17 475 54 q 290 -20 357 -20 q 132 78 190 -20 q 73 363 73 175 l 73 728 l 248 728 l 248 363 q 256 269 248 310 q 276 204 264 228 q 304 165 288 180 q 337 145 321 150 q 370 140 353 140 q 406 145 389 140 q 441 165 422 151 q 473 204 459 180 q 496 270 487 229 q 505 364 505 311 l 505 728 l 680 728 l 680 0 z "},"Ů":{"ha":913,"x_min":78,"x_max":787,"o":"m 394 1217 q 374 1164 374 1195 q 394 1113 374 1134 q 444 1092 414 1092 q 494 1113 474 1092 q 515 1164 515 1134 q 494 1217 515 1195 q 444 1238 474 1238 q 394 1217 414 1238 m 334 1057 q 289 1164 289 1101 q 334 1272 289 1227 q 444 1317 380 1317 q 554 1272 509 1317 q 600 1164 600 1227 q 554 1057 600 1102 q 444 1013 510 1013 q 334 1057 379 1013 m 432 -24 q 238 31 319 -24 q 118 179 157 85 q 78 397 78 273 l 78 987 l 260 987 l 260 397 q 269 304 260 348 q 296 222 277 261 q 350 161 315 184 q 432 139 385 139 q 500 154 470 139 q 550 194 530 170 q 582 253 569 219 q 600 323 595 288 q 605 397 605 359 l 605 987 l 787 987 l 787 397 q 747 179 787 273 q 626 31 707 85 q 432 -24 545 -24 z "},"ů":{"ha":754,"x_min":73,"x_max":680,"o":"m 326 983 q 305 930 305 961 q 326 879 305 900 q 376 858 346 858 q 426 879 406 858 q 446 930 446 900 q 426 983 446 961 q 376 1004 406 1004 q 326 983 346 1004 m 266 823 q 220 930 220 867 q 266 1038 220 994 q 376 1083 311 1083 q 486 1038 441 1083 q 531 930 531 993 q 486 823 531 868 q 376 779 441 779 q 266 823 311 779 m 680 0 l 505 0 l 505 109 q 416 17 475 54 q 290 -20 357 -20 q 132 78 190 -20 q 73 363 73 175 l 73 728 l 248 728 l 248 363 q 256 269 248 310 q 276 204 264 228 q 304 165 288 180 q 337 145 321 150 q 370 140 353 140 q 406 145 389 140 q 441 165 422 151 q 473 204 459 180 q 496 270 487 229 q 505 364 505 311 l 505 728 l 680 728 l 680 0 z "},"Ű":{"ha":880,"x_min":78,"x_max":787,"o":"m 593 1013 q 578 1006 589 1006 q 551 1013 566 1006 q 526 1028 538 1019 q 505 1054 516 1035 q 493 1086 493 1073 q 496 1095 493 1092 l 637 1307 q 667 1320 646 1320 q 699 1313 680 1320 q 728 1298 718 1307 q 753 1268 741 1289 q 764 1229 764 1247 q 758 1206 764 1215 l 593 1013 m 330 1013 q 315 1006 324 1006 q 288 1013 302 1006 q 262 1028 274 1019 q 240 1054 252 1036 q 229 1086 229 1072 q 232 1095 229 1092 l 374 1307 q 404 1320 382 1320 q 435 1313 416 1320 q 464 1298 454 1307 q 490 1268 478 1289 q 500 1229 500 1249 q 494 1206 500 1215 l 330 1013 m 432 -24 q 238 31 319 -24 q 118 179 157 85 q 78 397 78 273 l 78 987 l 260 987 l 260 397 q 269 304 260 348 q 296 222 277 261 q 350 161 315 184 q 432 139 385 139 q 500 154 470 139 q 550 194 530 170 q 582 253 569 219 q 600 323 595 288 q 605 397 605 359 l 605 987 l 787 987 l 787 397 q 747 179 787 273 q 626 31 707 85 q 432 -24 545 -24 z "},"ű":{"ha":694,"x_min":73,"x_max":718,"o":"m 547 785 q 532 779 542 779 q 505 785 519 779 q 479 800 491 791 q 458 826 469 807 q 446 858 446 845 q 449 867 446 864 l 591 1079 q 621 1092 600 1092 q 652 1085 633 1092 q 681 1070 671 1079 q 706 1040 694 1061 q 718 1001 718 1019 q 711 979 718 987 l 547 785 m 283 785 q 268 779 277 779 q 241 785 255 779 q 215 800 227 791 q 193 826 205 808 q 182 858 182 844 q 185 867 182 864 l 327 1079 q 357 1092 336 1092 q 389 1085 370 1092 q 417 1070 407 1079 q 443 1040 431 1061 q 454 1001 454 1021 q 447 979 454 987 l 283 785 m 680 0 l 505 0 l 505 109 q 416 17 475 54 q 290 -20 357 -20 q 132 78 190 -20 q 73 363 73 175 l 73 728 l 248 728 l 248 363 q 256 269 248 310 q 276 204 264 228 q 304 165 288 180 q 337 145 321 150 q 370 140 353 140 q 406 145 389 140 q 441 165 422 151 q 473 204 459 180 q 496 270 487 229 q 505 364 505 311 l 505 728 l 680 728 l 680 0 z "},"Ų":{"ha":913,"x_min":78,"x_max":787,"o":"m 585 -147 l 508 -233 q 475 -216 498 -229 q 438 -195 475 -216 q 403 -171 421 -186 q 372 -143 380 -152 q 350 -111 358 -128 q 342 -76 342 -94 q 415 64 342 -1 l 525 3 q 505 -26 513 -10 q 496 -49 498 -40 q 496 -72 496 -54 q 506 -93 496 -81 q 529 -114 518 -106 q 557 -132 543 -123 q 585 -147 575 -143 m 432 -24 q 238 31 319 -24 q 118 179 157 85 q 78 397 78 273 l 78 987 l 260 987 l 260 397 q 269 304 260 348 q 296 222 277 261 q 350 161 315 184 q 432 139 385 139 q 500 154 470 139 q 550 194 530 170 q 582 253 569 219 q 600 323 595 288 q 605 397 605 359 l 605 987 l 787 987 l 787 397 q 747 179 787 273 q 626 31 707 85 q 432 -24 545 -24 z "},"ų":{"ha":754,"x_min":73,"x_max":736,"o":"m 736 -147 l 660 -233 q 627 -216 650 -229 q 590 -195 627 -216 q 555 -171 573 -186 q 524 -143 532 -152 q 502 -111 510 -128 q 494 -76 494 -94 q 567 64 494 -1 l 677 3 q 656 -26 665 -10 q 648 -49 650 -40 q 648 -72 648 -54 q 658 -93 648 -81 q 681 -114 670 -106 q 709 -132 694 -123 q 736 -147 727 -143 m 680 0 l 505 0 l 505 109 q 416 17 475 54 q 290 -20 357 -20 q 132 78 190 -20 q 73 363 73 175 l 73 728 l 248 728 l 248 363 q 256 269 248 310 q 276 204 264 228 q 304 165 288 180 q 337 145 321 150 q 370 140 353 140 q 406 145 389 140 q 441 165 422 151 q 473 204 459 180 q 496 270 487 229 q 505 364 505 311 l 505 728 l 680 728 l 680 0 z "},"Ŵ":{"ha":1132,"x_min":50,"x_max":1048,"o":"m 842 1059 l 658 1059 l 568 1168 l 484 1061 l 296 1061 l 489 1293 l 649 1293 l 842 1059 m 50 987 l 234 987 l 320 338 l 443 969 l 656 969 l 779 334 l 865 987 l 1048 987 l 887 0 l 670 0 l 549 661 l 429 0 l 212 0 l 50 987 z "},"ŵ":{"ha":983,"x_min":39,"x_max":939,"o":"m 759 777 l 575 777 l 486 886 l 401 779 l 214 779 l 406 1010 l 566 1010 l 759 777 m 485 450 l 389 0 l 252 0 l 39 728 l 212 728 l 326 274 l 414 730 l 571 730 l 659 276 l 774 728 l 939 728 l 726 0 l 577 0 l 485 450 z "},"Ŷ":{"ha":891,"x_min":45,"x_max":854,"o":"m 718 1059 l 534 1059 l 444 1168 l 360 1061 l 172 1061 l 365 1293 l 525 1293 l 718 1059 m 45 987 l 276 987 l 450 665 l 623 987 l 854 987 l 541 468 l 541 0 l 359 0 l 359 468 l 45 987 z "},"ŷ":{"ha":750,"x_min":73,"x_max":680,"o":"m 648 776 l 464 776 l 374 885 l 290 778 l 102 778 l 295 1009 l 455 1009 l 648 776 m 680 -20 q 653 -127 680 -73 q 583 -223 626 -182 q 485 -290 541 -264 q 376 -315 430 -315 q 201 -268 275 -315 q 95 -152 127 -220 l 233 -76 q 282 -135 246 -113 q 372 -158 319 -158 q 467 -126 429 -158 q 505 -40 505 -94 l 505 109 q 416 17 475 54 q 290 -20 357 -20 q 132 78 190 -20 q 73 363 73 175 l 73 728 l 248 728 l 248 363 q 256 269 248 310 q 276 204 264 228 q 304 165 288 180 q 337 145 321 150 q 370 140 353 140 q 406 145 389 140 q 441 165 422 151 q 473 204 459 180 q 496 270 487 229 q 505 364 505 311 l 505 728 l 680 728 l 680 20 l 680 -20 z "},"Ÿ":{"ha":891,"x_min":45,"x_max":854,"o":"m 180 1192 q 212 1270 180 1238 q 291 1303 245 1303 q 370 1270 337 1303 q 402 1192 402 1238 q 370 1113 402 1145 q 291 1080 337 1080 q 212 1114 245 1080 q 180 1192 180 1146 m 499 1192 q 532 1270 499 1238 q 610 1303 564 1303 q 689 1270 656 1303 q 722 1192 722 1238 q 689 1113 722 1145 q 610 1080 656 1080 q 532 1114 565 1080 q 499 1192 499 1146 m 45 987 l 276 987 l 450 665 l 623 987 l 854 987 l 541 468 l 541 0 l 359 0 l 359 468 l 45 987 z "},"Ź":{"ha":961,"x_min":49,"x_max":886,"o":"m 468 1040 q 459 1036 463 1036 q 452 1038 458 1036 q 428 1051 440 1041 q 407 1072 415 1062 q 393 1103 399 1082 q 389 1126 389 1116 q 390 1136 389 1129 q 395 1145 391 1141 l 587 1312 q 606 1319 594 1319 q 619 1317 612 1319 q 648 1303 635 1313 q 672 1280 661 1293 q 688 1245 684 1267 q 691 1222 691 1234 q 689 1204 691 1213 q 677 1184 686 1191 l 468 1040 m 94 987 l 886 987 l 358 163 l 882 163 l 882 0 l 49 0 l 578 825 l 94 825 l 94 987 z "},"ź":{"ha":682,"x_min":45,"x_max":625,"o":"m 311 804 q 302 800 307 800 q 296 802 301 800 q 271 815 283 805 q 250 836 258 826 q 236 867 242 846 q 232 890 232 880 q 233 900 232 893 q 239 909 235 905 l 430 1076 q 450 1083 437 1083 q 463 1081 456 1083 q 492 1067 478 1077 q 515 1044 505 1057 q 532 1009 527 1031 q 534 986 534 998 q 532 968 534 977 q 520 948 529 955 l 311 804 m 328 163 l 603 163 l 603 0 l 45 0 l 340 566 l 78 566 l 78 728 l 625 728 l 328 163 z "},"Ż":{"ha":961,"x_min":49,"x_max":886,"o":"m 382 1156 q 415 1235 382 1202 q 494 1267 448 1267 q 572 1235 540 1267 q 605 1156 605 1202 q 572 1078 605 1110 q 494 1045 540 1045 q 415 1078 448 1045 q 382 1156 382 1111 m 94 987 l 886 987 l 358 163 l 882 163 l 882 0 l 49 0 l 578 825 l 94 825 l 94 987 z "},"ż":{"ha":682,"x_min":45,"x_max":625,"o":"m 239 915 q 272 994 239 961 q 351 1026 304 1026 q 429 994 397 1026 q 462 915 462 961 q 429 836 462 869 q 351 804 397 804 q 272 837 305 804 q 239 915 239 869 m 328 163 l 603 163 l 603 0 l 45 0 l 340 566 l 78 566 l 78 728 l 625 728 l 328 163 z "},"Ž":{"ha":961,"x_min":49,"x_max":886,"o":"m 760 1293 l 568 1059 l 408 1059 l 215 1291 l 403 1291 l 487 1183 l 576 1293 l 760 1293 m 94 987 l 886 987 l 358 163 l 882 163 l 882 0 l 49 0 l 578 825 l 94 825 l 94 987 z "},"ž":{"ha":682,"x_min":45,"x_max":625,"o":"m 625 1010 l 432 777 l 272 777 l 79 1008 l 267 1008 l 351 901 l 441 1010 l 625 1010 m 328 163 l 603 163 l 603 0 l 45 0 l 340 566 l 78 566 l 78 728 l 625 728 l 328 163 z "},"ſ":{"ha":530,"x_min":144,"x_max":536,"o":"m 144 728 l 144 782 q 163 856 144 817 q 213 930 179 892 q 289 987 244 965 q 382 1010 334 1010 q 536 949 473 1010 l 435 828 q 406 848 425 840 q 375 854 388 854 q 332 840 346 854 q 319 795 319 827 l 319 728 l 319 0 l 144 0 l 144 728 z "},"ƒ":{"ha":869,"x_min":19,"x_max":827,"o":"m 505 585 l 206 -228 l 19 -228 l 323 593 l 218 595 l 271 741 l 377 738 l 407 827 q 450 890 417 857 q 522 943 481 921 q 612 970 566 966 q 673 974 652 974 q 722 968 705 974 q 827 898 809 937 l 825 738 q 765 811 812 781 q 665 836 739 828 q 661 836 665 836 q 604 817 640 836 q 576 780 589 810 l 553 728 l 682 728 l 629 583 l 505 585 z "},"Ǣ":{"ha":1065,"x_min":7,"x_max":1000,"o":"m 425 1215 l 949 1215 l 949 1053 l 425 1053 l 425 1215 m 556 405 l 367 405 l 209 0 l 7 0 l 397 989 l 1000 989 l 1000 816 l 736 816 l 736 570 l 1000 570 l 1000 400 l 735 400 l 735 170 l 1000 170 l 1000 0 l 556 0 l 556 405 m 556 873 l 421 570 l 556 570 l 556 873 z "},"ǣ":{"ha":1142,"x_min":50,"x_max":1091,"o":"m 306 958 l 830 958 l 830 795 l 306 795 l 306 958 m 641 286 q 728 146 652 178 q 781 136 750 136 q 897 207 865 136 l 1058 160 q 892 1 1015 48 q 781 -20 835 -20 q 543 98 638 -20 q 496 50 517 71 q 342 -20 440 -20 q 119 77 206 -20 q 50 257 50 153 q 151 469 50 389 q 339 531 229 531 q 458 496 424 531 q 405 592 458 559 q 340 609 376 609 q 200 584 271 609 q 175 576 182 578 l 139 709 q 254 745 224 741 q 339 748 281 748 q 567 656 498 748 q 781 745 658 745 q 1018 618 929 745 q 1091 364 1091 515 l 1091 286 l 641 286 m 342 377 q 222 304 252 377 q 214 256 214 282 q 275 151 214 184 q 342 136 304 136 q 445 195 408 136 q 462 256 462 223 q 396 367 462 337 q 342 377 373 377 m 641 442 l 922 442 q 850 572 914 533 q 781 589 821 589 q 658 505 696 589 q 641 442 644 476 z "},"Ș":{"ha":815,"x_min":56,"x_max":764,"o":"m 56 274 l 238 303 q 300 190 255 235 q 420 144 346 144 q 537 180 496 144 q 578 274 578 216 q 565 331 578 305 q 533 373 552 356 q 481 406 513 389 q 420 433 449 422 q 349 461 391 444 q 275 492 306 478 q 207 530 235 512 q 150 577 179 548 q 106 646 121 606 q 92 739 92 687 q 119 859 92 806 q 193 945 146 912 q 298 995 240 978 q 420 1012 356 1012 q 622 953 534 1012 q 739 804 709 894 l 553 770 q 420 848 520 848 q 317 823 357 848 q 277 739 277 798 q 296 689 277 712 q 348 648 314 666 q 413 617 381 630 q 488 588 446 604 q 552 562 530 572 q 620 526 591 543 q 677 483 649 508 q 724 428 706 457 q 753 360 742 399 q 764 274 764 321 q 665 60 764 140 q 420 -20 567 -20 q 177 61 279 -20 q 56 274 76 142 m 526 -109 q 511 -188 526 -148 q 476 -258 496 -229 q 437 -309 454 -290 q 404 -341 417 -331 l 354 -312 q 373 -271 364 -294 q 385 -229 385 -243 q 383 -222 385 -226 q 328 -186 351 -214 q 304 -109 304 -158 q 337 -34 304 -68 q 412 0 369 0 q 496 -34 467 0 q 526 -109 526 -69 z "},"ș":{"ha":650,"x_min":53,"x_max":600,"o":"m 232 333 q 167 371 191 355 q 123 412 144 387 q 93 470 102 437 q 84 549 84 503 q 152 693 84 640 q 335 746 220 746 q 511 685 441 746 q 593 543 580 624 l 430 514 q 399 574 422 558 q 338 590 376 590 q 275 578 297 590 q 252 531 252 566 q 269 492 252 509 q 308 468 286 476 q 374 442 330 459 q 451 410 418 425 q 565 320 529 372 q 600 183 600 269 q 520 38 600 96 q 329 -20 441 -20 q 147 39 219 -20 q 53 197 75 97 l 210 223 q 251 159 218 182 q 328 136 284 136 q 368 138 351 136 q 400 146 384 140 q 424 166 416 153 q 432 200 432 180 q 421 234 432 218 q 388 261 410 249 q 343 283 366 273 q 287 307 320 293 q 232 333 254 321 m 431 -109 q 417 -188 431 -148 q 382 -258 402 -229 q 342 -309 359 -290 q 310 -341 323 -331 l 260 -312 q 279 -271 270 -294 q 290 -229 290 -243 q 289 -222 290 -226 q 233 -186 257 -214 q 210 -109 210 -158 q 243 -34 210 -68 q 318 0 275 0 q 401 -34 372 0 q 431 -109 431 -69 z "},"Ț":{"ha":918,"x_min":53,"x_max":868,"o":"m 326 -161 q 336 -156 328 -161 q 349 -148 345 -151 q 361 -141 353 -146 q 375 -132 370 -136 q 387 -123 380 -129 q 398 -114 394 -118 q 407 -105 402 -110 q 413 -96 411 -100 q 414 -86 414 -91 q 413 -63 414 -71 q 406 -40 412 -54 q 385 -11 399 -25 l 495 50 q 568 -90 568 -15 q 557 -131 568 -111 q 532 -165 545 -151 q 492 -196 519 -178 q 453 -221 465 -214 q 412 -242 441 -227 q 409 -244 410 -243 q 406 -246 408 -245 q 402 -248 404 -247 l 326 -161 m 53 987 l 868 987 l 868 825 l 558 825 l 558 0 l 376 0 l 376 825 l 53 825 l 53 987 z "},"ț":{"ha":479,"x_min":49,"x_max":424,"o":"m 116 -161 q 127 -156 118 -161 q 139 -148 136 -151 q 152 -141 143 -146 q 165 -132 161 -136 q 177 -123 170 -129 q 189 -114 184 -118 q 197 -105 193 -110 q 203 -96 201 -100 q 205 -86 205 -91 q 204 -63 205 -71 q 196 -40 203 -54 q 176 -11 189 -25 l 286 50 q 359 -90 359 -15 q 347 -131 359 -111 q 323 -165 336 -151 q 283 -196 310 -178 q 244 -221 256 -214 q 203 -242 232 -227 q 199 -244 201 -243 q 196 -246 198 -245 q 193 -248 194 -247 l 116 -161 m 144 572 l 49 572 l 49 728 l 144 728 l 144 897 l 319 897 l 319 728 l 424 728 l 424 572 l 319 572 l 319 201 q 395 137 319 137 l 421 137 l 421 -10 l 395 -10 q 274 2 322 -10 q 197 42 225 15 q 156 106 168 68 q 144 199 144 144 l 144 572 z "},"ˆ":{"ha":913,"x_min":215,"x_max":760,"o":"m 760 1059 l 576 1059 l 487 1168 l 403 1061 l 215 1061 l 408 1293 l 568 1293 l 760 1059 z "},"ˇ":{"ha":913,"x_min":215,"x_max":760,"o":"m 760 1293 l 568 1059 l 408 1059 l 215 1291 l 403 1291 l 487 1183 l 576 1293 l 760 1293 z "},"˘":{"ha":823,"x_min":255,"x_max":731,"o":"m 538 1199 q 624 1317 570 1222 l 730 1317 q 731 1296 731 1310 q 684 1137 731 1217 q 600 1059 656 1090 q 493 1028 547 1028 q 386 1059 439 1028 q 302 1137 330 1090 q 255 1296 255 1217 q 256 1317 255 1310 l 365 1317 q 448 1200 403 1230 q 496 1188 463 1190 q 538 1199 524 1190 z "},"˙":{"ha":594,"x_min":206,"x_max":429,"o":"m 206 1192 q 239 1270 206 1238 q 317 1303 271 1303 q 396 1270 363 1303 q 429 1192 429 1238 q 396 1113 429 1145 q 317 1080 363 1080 q 239 1114 272 1080 q 206 1192 206 1146 z "},"˚":{"ha":487,"x_min":88,"x_max":399,"o":"m 193 1217 q 173 1164 173 1195 q 193 1113 173 1134 q 243 1092 214 1092 q 294 1113 273 1092 q 314 1164 314 1134 q 294 1217 314 1195 q 243 1238 273 1238 q 193 1217 214 1238 m 134 1057 q 88 1164 88 1101 q 134 1272 88 1227 q 243 1317 179 1317 q 353 1272 309 1317 q 399 1164 399 1227 q 353 1057 399 1102 q 243 1013 309 1013 q 134 1057 178 1013 z "},"˛":{"ha":358,"x_min":38,"x_max":281,"o":"m 281 -147 l 204 -233 q 171 -216 195 -229 q 134 -195 171 -216 q 99 -171 117 -186 q 68 -143 76 -152 q 46 -111 54 -128 q 38 -76 38 -94 q 111 64 38 -1 l 221 3 q 201 -26 209 -10 q 193 -49 194 -40 q 192 -72 192 -54 q 202 -93 192 -81 q 225 -114 214 -106 q 254 -132 239 -123 q 281 -147 271 -143 z "},"˜":{"ha":739,"x_min":171,"x_max":603,"o":"m 171 1227 q 190 1244 178 1233 q 213 1263 201 1255 q 237 1279 216 1265 q 266 1293 252 1289 q 295 1297 282 1297 q 333 1287 314 1297 q 370 1261 353 1276 q 387 1246 379 1254 q 404 1230 395 1238 q 442 1204 422 1215 q 482 1194 463 1194 q 530 1208 504 1194 q 567 1234 553 1221 q 603 1267 591 1256 l 603 1090 q 582 1073 601 1088 q 553 1051 572 1065 q 522 1035 542 1043 q 482 1027 502 1027 q 427 1043 456 1027 q 379 1078 399 1059 q 335 1114 361 1095 q 293 1130 312 1130 q 257 1123 273 1130 q 229 1109 237 1115 q 199 1086 224 1105 q 171 1064 180 1072 l 171 1227 z "},"˝":{"ha":880,"x_min":229,"x_max":764,"o":"m 593 1013 q 578 1006 589 1006 q 551 1013 566 1006 q 526 1028 538 1019 q 505 1054 516 1035 q 493 1086 493 1073 q 496 1095 493 1092 l 637 1307 q 667 1320 646 1320 q 699 1313 680 1320 q 728 1298 718 1307 q 753 1268 741 1289 q 764 1229 764 1247 q 758 1206 764 1215 l 593 1013 m 330 1013 q 315 1006 324 1006 q 288 1013 302 1006 q 262 1028 274 1019 q 240 1054 252 1036 q 229 1086 229 1072 q 232 1095 229 1092 l 374 1307 q 404 1320 382 1320 q 435 1313 416 1320 q 464 1298 454 1307 q 490 1268 478 1289 q 500 1229 500 1249 q 494 1206 500 1215 l 330 1013 z "},"̀":{"ha":0,"x_min":-648,"x_max":-347,"o":"m -347 883 l -534 883 l -648 1055 l -466 1055 l -347 883 z "},"́":{"ha":0,"x_min":-654,"x_max":-353,"o":"m -535 1055 l -353 1055 l -467 883 l -654 883 l -535 1055 z "},"̂":{"ha":0,"x_min":-625,"x_max":-81,"o":"m -81 798 l -264 795 l -355 907 l -438 800 l -625 800 l -434 1030 l -273 1031 l -81 798 z "},"̃":{"ha":0,"x_min":-543,"x_max":-110,"o":"m -543 987 q -487 1031 -488 1031 q -418 1057 -453 1057 q -328 1006 -386 1057 q -231 954 -269 954 q -227 954 -231 954 q -114 1022 -182 954 l -110 1026 l -111 850 l -161 808 q -231 785 -196 785 q -338 840 -273 785 q -420 888 -393 888 q -424 888 -420 888 q -463 878 -445 888 q -511 846 -481 869 l -543 823 l -543 987 z "},"̄":{"ha":0,"x_min":-585,"x_max":-61,"o":"m -585 958 l -61 958 l -61 795 l -585 795 l -585 958 z "},"̅":{"ha":0,"x_min":-593,"x_max":-56,"o":"m -453 1006 q -433 966 -441 975 q -383 913 -412 930 q -324 897 -353 897 q -260 912 -288 897 q -210 962 -233 927 l -210 961 l -188 1005 l -56 1005 q -82 946 -66 978 q -115 891 -98 913 q -205 812 -154 842 q -324 780 -260 780 q -436 806 -381 780 q -528 880 -489 831 q -562 936 -544 900 q -593 1006 -576 964 l -453 1006 z "},"̆":{"ha":0,"x_min":-470,"x_max":-248,"o":"m -470 901 q -413 998 -470 967 q -359 1012 -391 1012 q -261 955 -293 1012 q -248 901 -248 932 q -304 804 -248 836 q -359 789 -328 789 q -456 846 -425 789 q -470 901 -470 869 z "},"̇":{"ha":0,"x_min":-667,"x_max":-125,"o":"m -347 901 q -290 998 -347 967 q -236 1012 -268 1012 q -139 955 -171 1012 q -125 901 -125 932 q -182 804 -125 836 q -236 789 -205 789 q -334 846 -302 789 q -347 901 -347 869 m -667 901 q -610 998 -667 967 q -556 1012 -588 1012 q -458 955 -490 1012 q -445 901 -445 932 q -502 804 -445 836 q -556 789 -526 789 q -654 846 -622 789 q -667 901 -667 869 z "},"̊":{"ha":0,"x_min":-578,"x_max":-147,"o":"m -462 968 q -409 878 -462 905 q -363 866 -386 866 q -277 919 -304 866 q -266 968 -266 943 q -318 1058 -266 1031 q -363 1069 -340 1069 q -449 1017 -422 1069 q -462 968 -462 992 m -578 968 q -494 1137 -578 1073 q -363 1180 -438 1180 q -192 1097 -257 1180 q -147 968 -147 1040 q -232 800 -147 863 q -363 756 -290 756 q -534 838 -469 756 q -578 968 -578 895 z "},"̋":{"ha":0,"x_min":-654,"x_max":-79,"o":"m -535 1055 l -353 1055 l -467 883 l -654 883 l -535 1055 m -261 1055 l -79 1055 l -193 883 l -380 883 l -261 1055 z "},"̌":{"ha":0,"x_min":-625,"x_max":-81,"o":"m -273 795 l -434 797 l -625 1027 l -438 1027 l -355 920 l -264 1031 l -81 1029 l -273 795 z "},"̐":{"ha":0,"x_min":-593,"x_max":-56,"o":"m -453 1006 q -433 966 -441 975 q -383 913 -412 930 q -324 897 -353 897 q -260 912 -288 897 q -210 962 -233 927 l -210 961 l -188 1005 l -56 1005 q -82 946 -66 978 q -115 891 -98 913 q -205 812 -154 842 q -324 780 -260 780 q -436 806 -381 780 q -528 880 -489 831 q -562 936 -544 900 q -593 1006 -576 964 l -453 1006 m -438 1115 q -381 1213 -438 1181 q -327 1226 -359 1226 q -229 1169 -260 1226 q -216 1115 -216 1147 q -273 1018 -216 1050 q -327 1004 -296 1004 q -424 1061 -392 1004 q -438 1115 -438 1084 z "},"̣":{"ha":0,"x_min":-470,"x_max":-248,"o":"m -470 -197 q -413 -100 -470 -132 q -359 -86 -389 -86 q -261 -143 -293 -86 q -248 -197 -248 -165 q -304 -295 -248 -263 q -359 -309 -327 -309 q -456 -252 -425 -309 q -470 -197 -470 -228 z "},"̤":{"ha":0,"x_min":-667,"x_max":-125,"o":"m -347 -195 q -290 -98 -347 -129 q -236 -83 -267 -83 q -139 -140 -171 -83 q -125 -195 -125 -163 q -182 -292 -125 -260 q -236 -306 -206 -306 q -334 -249 -302 -306 q -347 -195 -347 -227 m -667 -195 q -610 -98 -667 -129 q -556 -83 -587 -83 q -458 -140 -490 -83 q -445 -195 -445 -163 q -502 -292 -445 -260 q -556 -306 -525 -306 q -654 -249 -622 -306 q -667 -195 -667 -227 z "},"̥":{"ha":0,"x_min":-578,"x_max":-147,"o":"m -462 -261 q -409 -352 -462 -324 q -363 -363 -387 -363 q -277 -310 -304 -363 q -266 -261 -266 -286 q -318 -171 -266 -198 q -363 -160 -340 -160 q -449 -213 -422 -160 q -462 -261 -462 -237 m -578 -261 q -494 -92 -578 -156 q -363 -49 -438 -49 q -192 -132 -257 -49 q -147 -261 -147 -189 q -232 -429 -147 -366 q -363 -473 -290 -473 q -534 -391 -469 -473 q -578 -261 -578 -334 z "},"̦":{"ha":301,"x_min":38,"x_max":259,"o":"m 259 -109 q 245 -188 259 -148 q 210 -258 230 -229 q 170 -309 187 -290 q 138 -341 151 -331 l 87 -312 q 106 -271 98 -294 q 118 -229 118 -243 q 117 -222 118 -226 q 61 -186 85 -214 q 38 -109 38 -158 q 71 -34 38 -68 q 146 0 102 0 q 229 -34 200 0 q 259 -109 259 -69 z "},"̧":{"ha":0,"x_min":-674,"x_max":-431,"o":"m -674 -161 q -591 -102 -602 -119 q -585 -86 -585 -94 q -614 -11 -585 -42 l -505 50 q -431 -90 -431 -15 q -568 -232 -431 -161 q -598 -248 -570 -233 l -674 -161 z "},"̨":{"ha":0,"x_min":-674,"x_max":-431,"o":"m -507 -248 q -536 -232 -536 -232 q -674 -90 -674 -161 q -601 50 -674 -15 l -491 -11 q -520 -86 -520 -42 q -514 -102 -520 -93 q -431 -161 -503 -120 l -507 -248 z "},"̱":{"ha":0,"x_min":-585,"x_max":-61,"o":"m -585 -92 l -61 -92 l -61 -254 l -585 -254 l -585 -92 z "},"ͺ":{"ha":336,"x_min":63,"x_max":286,"o":"m 96 425 q 79 441 96 425 q 63 503 63 457 q 96 582 63 549 q 174 614 128 614 q 253 582 220 614 q 286 503 286 549 q 253 425 286 457 q 174 392 220 392 q 96 425 128 392 z "},"΄":{"ha":772,"x_min":315,"x_max":503,"o":"m 439 808 q 428 796 437 801 q 401 791 418 791 q 371 793 383 791 q 340 808 360 795 q 317 832 323 819 q 315 842 315 839 l 350 1053 q 372 1076 353 1068 q 403 1084 387 1084 l 412 1084 q 435 1082 425 1084 q 471 1066 453 1079 q 498 1035 490 1053 q 503 1019 503 1027 q 501 1012 503 1017 l 439 808 z "},"΅":{"ha":772,"x_min":53,"x_max":719,"o":"m 418 808 q 408 796 416 801 q 380 791 398 791 q 350 793 362 791 q 320 808 340 795 q 296 832 302 821 q 295 842 294 838 l 329 1053 q 351 1076 332 1068 q 382 1084 366 1084 q 391 1084 382 1084 q 415 1082 405 1084 q 450 1066 432 1080 q 477 1035 469 1053 q 480 1012 484 1022 l 418 808 m 85 836 q 69 852 85 836 q 53 914 53 868 q 85 993 53 960 q 164 1025 118 1025 q 243 993 210 1025 q 275 914 275 960 q 243 836 275 868 q 164 803 210 803 q 85 836 118 803 m 529 836 q 513 852 529 836 q 496 914 496 868 q 529 993 496 960 q 608 1025 562 1025 q 686 993 654 1025 q 719 914 719 960 q 686 836 719 868 q 608 803 654 803 q 529 836 562 803 z "},"Ά":{"ha":964,"x_min":32,"x_max":932,"o":"m 492 711 l 385 424 l 588 424 l 492 711 m 639 257 l 335 257 l 243 0 l 32 0 l 414 987 l 587 987 l 932 0 l 724 0 l 639 257 m 243 808 q 233 796 241 801 q 205 791 223 791 q 176 793 188 791 q 145 808 165 795 q 122 832 128 819 q 120 842 119 839 l 155 1053 q 176 1076 158 1068 q 208 1084 192 1084 l 216 1084 q 240 1082 230 1084 q 276 1066 258 1079 q 303 1035 295 1053 q 307 1019 307 1027 q 306 1012 307 1017 l 243 808 z "},"Έ":{"ha":977,"x_min":36,"x_max":909,"o":"m 243 987 l 909 987 l 909 825 l 425 825 l 425 587 l 867 587 l 867 425 l 425 425 l 425 163 l 909 163 l 909 0 l 243 0 l 243 987 m 159 808 q 149 796 157 801 q 121 791 139 791 q 92 793 104 791 q 61 808 81 795 q 38 832 44 819 q 36 842 35 839 l 71 1053 q 92 1076 74 1068 q 123 1084 108 1084 l 132 1084 q 156 1082 146 1084 q 192 1066 174 1079 q 219 1035 211 1053 q 223 1019 223 1027 q 222 1012 223 1017 l 159 808 z "},"Ή":{"ha":991,"x_min":25,"x_max":923,"o":"m 230 987 l 412 987 l 412 586 l 741 586 l 741 987 l 923 987 l 923 0 l 741 0 l 741 424 l 412 424 l 412 0 l 230 0 l 230 987 m 149 808 q 138 796 146 801 q 111 791 128 791 q 81 793 93 791 q 50 808 70 795 q 27 832 33 819 q 25 842 24 839 l 60 1053 q 81 1076 63 1068 q 113 1084 97 1084 l 121 1084 q 145 1082 135 1084 q 181 1066 163 1079 q 208 1035 200 1053 q 212 1019 212 1027 q 211 1012 212 1017 l 149 808 z "},"Ί":{"ha":483,"x_min":25,"x_max":415,"o":"m 233 0 l 233 987 l 415 987 l 415 0 l 233 0 m 149 808 q 138 796 146 801 q 111 791 128 791 q 81 793 93 791 q 50 808 70 795 q 27 832 33 819 q 25 842 24 839 l 60 1053 q 81 1076 63 1068 q 113 1084 97 1084 l 121 1084 q 145 1082 135 1084 q 181 1066 163 1079 q 208 1035 200 1053 q 212 1019 212 1027 q 211 1012 212 1017 l 149 808 z "},"Ό":{"ha":1044,"x_min":28,"x_max":977,"o":"m 785 511 q 774 629 785 572 q 739 736 762 687 q 668 817 715 785 q 560 847 622 847 q 470 827 509 847 q 406 773 432 807 q 364 696 379 737 q 341 606 347 648 q 335 511 335 560 q 342 408 335 456 q 365 310 349 357 q 406 225 382 260 q 471 167 432 189 q 560 144 511 144 q 650 167 611 144 q 714 225 689 189 q 756 310 741 264 q 779 408 774 362 q 785 511 785 458 m 143 511 q 157 647 143 578 q 202 780 170 711 q 281 897 233 844 q 399 979 328 947 q 560 1010 471 1010 q 721 979 650 1010 q 840 897 793 947 q 918 781 885 849 q 963 647 950 712 q 977 511 977 578 q 963 368 977 441 q 918 225 950 299 q 839 100 886 155 q 720 14 793 47 q 560 -20 649 -20 q 401 14 472 -20 q 281 100 327 48 q 203 224 234 155 q 157 367 171 296 q 143 511 143 435 m 152 808 q 141 796 150 801 q 114 791 132 791 q 84 793 96 791 q 54 808 73 795 q 31 832 37 819 q 28 842 28 839 l 63 1053 q 85 1076 66 1068 q 116 1084 100 1084 l 125 1084 q 149 1082 138 1084 q 184 1066 166 1079 q 212 1035 203 1053 q 216 1019 216 1027 q 214 1012 216 1017 l 152 808 z "},"Ύ":{"ha":891,"x_min":45,"x_max":846,"o":"m 45 987 l 237 987 l 448 623 l 658 987 l 846 987 l 541 478 l 541 0 l 358 0 l 358 478 l 45 987 z "},"Ώ":{"ha":1108,"x_min":20,"x_max":1040,"o":"m 535 155 l 535 0 l 127 0 l 127 155 l 271 155 q 233 224 248 192 q 187 367 201 296 q 174 511 174 435 q 187 647 174 578 q 233 780 200 711 q 311 897 263 844 q 430 979 358 947 q 591 1010 501 1010 q 751 979 680 1010 q 870 897 823 947 q 948 781 916 849 q 994 647 981 712 q 1007 511 1007 578 q 994 368 1007 441 q 948 225 981 299 q 911 155 932 190 l 1040 155 l 1040 0 l 632 0 l 632 155 q 724 210 673 166 q 788 305 772 251 q 810 408 804 361 q 816 511 816 458 q 804 629 816 572 q 769 736 793 687 q 699 817 746 785 q 591 847 652 847 q 500 827 540 847 q 437 773 463 807 q 395 696 410 737 q 372 606 377 648 q 366 511 366 560 q 372 408 366 456 q 395 310 380 357 q 454 220 411 262 q 535 155 496 177 m 143 808 q 132 796 141 801 q 105 791 123 791 q 75 793 87 791 q 45 808 64 795 q 22 832 28 819 q 20 842 19 839 l 54 1053 q 76 1076 58 1068 q 107 1084 92 1084 l 116 1084 q 140 1082 130 1084 q 176 1066 157 1079 q 203 1035 195 1053 q 207 1019 207 1027 q 205 1012 207 1017 l 143 808 z "},"ΐ":{"ha":536,"x_min":-130,"x_max":536,"o":"m 235 810 q 224 798 233 803 q 197 793 215 793 q 167 795 179 793 q 137 810 157 797 q 113 834 119 823 q 112 844 111 840 l 146 1055 q 168 1078 149 1070 q 199 1086 183 1086 q 208 1086 199 1086 q 232 1084 222 1086 q 267 1068 249 1082 q 294 1037 286 1055 q 297 1014 300 1024 l 235 810 m -98 838 q -114 854 -98 838 q -130 916 -130 870 q -98 995 -130 962 q -19 1027 -65 1027 q 60 995 27 1027 q 92 916 92 962 q 60 838 92 870 q -19 805 27 805 q -98 838 -65 805 m 346 838 q 330 854 346 838 q 313 916 313 870 q 346 995 313 962 q 425 1027 378 1027 q 503 995 471 1027 q 536 916 536 962 q 503 838 536 870 q 425 805 471 805 q 346 838 378 805 z "},"Α":{"ha":964,"x_min":32,"x_max":932,"o":"m 492 711 l 385 424 l 588 424 l 492 711 m 639 257 l 335 257 l 243 0 l 32 0 l 414 987 l 587 987 l 932 0 l 724 0 l 639 257 z "},"Β":{"ha":831,"x_min":81,"x_max":789,"o":"m 262 433 l 262 163 l 416 163 q 566 202 522 163 q 610 303 610 241 q 416 433 610 433 l 262 433 m 262 827 l 262 595 l 376 595 q 510 629 469 595 q 550 711 550 663 q 510 793 550 760 q 376 827 469 827 l 262 827 m 81 987 l 376 987 q 491 978 437 987 q 579 954 544 968 q 643 916 615 938 q 686 871 669 894 q 712 822 701 850 q 726 772 722 795 q 729 726 729 747 q 691 606 729 652 q 590 541 653 559 q 703 480 656 525 q 769 388 750 435 q 789 298 789 339 q 781 227 789 264 q 751 148 774 189 q 692 75 729 106 q 589 22 655 43 q 437 0 522 0 l 81 0 l 81 987 z "},"Γ":{"ha":808,"x_min":78,"x_max":744,"o":"m 260 825 l 260 0 l 78 0 l 78 987 l 744 987 l 744 825 l 260 825 z "},"Δ":{"ha":1050,"x_min":73,"x_max":977,"o":"m 73 0 l 435 987 l 618 987 l 977 0 l 73 0 m 344 163 l 711 163 l 526 700 l 344 163 z "},"Ε":{"ha":821,"x_min":77,"x_max":743,"o":"m 77 987 l 743 987 l 743 825 l 259 825 l 259 587 l 701 587 l 701 425 l 259 425 l 259 163 l 743 163 l 743 0 l 77 0 l 77 987 z "},"Ζ":{"ha":961,"x_min":49,"x_max":886,"o":"m 94 987 l 886 987 l 345 163 l 882 163 l 882 0 l 49 0 l 591 825 l 94 825 l 94 987 z "},"Η":{"ha":850,"x_min":78,"x_max":771,"o":"m 78 987 l 260 987 l 260 586 l 589 586 l 589 987 l 771 987 l 771 0 l 589 0 l 589 424 l 260 424 l 260 0 l 78 0 l 78 987 z "},"Θ":{"ha":956,"x_min":68,"x_max":901,"o":"m 330 588 l 637 588 l 637 425 l 330 425 l 330 588 m 710 511 q 699 629 710 572 q 663 736 687 687 q 593 817 640 785 q 485 847 547 847 q 395 827 434 847 q 331 773 357 807 q 289 696 304 737 q 266 606 271 648 q 260 511 260 560 q 267 408 260 456 q 290 310 274 357 q 331 225 307 260 q 396 167 357 189 q 485 144 435 144 q 575 167 536 144 q 639 225 614 189 q 681 310 666 264 q 704 408 699 362 q 710 511 710 458 m 68 511 q 81 647 68 578 q 127 780 94 711 q 205 897 157 844 q 324 979 252 947 q 485 1010 395 1010 q 646 979 574 1010 q 764 897 718 947 q 842 781 810 849 q 888 647 875 712 q 901 511 901 578 q 888 368 901 441 q 842 225 875 299 q 764 100 811 155 q 645 14 718 47 q 485 -20 574 -20 q 326 14 397 -20 q 206 100 252 48 q 127 224 159 155 q 81 367 96 296 q 68 511 68 435 z "},"Ι":{"ha":376,"x_min":97,"x_max":279,"o":"m 97 0 l 97 987 l 279 987 l 279 0 l 97 0 z "},"Κ":{"ha":904,"x_min":78,"x_max":875,"o":"m 78 987 l 260 987 l 260 565 l 628 987 l 855 987 l 478 548 l 875 0 l 647 0 l 339 426 l 260 336 l 260 0 l 78 0 l 78 987 z "},"Λ":{"ha":883,"x_min":47,"x_max":836,"o":"m 647 0 l 444 709 l 244 0 l 47 0 l 338 987 l 552 987 l 836 0 l 647 0 z "},"Μ":{"ha":1050,"x_min":45,"x_max":1011,"o":"m 45 0 l 45 987 l 289 987 l 526 288 l 768 987 l 1011 987 l 1011 0 l 833 0 l 833 677 l 618 0 l 435 0 l 222 670 l 222 0 l 45 0 z "},"Ν":{"ha":911,"x_min":81,"x_max":828,"o":"m 81 0 l 81 987 l 257 987 l 646 350 l 646 987 l 828 987 l 828 0 l 648 0 l 262 660 l 262 0 l 81 0 z "},"Ξ":{"ha":808,"x_min":78,"x_max":744,"o":"m 78 163 l 744 163 l 744 1 l 78 0 l 78 163 m 78 987 l 744 988 l 744 825 l 78 825 l 78 987 m 137 587 l 670 588 l 670 425 l 137 425 l 137 587 z "},"Ο":{"ha":956,"x_min":68,"x_max":901,"o":"m 710 511 q 699 629 710 572 q 663 736 687 687 q 593 817 640 785 q 485 847 547 847 q 395 827 434 847 q 331 773 357 807 q 289 696 304 737 q 266 606 271 648 q 260 511 260 560 q 267 408 260 456 q 290 310 274 357 q 331 225 307 260 q 396 167 357 189 q 485 144 435 144 q 575 167 536 144 q 639 225 614 189 q 681 310 666 264 q 704 408 699 362 q 710 511 710 458 m 68 511 q 81 647 68 578 q 127 780 94 711 q 205 897 157 844 q 324 979 252 947 q 485 1010 395 1010 q 646 979 574 1010 q 764 897 718 947 q 842 781 810 849 q 888 647 875 712 q 901 511 901 578 q 888 368 901 441 q 842 225 875 299 q 764 100 811 155 q 645 14 718 47 q 485 -20 574 -20 q 326 14 397 -20 q 206 100 252 48 q 127 224 159 155 q 81 367 96 296 q 68 511 68 435 z "},"Π":{"ha":850,"x_min":78,"x_max":771,"o":"m 78 987 l 771 987 l 771 0 l 589 0 l 589 825 l 260 825 l 260 0 l 78 0 l 78 987 z "},"Ρ":{"ha":779,"x_min":82,"x_max":725,"o":"m 264 558 l 352 558 q 539 692 539 558 q 352 825 539 825 l 264 825 l 264 558 m 82 987 l 264 987 l 352 987 q 515 964 444 987 q 633 901 590 940 q 701 807 677 861 q 725 692 725 753 q 700 576 725 629 q 628 481 674 522 q 510 417 581 440 q 352 393 437 393 l 264 393 l 264 0 l 82 0 l 82 987 z "},"Σ":{"ha":1050,"x_min":34,"x_max":781,"o":"m 781 0 l 34 0 l 34 244 l 260 481 l 34 723 l 34 966 l 781 966 l 781 789 l 222 789 l 509 480 l 229 178 l 781 178 l 781 0 z "},"Τ":{"ha":918,"x_min":53,"x_max":868,"o":"m 53 987 l 868 987 l 868 825 l 558 825 l 558 0 l 376 0 l 376 825 l 53 825 l 53 987 z "},"Υ":{"ha":891,"x_min":45,"x_max":846,"o":"m 45 987 l 237 987 l 448 623 l 658 987 l 846 987 l 541 478 l 541 0 l 358 0 l 358 478 l 45 987 z "},"Φ":{"ha":1057,"x_min":65,"x_max":991,"o":"m 627 214 l 627 0 l 463 0 l 463 213 q 413 220 427 217 q 285 256 346 231 q 173 319 221 281 q 95 414 123 357 q 65 542 65 472 q 95 669 65 611 q 173 765 124 726 q 285 827 218 800 q 413 864 348 853 q 463 871 444 869 l 463 986 l 627 986 l 627 870 q 665 865 642 869 q 785 828 726 853 q 890 765 844 802 q 964 670 935 728 q 991 542 991 614 q 964 414 991 470 q 890 318 935 355 q 785 256 848 282 q 665 220 728 231 q 627 214 631 214 m 627 717 l 627 367 q 650 370 635 368 q 745 399 699 379 q 818 455 789 418 q 845 542 845 491 q 827 614 845 582 q 779 665 808 646 q 709 699 747 686 q 628 717 667 712 l 627 717 m 463 366 l 463 718 q 456 717 460 718 q 450 716 452 716 q 361 698 405 711 q 286 665 317 684 q 233 613 252 644 q 213 542 213 583 q 233 470 213 500 q 286 418 254 437 q 361 385 321 397 q 450 367 405 372 q 456 366 452 366 q 463 366 460 366 z "},"Χ":{"ha":880,"x_min":36,"x_max":831,"o":"m 40 987 l 250 987 l 432 648 l 616 987 l 827 987 l 539 493 l 831 0 l 602 0 l 432 312 l 264 0 l 36 0 l 326 493 l 40 987 z "},"Ψ":{"ha":754,"x_min":62,"x_max":703,"o":"m 703 989 q 703 640 703 989 q 619 359 703 463 q 476 268 563 290 l 476 0 l 294 0 l 294 267 q 146 359 203 289 q 62 636 62 463 q 62 640 62 636 l 64 989 l 235 989 l 233 640 q 233 635 233 640 q 294 446 233 498 l 294 987 l 476 987 l 476 448 q 534 640 534 500 l 532 989 l 703 989 z "},"Ω":{"ha":956,"x_min":21,"x_max":935,"o":"m 429 155 l 429 0 l 21 0 l 21 155 l 165 155 q 127 224 142 192 q 81 367 96 296 q 68 511 68 435 q 81 647 68 578 q 127 780 94 711 q 205 897 157 844 q 324 979 252 947 q 485 1010 395 1010 q 646 979 574 1010 q 764 897 718 947 q 842 781 810 849 q 888 647 875 712 q 901 511 901 578 q 888 368 901 441 q 842 225 875 299 q 805 155 827 190 l 935 155 l 935 0 l 526 0 l 526 155 q 618 210 567 166 q 682 305 667 251 q 704 408 699 361 q 710 511 710 458 q 699 629 710 572 q 663 736 687 687 q 593 817 640 785 q 485 847 547 847 q 395 827 434 847 q 331 773 357 807 q 289 696 304 737 q 266 606 271 648 q 260 511 260 560 q 267 408 260 456 q 290 310 274 357 q 348 220 305 262 q 429 155 391 177 z "},"Ϊ":{"ha":376,"x_min":-83,"x_max":459,"o":"m 97 0 l 97 987 l 279 987 l 279 0 l 97 0 m -83 1192 q -50 1270 -83 1238 q 28 1303 -18 1303 q 107 1270 75 1303 q 140 1192 140 1238 q 107 1113 140 1145 q 28 1080 75 1080 q -50 1114 -17 1080 q -83 1192 -83 1146 m 237 1192 q 269 1270 237 1238 q 348 1303 302 1303 q 427 1270 394 1303 q 459 1192 459 1238 q 427 1113 459 1145 q 348 1080 394 1080 q 269 1114 302 1080 q 237 1192 237 1146 z "},"Ϋ":{"ha":891,"x_min":45,"x_max":846,"o":"m 45 987 l 237 987 l 448 623 l 658 987 l 846 987 l 541 478 l 541 0 l 358 0 l 358 478 l 45 987 m 177 1192 q 210 1270 177 1238 q 288 1303 242 1303 q 367 1270 334 1303 q 399 1192 399 1238 q 367 1113 399 1145 q 288 1080 334 1080 q 210 1114 243 1080 q 177 1192 177 1146 m 496 1192 q 529 1270 496 1238 q 608 1303 562 1303 q 686 1270 654 1303 q 719 1192 719 1238 q 686 1113 719 1145 q 608 1080 654 1080 q 529 1114 562 1080 q 496 1192 496 1146 z "},"ά":{"ha":900,"x_min":62,"x_max":832,"o":"m 233 362 q 361 138 233 138 q 489 362 489 138 q 361 586 489 586 q 233 362 233 586 m 830 652 l 716 536 q 690 556 707 548 q 664 564 680 561 l 664 156 q 692 164 677 157 q 718 184 709 172 l 832 67 q 758 14 801 32 q 665 -8 707 -8 q 648 -9 654 -9 q 564 16 606 -9 l 517 24 l 489 9 q 345 -22 427 -22 q 145 81 229 -22 q 62 362 62 184 q 146 642 62 539 q 363 745 231 745 q 489 717 432 745 l 537 682 q 665 728 583 728 q 757 706 715 728 q 830 652 806 680 m 439 808 q 428 796 437 801 q 401 791 418 791 q 371 793 383 791 q 340 808 360 795 q 317 832 323 819 q 315 842 315 839 l 350 1053 q 372 1076 353 1068 q 403 1084 387 1084 l 412 1084 q 435 1082 425 1084 q 471 1066 453 1079 q 498 1035 490 1053 q 503 1019 503 1027 q 501 1012 503 1017 l 439 808 z "},"έ":{"ha":620,"x_min":58,"x_max":571,"o":"m 571 159 q 508 56 548 96 q 420 -2 467 15 q 314 -20 371 -20 q 212 -1 262 -20 q 131 50 165 18 q 78 124 98 81 q 58 213 58 168 q 69 283 58 248 q 98 339 79 314 q 134 379 115 361 q 177 412 153 395 q 103 552 103 465 q 122 644 103 603 q 174 707 140 684 q 245 741 209 731 q 330 752 282 752 q 541 609 486 752 l 391 565 q 367 595 383 583 q 327 607 350 607 q 275 587 296 607 q 254 531 254 568 q 275 481 254 503 q 325 458 297 458 l 379 458 l 378 298 l 315 298 q 253 273 279 298 q 226 213 226 247 q 251 155 226 178 q 315 131 277 131 q 369 148 341 131 q 409 199 395 163 l 571 159 m 380 808 q 369 796 378 801 q 342 791 359 791 q 312 793 324 791 q 281 808 301 795 q 258 832 264 819 q 256 842 256 839 l 291 1053 q 313 1076 294 1068 q 344 1084 328 1084 l 353 1084 q 376 1082 366 1084 q 412 1066 394 1079 q 439 1035 431 1053 q 444 1019 444 1027 q 442 1012 444 1017 l 380 808 z "},"ή":{"ha":760,"x_min":81,"x_max":688,"o":"m 256 0 l 81 0 l 81 728 l 256 728 l 256 618 q 346 711 286 673 q 475 747 405 747 q 549 728 513 747 q 617 673 584 710 q 669 580 650 635 q 688 453 688 523 l 688 287 l 688 -269 l 513 -269 l 513 291 l 513 364 q 507 459 513 424 q 491 524 501 499 q 465 563 480 550 q 431 583 448 578 q 391 588 413 588 q 349 583 368 588 q 312 562 330 578 q 282 523 294 548 q 263 458 271 499 q 256 363 256 416 l 256 0 m 439 808 q 428 796 437 801 q 401 791 418 791 q 371 793 383 791 q 340 808 360 795 q 317 832 323 819 q 315 842 315 839 l 350 1053 q 372 1076 353 1068 q 403 1084 387 1084 l 412 1084 q 435 1082 425 1084 q 471 1066 453 1079 q 498 1035 490 1053 q 503 1019 503 1027 q 501 1012 503 1017 l 439 808 z "},"ί":{"ha":536,"x_min":92,"x_max":523,"o":"m 94 728 l 269 728 l 269 277 l 269 239 q 291 184 269 205 q 347 163 313 163 q 382 172 363 163 q 408 192 400 180 l 523 75 q 449 22 486 35 q 355 8 410 8 q 229 46 291 8 q 132 146 170 83 q 94 277 94 210 l 94 728 m 215 808 q 204 796 213 801 q 177 791 195 791 q 147 793 159 791 q 117 808 136 795 q 94 832 100 819 q 92 842 91 839 l 126 1053 q 148 1076 130 1068 q 179 1084 163 1084 l 188 1084 q 212 1082 201 1084 q 248 1066 229 1079 q 275 1035 267 1053 q 279 1019 279 1027 q 277 1012 279 1017 l 215 808 z "},"ΰ":{"ha":748,"x_min":53,"x_max":719,"o":"m 248 728 l 248 363 q 256 269 248 309 q 275 203 262 235 q 313 153 290 167 q 361 139 337 139 q 366 139 362 139 q 370 140 369 140 q 406 145 395 142 q 441 165 422 150 q 473 205 460 181 q 496 270 486 227 q 505 364 505 283 q 491 482 505 434 q 456 552 478 526 q 411 589 436 576 q 360 601 387 601 l 423 760 q 538 728 488 760 q 619 644 589 697 q 665 522 649 591 q 681 351 681 450 q 665 228 681 307 q 618 107 649 153 q 538 24 583 52 q 444 -16 493 -4 q 359 -27 400 -27 q 269 -16 319 -27 q 123 79 197 0 q 73 363 73 134 l 73 728 l 248 728 m 418 808 q 408 796 416 801 q 380 791 398 791 q 350 793 362 791 q 320 808 340 795 q 296 832 302 821 q 295 842 294 838 l 329 1053 q 351 1076 332 1068 q 382 1084 366 1084 q 391 1084 382 1084 q 415 1082 405 1084 q 450 1066 432 1080 q 477 1035 469 1053 q 480 1012 484 1022 l 418 808 m 85 836 q 69 852 85 836 q 53 914 53 868 q 85 993 53 960 q 164 1025 118 1025 q 243 993 210 1025 q 275 914 275 960 q 243 836 275 868 q 164 803 210 803 q 85 836 118 803 m 529 836 q 513 852 529 836 q 496 914 496 868 q 529 993 496 960 q 608 1025 562 1025 q 686 993 654 1025 q 719 914 719 960 q 686 836 719 868 q 608 803 654 803 q 529 836 562 803 z "},"α":{"ha":900,"x_min":62,"x_max":832,"o":"m 233 362 q 361 138 233 138 q 489 362 489 138 q 361 586 489 586 q 233 362 233 586 m 830 652 l 716 536 q 690 556 707 548 q 664 564 680 561 l 664 156 q 692 164 677 157 q 718 184 709 172 l 832 67 q 758 14 801 32 q 665 -8 707 -8 q 648 -9 654 -9 q 564 16 606 -9 l 517 24 l 489 9 q 345 -22 427 -22 q 145 81 229 -22 q 62 362 62 184 q 146 642 62 539 q 363 745 231 745 q 489 717 432 745 l 537 682 q 665 728 583 728 q 757 706 715 728 q 830 652 806 680 z "},"β":{"ha":855,"x_min":42,"x_max":785,"o":"m 108 854 q 437 1036 202 1036 q 663 950 578 1036 q 747 728 747 863 q 712 587 747 639 q 633 520 677 536 q 677 496 651 516 q 727 444 704 474 q 768 366 751 413 q 785 271 785 320 q 686 54 785 129 q 419 -20 588 -20 q 281 16 315 -20 l 348 153 q 402 132 370 132 q 509 145 465 132 q 585 190 556 159 q 615 271 615 222 q 547 391 615 341 q 367 440 479 440 q 359 440 363 440 q 353 440 355 440 q 349 441 351 441 q 347 441 347 441 l 346 441 q 363 572 347 441 q 433 579 401 572 q 500 602 468 587 q 555 651 534 618 q 575 728 575 684 q 541 841 575 805 q 437 878 507 878 q 323 850 366 878 q 257 773 280 823 q 235 629 242 743 q 227 259 227 504 q 219 -115 226 9 q 200 -269 213 -234 l 42 -269 q 60 -152 55 -238 q 66 178 65 -64 q 68 529 67 444 q 80 728 71 633 q 108 854 89 818 z "},"γ":{"ha":719,"x_min":49,"x_max":653,"o":"m 279 0 l 49 728 l 233 728 l 355 262 l 486 728 l 653 728 l 337 -269 l 203 -269 l 279 0 z "},"δ":{"ha":749,"x_min":62,"x_max":703,"o":"m 62 364 q 146 643 62 541 q 296 736 205 715 l 168 864 l 168 1027 l 688 1027 l 688 864 l 400 864 l 619 644 q 703 364 703 541 q 619 84 703 188 q 383 -20 536 -20 q 146 83 230 -20 q 62 364 62 186 m 233 364 q 384 140 233 140 q 534 364 534 140 q 384 587 534 587 q 233 364 233 587 z "},"ε":{"ha":620,"x_min":58,"x_max":571,"o":"m 571 159 q 508 56 548 96 q 420 -2 467 15 q 314 -20 371 -20 q 212 -1 262 -20 q 131 50 165 18 q 78 124 98 81 q 58 213 58 168 q 69 283 58 248 q 98 339 79 314 q 134 379 115 361 q 177 412 153 395 q 103 552 103 465 q 122 644 103 603 q 174 707 140 684 q 245 741 209 731 q 330 752 282 752 q 541 609 486 752 l 391 565 q 367 595 383 583 q 327 607 350 607 q 275 587 296 607 q 254 531 254 568 q 275 481 254 503 q 325 458 297 458 l 379 458 l 378 298 l 315 298 q 253 273 279 298 q 226 213 226 247 q 251 155 226 178 q 315 131 277 131 q 369 148 341 131 q 409 199 395 163 l 571 159 z "},"ζ":{"ha":760,"x_min":38,"x_max":709,"o":"m 389 824 l 81 824 l 81 987 l 651 987 l 651 824 l 251 429 q 216 340 222 395 q 214 314 214 327 q 266 193 214 243 q 391 143 317 143 q 461 136 441 138 q 631 63 555 130 q 708 -104 699 14 q 709 -117 709 -109 q 689 -197 709 -156 q 638 -259 671 -237 l 494 -149 q 515 -92 515 -129 q 494 -42 515 -64 q 445 -20 473 -20 l 391 -20 q 133 74 229 -20 q 38 340 38 167 q 122 557 38 451 l 389 824 z "},"η":{"ha":760,"x_min":81,"x_max":688,"o":"m 256 0 l 81 0 l 81 728 l 256 728 l 256 618 q 346 711 286 673 q 475 747 405 747 q 549 728 513 747 q 617 673 584 710 q 669 580 650 635 q 688 453 688 523 l 688 287 l 688 -269 l 513 -269 l 513 291 l 513 364 q 507 459 513 424 q 491 524 501 499 q 465 563 480 550 q 431 583 448 578 q 391 588 413 588 q 349 583 368 588 q 312 562 330 578 q 282 523 294 548 q 263 458 271 499 q 256 363 256 416 l 256 0 z "},"θ":{"ha":798,"x_min":54,"x_max":739,"o":"m 54 513 q 146 879 54 747 q 400 1010 237 1010 q 650 879 562 1010 q 739 513 739 748 q 699 237 739 359 q 581 49 659 116 q 397 -19 503 -19 l 396 -19 q 212 49 290 -19 q 94 237 134 117 q 54 513 54 355 m 239 614 l 554 614 q 525 772 547 722 q 400 846 494 846 q 271 771 306 846 q 239 614 246 718 m 556 452 l 237 452 q 240 382 237 423 q 255 281 243 332 q 283 206 265 235 q 330 161 302 177 q 396 145 358 145 q 475 168 444 145 q 525 241 508 192 q 549 354 543 290 q 556 452 554 393 z "},"ι":{"ha":536,"x_min":94,"x_max":523,"o":"m 94 728 l 269 728 l 269 277 l 269 239 q 291 184 269 205 q 347 163 313 163 q 382 172 363 163 q 408 192 400 180 l 523 75 q 449 22 486 35 q 355 8 410 8 q 229 46 291 8 q 132 146 170 83 q 94 277 94 210 l 94 728 z "},"κ":{"ha":698,"x_min":16,"x_max":696,"o":"m 197 281 l 197 -1 l 16 -1 l 16 728 l 197 728 l 197 456 l 469 728 l 696 728 l 352 372 l 692 0 l 465 0 l 197 281 z "},"λ":{"ha":719,"x_min":49,"x_max":653,"o":"m 279 728 l 197 1027 l 331 1027 l 653 0 l 486 0 l 355 465 l 233 0 l 49 0 l 279 728 z "}}}
